M48
; DRILL file {KiCad (5.1.5)-3} date 01/05/2021 11:42:19
; FORMAT={-:-/ absolute / inch / decimal}
; #@! TF.CreationDate,2021-05-01T11:42:19+02:00
; #@! TF.GenerationSoftware,Kicad,Pcbnew,(5.1.5)-3
; #@! TF.FileFunction,Plated,1,2,PTH
FMAT,2
INCH
T1C0.0157
T2C0.0295
T3C0.0315
T4C0.0354
T5C0.0394
T6C0.0433
T7C0.0512
T8C0.0591
T9C0.0630
T10C0.0866
T11C0.1063
%
G90
G05
T1
X2.05Y-2.7
X2.15Y-2.7
X3.25Y-3.55
X3.85Y-1.5
X3.9Y-3.6
X4.65Y-2.15
X4.65Y-2.15
T2
X5.05Y-1.5
X5.1Y-1.45
X5.15Y-1.5
X5.1Y-0.75
X5.15Y-0.7
X5.2Y-0.75
X5.1Y-2.05
X5.15Y-2.0
X5.2Y-2.05
X5.1Y-2.8
X5.15Y-2.75
X5.2Y-2.8
X4.75Y-0.15
X4.8Y-0.1
X4.85Y-0.15
T3
X4.5Y-1.4
X4.8Y-1.4
X4.5Y-1.6
X4.8Y-1.6
X2.05Y-1.75
X2.35Y-1.75
X1.55Y-2.75
X1.85Y-2.75
X2.65Y0.0
X2.65Y-0.1969
X2.45Y-2.55
X2.45Y-2.85
X1.55Y-2.15
X1.85Y-2.15
X2.6Y-1.25
X2.6Y-1.55
X1.6Y-2.35
X1.6Y-2.45
X1.6Y-2.55
X1.9Y-2.35
X1.9Y-2.45
X1.9Y-2.55
X5.45Y-0.7
X5.75Y-0.7
X4.9Y-2.45
X5.2Y-2.45
X5.4Y-2.75
X5.4Y-3.05
X3.1Y-0.1
X3.1Y-0.2969
X0.75Y-2.9
X0.75Y-3.2
X3.45Y-2.75
X3.75Y-2.75
X4.5Y-1.1
X4.8Y-1.1
X1.25Y-3.05
X1.4469Y-3.05
X4.5Y-0.95
X4.8Y-0.95
X2.1Y-2.25
X2.2969Y-2.25
X0.95Y-2.9
X0.95Y-3.2
X4.5Y-1.25
X4.8Y-1.25
X5.4Y-1.5
X5.4Y-1.8
X5.05Y-0.15
X5.35Y-0.15
X2.9Y-1.25
X2.9Y-1.55
X0.35Y-2.9
X0.35Y-3.2
X1.55Y-1.95
X1.85Y-1.95
X2.65Y-2.55
X2.65Y-2.85
X2.85Y-2.55
X2.85Y-2.85
X2.7Y-1.75
X2.7Y-2.05
X2.75Y-1.25
X2.75Y-1.55
X0.55Y-2.9
X0.55Y-3.2
X2.05Y-1.95
X2.35Y-1.95
X1.55Y-1.75
X1.85Y-1.75
T4
X5.55Y-2.25
X5.55Y-2.35
X5.65Y-0.1
X5.65Y-0.2
X0.7Y-1.85
X0.7Y-2.0469
X0.7Y-2.4406
X1.2906Y-1.85
X1.2906Y-2.0469
X1.2906Y-2.2437
X1.2906Y-2.4406
X0.8Y-0.4
X0.8Y-0.5969
X0.8Y-1.0
X0.8Y-1.2
X1.7Y-0.4
X1.7Y-0.6
X1.7Y-0.8
X1.7Y-1.0
X1.7Y-1.2
T5
X2.65Y-3.05
X2.65Y-3.15
X2.65Y-3.25
X4.5Y-3.7
X4.6Y-3.7
X4.7Y-3.7
X4.8Y-3.7
X2.4459Y-3.05
X2.4459Y-3.15
X2.4459Y-3.25
X3.15Y-0.8
X3.15Y-0.9
X3.15Y-1.0
X3.15Y-1.1
X3.15Y-1.2
X3.15Y-1.3
X3.15Y-1.4
X3.15Y-1.5
X3.15Y-1.6
X3.15Y-1.7
X3.15Y-1.8
X3.15Y-1.9
X3.15Y-2.0
X3.15Y-2.1
X3.15Y-2.2
X3.15Y-2.3
X3.15Y-2.4
X3.15Y-2.5
X3.15Y-2.6
X4.15Y-0.8
X4.15Y-0.9
X4.15Y-1.0
X4.15Y-1.1
X4.15Y-1.2
X4.15Y-1.3
X4.15Y-1.4
X4.15Y-1.5
X4.15Y-1.6
X4.15Y-1.7
X4.15Y-1.8
X4.15Y-1.9
X4.15Y-2.0
X4.15Y-2.1
X4.15Y-2.2
X4.15Y-2.3
X4.15Y-2.4
X4.15Y-2.5
X4.15Y-2.6
X2.85Y-3.05
X2.85Y-3.15
X2.85Y-3.25
T6
X2.75Y-0.75
X2.75Y-0.85
X2.75Y-0.95
T7
X5.65Y-1.2
X5.65Y-1.9
X6.15Y-1.2
X5.65Y-2.7
X5.65Y-3.4
X6.15Y-2.7
T8
X0.1Y-0.8
X0.1Y-1.6898
T9
X2.3Y-0.45
X2.3Y-0.65
X2.3Y-0.85
X2.3Y-1.05
T10
X6.15Y-1.65
X6.15Y-3.15
T11
X2.9Y0.15
X2.9Y-3.7
X3.6Y0.15
X3.6Y-3.7
X4.65Y-2.15
X6.45Y-2.8531
X6.45Y-3.05
X0.0Y-0.35
X0.0Y-0.5469
X6.45Y-0.6531
X6.45Y-0.85
X3.45Y-3.35
X3.6469Y-3.35
X0.05Y-2.9031
X0.05Y-3.1
X6.4Y-1.7031
X6.4Y-1.9
T0
M30
