%FSLAX45Y45*%
G04 Gerber Fmt 4.5, Leading zero omitted, Abs format (unit mm)*
G04 Created by KiCad (PCBNEW (5.1.5)-3) date 2021-05-01 11:42:22*
%MOMM*%
%LPD*%
G04 APERTURE LIST*
%TA.AperFunction,Profile*%
%ADD10C,0.050000*%
%TD*%
%ADD11C,0.200000*%
%ADD12C,0.300000*%
G04 APERTURE END LIST*
D10*
X-762000Y-9779000D02*
X-762000Y635000D01*
X17145000Y-9779000D02*
X-762000Y-9779000D01*
X17145000Y635000D02*
X17145000Y-9779000D01*
X-762000Y635000D02*
X17145000Y635000D01*
D11*
D12*
X-478072Y-10247214D02*
X-478072Y-9947214D01*
X-406643Y-9947214D01*
X-363786Y-9961500D01*
X-335214Y-9990072D01*
X-320929Y-10018643D01*
X-306643Y-10075786D01*
X-306643Y-10118643D01*
X-320929Y-10175786D01*
X-335214Y-10204357D01*
X-363786Y-10232929D01*
X-406643Y-10247214D01*
X-478072Y-10247214D01*
X-178072Y-10247214D02*
X-178072Y-10047214D01*
X-178072Y-10104357D02*
X-163786Y-10075786D01*
X-149500Y-10061500D01*
X-120929Y-10047214D01*
X-92357Y-10047214D01*
X7643Y-10247214D02*
X7643Y-10047214D01*
X7643Y-9947214D02*
X-6643Y-9961500D01*
X7643Y-9975786D01*
X21928Y-9961500D01*
X7643Y-9947214D01*
X7643Y-9975786D01*
X193357Y-10247214D02*
X164786Y-10232929D01*
X150500Y-10204357D01*
X150500Y-9947214D01*
X350500Y-10247214D02*
X321928Y-10232929D01*
X307643Y-10204357D01*
X307643Y-9947214D01*
X693357Y-10247214D02*
X693357Y-9947214D01*
X793357Y-10161500D01*
X893357Y-9947214D01*
X893357Y-10247214D01*
X1164786Y-10247214D02*
X1164786Y-10090072D01*
X1150500Y-10061500D01*
X1121928Y-10047214D01*
X1064786Y-10047214D01*
X1036214Y-10061500D01*
X1164786Y-10232929D02*
X1136214Y-10247214D01*
X1064786Y-10247214D01*
X1036214Y-10232929D01*
X1021928Y-10204357D01*
X1021928Y-10175786D01*
X1036214Y-10147214D01*
X1064786Y-10132929D01*
X1136214Y-10132929D01*
X1164786Y-10118643D01*
X1307643Y-10047214D02*
X1307643Y-10347214D01*
X1307643Y-10061500D02*
X1336214Y-10047214D01*
X1393357Y-10047214D01*
X1421928Y-10061500D01*
X1436214Y-10075786D01*
X1450500Y-10104357D01*
X1450500Y-10190072D01*
X1436214Y-10218643D01*
X1421928Y-10232929D01*
X1393357Y-10247214D01*
X1336214Y-10247214D01*
X1307643Y-10232929D01*
X1579071Y-10218643D02*
X1593357Y-10232929D01*
X1579071Y-10247214D01*
X1564786Y-10232929D01*
X1579071Y-10218643D01*
X1579071Y-10247214D01*
X1579071Y-10061500D02*
X1593357Y-10075786D01*
X1579071Y-10090072D01*
X1564786Y-10075786D01*
X1579071Y-10061500D01*
X1579071Y-10090072D01*
M02*
