G04 #@! TF.GenerationSoftware,KiCad,Pcbnew,(5.1.5)-3*
G04 #@! TF.CreationDate,2021-05-01T11:39:15+02:00*
G04 #@! TF.ProjectId,implantation finale,696d706c-616e-4746-9174-696f6e206669,rev?*
G04 #@! TF.SameCoordinates,PX231fb30PY3680a30*
G04 #@! TF.FileFunction,Copper,L2,Bot*
G04 #@! TF.FilePolarity,Positive*
%FSLAX46Y46*%
G04 Gerber Fmt 4.6, Leading zero omitted, Abs format (unit mm)*
G04 Created by KiCad (PCBNEW (5.1.5)-3) date 2021-05-01 11:39:15*
%MOMM*%
%LPD*%
G04 APERTURE LIST*
%ADD10O,1.700000X1.700000*%
%ADD11R,1.700000X1.700000*%
%ADD12C,2.000000*%
%ADD13C,3.500000*%
%ADD14C,3.000000*%
%ADD15R,2.540000X2.540000*%
%ADD16C,2.540000*%
%ADD17R,1.300000X1.300000*%
%ADD18C,1.300000*%
%ADD19C,3.800000*%
%ADD20R,3.800000X3.800000*%
%ADD21R,2.000000X2.000000*%
%ADD22O,1.600000X1.600000*%
%ADD23R,1.600000X1.600000*%
%ADD24C,1.600000*%
%ADD25C,1.800000*%
%ADD26R,1.800000X1.800000*%
%ADD27O,2.000000X1.905000*%
%ADD28R,2.000000X1.905000*%
%ADD29R,3.200000X3.200000*%
%ADD30C,3.200000*%
%ADD31C,3.700000*%
%ADD32C,0.800000*%
%ADD33C,2.000000*%
%ADD34C,0.250000*%
G04 APERTURE END LIST*
D10*
X114300000Y-93980000D03*
X116840000Y-93980000D03*
X119380000Y-93980000D03*
D11*
X121920000Y-93980000D03*
D12*
X105410000Y-20320000D03*
X105410000Y-22860000D03*
X105410000Y-25400000D03*
X105410000Y-27940000D03*
X105410000Y-30480000D03*
X105410000Y-33020000D03*
X105410000Y-35560000D03*
X105410000Y-38100000D03*
X105410000Y-40640000D03*
X105410000Y-43180000D03*
X105410000Y-45720000D03*
X105410000Y-48260000D03*
X105410000Y-50800000D03*
X105410000Y-53340000D03*
X80010000Y-55880000D03*
X80010000Y-58420000D03*
X80010000Y-60960000D03*
X80010000Y-63500000D03*
X80010000Y-66040000D03*
X105410000Y-66040000D03*
X105410000Y-63500000D03*
X105410000Y-60960000D03*
X105410000Y-58420000D03*
X105410000Y-55880000D03*
X80010000Y-53340000D03*
X80010000Y-50800000D03*
X80010000Y-48260000D03*
X80010000Y-45720000D03*
X80010000Y-43180000D03*
X80010000Y-40640000D03*
X80010000Y-38100000D03*
X80010000Y-35560000D03*
X80010000Y-33020000D03*
X80010000Y-30480000D03*
X80010000Y-27940000D03*
X80010000Y-25400000D03*
X80010000Y-22860000D03*
X80010000Y-20320000D03*
D13*
X156210000Y-80010000D03*
D14*
X143510000Y-68580000D03*
D15*
X156210000Y-68580000D03*
D16*
X143510000Y-86360000D03*
D13*
X156210000Y-41910000D03*
D14*
X143510000Y-30480000D03*
D15*
X156210000Y-30480000D03*
D16*
X143510000Y-48260000D03*
D17*
X129540000Y-19050000D03*
D18*
X132080000Y-19050000D03*
X130810000Y-17780000D03*
D17*
X129540000Y-71120000D03*
D18*
X132080000Y-71120000D03*
X130810000Y-69850000D03*
D17*
X128270000Y-38100000D03*
D18*
X130810000Y-38100000D03*
X129540000Y-36830000D03*
D17*
X129540000Y-52070000D03*
D18*
X132080000Y-52070000D03*
X130810000Y-50800000D03*
D17*
X120650000Y-3810000D03*
D18*
X123190000Y-3810000D03*
X121920000Y-2540000D03*
D19*
X92630000Y-85090000D03*
D20*
X87630000Y-85090000D03*
D12*
X43180000Y-10160000D03*
X43180000Y-15240000D03*
X43180000Y-20320000D03*
X43180000Y-25400000D03*
X43180000Y-30480000D03*
X20320000Y-30480000D03*
X20320000Y-25400000D03*
X20320000Y-15160000D03*
D21*
X20320000Y-10160000D03*
D22*
X95250000Y-69850000D03*
D23*
X87630000Y-69850000D03*
D22*
X138430000Y-17780000D03*
D24*
X146050000Y-17780000D03*
D10*
X67310000Y-82550000D03*
X67310000Y-80010000D03*
D11*
X67310000Y-77470000D03*
D10*
X72390000Y-82550000D03*
X72390000Y-80010000D03*
D11*
X72390000Y-77470000D03*
D10*
X62125001Y-82550000D03*
X62125001Y-80010000D03*
D11*
X62125001Y-77470000D03*
D22*
X67310000Y-72390000D03*
D24*
X67310000Y-64770000D03*
D22*
X72390000Y-72390000D03*
D24*
X72390000Y-64770000D03*
D22*
X62230000Y-72390000D03*
D24*
X62230000Y-64770000D03*
D25*
X140970000Y-57150000D03*
D26*
X140970000Y-59690000D03*
D25*
X143510000Y-2540000D03*
D26*
X143510000Y-5080000D03*
D22*
X114300000Y-40640000D03*
D24*
X121920000Y-40640000D03*
D19*
X163830000Y-72470000D03*
D20*
X163830000Y-77470000D03*
D22*
X137160000Y-77470000D03*
D23*
X137160000Y-69850000D03*
D22*
X114300000Y-31750000D03*
D24*
X121920000Y-31750000D03*
D22*
X121920000Y-27940000D03*
D24*
X114300000Y-27940000D03*
D22*
X124460000Y-62230000D03*
D24*
X132080000Y-62230000D03*
D22*
X121920000Y-35560000D03*
D24*
X114300000Y-35560000D03*
D22*
X128270000Y-3810000D03*
D24*
X135890000Y-3810000D03*
D22*
X121920000Y-24130000D03*
D24*
X114300000Y-24130000D03*
D19*
X162560000Y-43260000D03*
D20*
X162560000Y-48260000D03*
D19*
X163830000Y-21590000D03*
D20*
X163830000Y-16590000D03*
D22*
X137160000Y-45720000D03*
D23*
X137160000Y-38100000D03*
D24*
X67310000Y-5000000D03*
D23*
X67310000Y0D03*
D24*
X36750000Y-77470000D03*
D23*
X31750000Y-77470000D03*
D24*
X58340000Y-57150000D03*
D23*
X53340000Y-57150000D03*
D24*
X78740000Y-7540000D03*
D23*
X78740000Y-2540000D03*
D22*
X13970000Y-81280000D03*
D24*
X13970000Y-73660000D03*
D22*
X66040000Y-39370000D03*
D23*
X66040000Y-31750000D03*
D22*
X68580000Y-52070000D03*
D23*
X68580000Y-44450000D03*
D22*
X73660000Y-39370000D03*
D23*
X73660000Y-31750000D03*
D22*
X69850000Y-39370000D03*
D23*
X69850000Y-31750000D03*
D27*
X69850000Y-24130000D03*
X69850000Y-21590000D03*
D28*
X69850000Y-19050000D03*
D22*
X48260000Y-59690000D03*
X40640000Y-64770000D03*
X48260000Y-62230000D03*
X40640000Y-62230000D03*
X48260000Y-64770000D03*
D23*
X40640000Y-59690000D03*
D12*
X32780000Y-46990000D03*
X32780000Y-51990000D03*
X32780000Y-56990000D03*
X32780000Y-61990000D03*
X17780000Y-61990000D03*
X17780000Y-51990000D03*
D21*
X17780000Y-46990000D03*
D22*
X8890000Y-73660000D03*
D24*
X8890000Y-81280000D03*
D22*
X39370000Y-54610000D03*
D24*
X46990000Y-54610000D03*
D22*
X46990000Y-49530000D03*
D24*
X39370000Y-49530000D03*
D22*
X19050000Y-81280000D03*
D24*
X19050000Y-73660000D03*
D22*
X24130000Y-73660000D03*
D24*
X24130000Y-81280000D03*
D22*
X46990000Y-69850000D03*
D24*
X39370000Y-69850000D03*
D22*
X59690000Y-49530000D03*
D24*
X52070000Y-49530000D03*
D22*
X52070000Y-44450000D03*
D24*
X59690000Y-44450000D03*
D22*
X39370000Y-44450000D03*
D24*
X46990000Y-44450000D03*
D19*
X1270000Y-73740000D03*
D20*
X1270000Y-78740000D03*
D19*
X0Y-13890000D03*
D20*
X0Y-8890000D03*
D14*
X2540000Y-42920000D03*
X2540000Y-20320000D03*
D29*
X58420000Y-11430000D03*
D30*
X58420000Y-16510000D03*
X58420000Y-21590000D03*
X58420000Y-26670000D03*
D31*
X73660000Y3810000D03*
X91440000Y3810000D03*
X73660000Y-93980000D03*
X91440000Y-93980000D03*
D32*
X118110000Y-54610000D03*
X118110000Y-54610000D03*
D31*
X118110000Y-54610000D03*
D32*
X54610000Y-68580000D03*
X52070000Y-68580000D03*
X97790000Y-38100000D03*
X82550000Y-90170000D03*
X99060000Y-91440000D03*
D33*
X19050000Y-81280000D02*
X19050000Y-86360000D01*
X19050000Y-86360000D02*
X36830000Y-86360000D01*
X36750000Y-86280000D02*
X36750000Y-77470000D01*
X36830000Y-86360000D02*
X36750000Y-86280000D01*
X40640000Y-86360000D02*
X36830000Y-86360000D01*
X46990000Y-69850000D02*
X46990000Y-77470000D01*
X46990000Y-77470000D02*
X36750000Y-77470000D01*
X48260000Y-64770000D02*
X48260000Y-69850000D01*
X48260000Y-69850000D02*
X46990000Y-69850000D01*
X48260000Y-64770000D02*
X58420000Y-64770000D01*
X58340000Y-64690000D02*
X58340000Y-57150000D01*
X58420000Y-64770000D02*
X58340000Y-64690000D01*
X58340000Y-57150000D02*
X68580000Y-57150000D01*
X68580000Y-52070000D02*
X63500000Y-52070000D01*
X63500000Y-52070000D02*
X63500000Y-43180000D01*
X66040000Y-40640000D02*
X66040000Y-39370000D01*
X63500000Y-43180000D02*
X66040000Y-40640000D01*
X60682741Y-26670000D02*
X61952741Y-25400000D01*
X58420000Y-26670000D02*
X60682741Y-26670000D01*
X61952741Y-25400000D02*
X62230000Y-25400000D01*
X62230000Y-25400000D02*
X66040000Y-21590000D01*
X66040000Y-21590000D02*
X69850000Y-21590000D01*
X68580000Y-57150000D02*
X68580000Y-53340000D01*
X68580000Y-53340000D02*
X68580000Y-52070000D01*
X80010000Y-53340000D02*
X76200000Y-53340000D01*
X76200000Y-53340000D02*
X68580000Y-53340000D01*
X67310000Y-5000000D02*
X67310000Y-5080000D01*
X78740000Y-5000000D02*
X96440000Y-5000000D01*
X96440000Y-5000000D02*
X96520000Y-5080000D01*
X96520000Y-5080000D02*
X96520000Y-17780000D01*
X96520000Y-17780000D02*
X99060000Y-20320000D01*
X101600000Y-20320000D02*
X101600000Y-35560000D01*
X101600000Y-20320000D02*
X105410000Y-20320000D01*
X99060000Y-20320000D02*
X101600000Y-20320000D01*
X101600000Y-35560000D02*
X105410000Y-35560000D01*
X105410000Y-20320000D02*
X118110000Y-20320000D01*
X118110000Y-20320000D02*
X119380000Y-19050000D01*
X119380000Y-19050000D02*
X124460000Y-19050000D01*
X118110000Y-15240000D02*
X118110000Y-3810000D01*
X119380000Y-19050000D02*
X116840000Y-16510000D01*
X116840000Y-16510000D02*
X118110000Y-15240000D01*
X124460000Y-19110000D02*
X124460000Y-34290000D01*
X127000000Y-67310000D02*
X127000000Y-71120000D01*
X128270000Y-66040000D02*
X127000000Y-67310000D01*
X128270000Y-58420000D02*
X128270000Y-66040000D01*
X123190000Y-52070000D02*
X123190000Y-58420000D01*
X123190000Y-58420000D02*
X128270000Y-58420000D01*
X62230000Y-86360000D02*
X40640000Y-86360000D01*
X67310000Y-82550000D02*
X67310000Y-86360000D01*
X67310000Y-86360000D02*
X62230000Y-86360000D01*
X62230000Y-83857080D02*
X62230000Y-86360000D01*
X62125001Y-83752081D02*
X62230000Y-83857080D01*
X62125001Y-82550000D02*
X62125001Y-83752081D01*
X69850000Y-21590000D02*
X72390000Y-21590000D01*
X72390000Y-6350000D02*
X73660000Y-5080000D01*
X78740000Y-5000000D02*
X73660000Y-5080000D01*
X72390000Y-21590000D02*
X72390000Y-6350000D01*
X73660000Y-5080000D02*
X67310000Y-5080000D01*
X68580000Y-86360000D02*
X72390000Y-82550000D01*
X67310000Y-86360000D02*
X68580000Y-86360000D01*
X78740000Y-7540000D02*
X78740000Y-5000000D01*
X129341998Y-19050000D02*
X129440999Y-19149001D01*
X124460000Y-19050000D02*
X129341998Y-19050000D01*
X120451998Y-3810000D02*
X120550999Y-3909001D01*
X118110000Y-3810000D02*
X120451998Y-3810000D01*
X128071998Y-38100000D02*
X128170999Y-38199001D01*
X129341998Y-52070000D02*
X129440999Y-52169001D01*
X123190000Y-52070000D02*
X129341998Y-52070000D01*
X129341998Y-71120000D02*
X129440999Y-71219001D01*
X127000000Y-71120000D02*
X129341998Y-71120000D01*
X115570000Y-71120000D02*
X127000000Y-71120000D01*
X87630000Y-88900000D02*
X109220000Y-88900000D01*
X113030000Y-83820000D02*
X113030000Y-73660000D01*
X87630000Y-85090000D02*
X87630000Y-88900000D01*
X113030000Y-73660000D02*
X115570000Y-71120000D01*
X109220000Y-88900000D02*
X109220000Y-87630000D01*
X109220000Y-87630000D02*
X113030000Y-83820000D01*
X121920000Y-93980000D02*
X121920000Y-86360000D01*
X119380000Y-83820000D02*
X113030000Y-83820000D01*
X121920000Y-86360000D02*
X119380000Y-83820000D01*
X124460000Y-34290000D02*
X124460000Y-38100000D01*
X124460000Y-38100000D02*
X128071998Y-38100000D01*
X124460000Y-50800000D02*
X123190000Y-52070000D01*
X124460000Y-38100000D02*
X124460000Y-50800000D01*
D34*
X54610000Y-68580000D02*
X52070000Y-68580000D01*
X105410000Y-38100000D02*
X97790000Y-38100000D01*
X97790000Y-38100000D02*
X97790000Y-38100000D01*
D33*
X72390000Y-64770000D02*
X72390000Y-67310000D01*
X72390000Y-67310000D02*
X67310000Y-67310000D01*
X67310000Y-67310000D02*
X67310000Y-64770000D01*
X67310000Y-67310000D02*
X62230000Y-67310000D01*
X62230000Y-67310000D02*
X62230000Y-64770000D01*
X24130000Y-81280000D02*
X24130000Y-77470000D01*
X74930000Y-31750000D02*
X73660000Y-31750000D01*
X74930000Y-29210000D02*
X69850000Y-29210000D01*
X74930000Y-29210000D02*
X74930000Y-31750000D01*
X77470000Y-20320000D02*
X77470000Y-29210000D01*
X69850000Y-29210000D02*
X69850000Y-31750000D01*
X59690000Y-44450000D02*
X55880000Y-44450000D01*
X55880000Y-44450000D02*
X55880000Y-46990000D01*
X53340000Y-49530000D02*
X52070000Y-49530000D01*
X55880000Y-46990000D02*
X53340000Y-49530000D01*
X43180000Y-72390000D02*
X27940000Y-72390000D01*
X27940000Y-72390000D02*
X27940000Y-76200000D01*
X44450000Y-67310000D02*
X43180000Y-68580000D01*
X55880000Y-40640000D02*
X43180000Y-40640000D01*
X26670000Y-77470000D02*
X24130000Y-77470000D01*
X27940000Y-76200000D02*
X26670000Y-77470000D01*
X43180000Y-68580000D02*
X43180000Y-72390000D01*
X55880000Y-44450000D02*
X55880000Y-40640000D01*
X43180000Y-40640000D02*
X43180000Y-57150000D01*
X43180000Y-57150000D02*
X44450000Y-58420000D01*
X44450000Y-58420000D02*
X44450000Y-67310000D01*
X74930000Y-29210000D02*
X77470000Y-29210000D01*
X77470000Y-20320000D02*
X80010000Y-20320000D01*
X69850000Y-31750000D02*
X69850000Y-34290000D01*
X69850000Y-34290000D02*
X63500000Y-34290000D01*
X59690000Y-38100000D02*
X59690000Y-44450000D01*
X63500000Y-34290000D02*
X59690000Y-38100000D01*
X16510000Y-77470000D02*
X24130000Y-77470000D01*
X16510000Y-90170000D02*
X16510000Y-77470000D01*
X76200000Y-83820000D02*
X69850000Y-90170000D01*
X72390000Y-67310000D02*
X76200000Y-71120000D01*
X76200000Y-71120000D02*
X76200000Y-83820000D01*
X69850000Y-90170000D02*
X16510000Y-90170000D01*
X76200000Y-83820000D02*
X82550000Y-90170000D01*
X119380000Y-93980000D02*
X119380000Y-92777919D01*
X119380000Y-92777919D02*
X119380000Y-91440000D01*
X119380000Y-91440000D02*
X118110000Y-90170000D01*
X118110000Y-90170000D02*
X113030000Y-90170000D01*
X113030000Y-90170000D02*
X111760000Y-91440000D01*
X111760000Y-91440000D02*
X99060000Y-91440000D01*
X99060000Y-91440000D02*
X101600000Y-91440000D01*
X99060000Y-91440000D02*
X99060000Y-91440000D01*
X58420000Y-7830000D02*
X59690000Y-6560000D01*
X58420000Y-11430000D02*
X58420000Y-7830000D01*
X59690000Y-6560000D02*
X59690000Y-1270000D01*
X60960000Y0D02*
X67310000Y0D01*
X59690000Y-1270000D02*
X60960000Y0D01*
X143510000Y1270000D02*
X143510000Y-2540000D01*
X140970000Y3810000D02*
X143510000Y1270000D01*
X137160000Y-38100000D02*
X137160000Y-40900000D01*
X137160000Y-40900000D02*
X137420000Y-40900000D01*
X137420000Y-40900000D02*
X140970000Y-44450000D01*
X140970000Y-57150000D02*
X144780000Y-57150000D01*
X144780000Y-57150000D02*
X146050000Y-58420000D01*
X146050000Y-58420000D02*
X146050000Y-64770000D01*
X138430000Y-68580000D02*
X137160000Y-69850000D01*
X62020000Y-11430000D02*
X64560000Y-13970000D01*
X58420000Y-11430000D02*
X62020000Y-11430000D01*
X69850000Y-16097500D02*
X69850000Y-19050000D01*
X67722500Y-13970000D02*
X69850000Y-16097500D01*
X64560000Y-13970000D02*
X67722500Y-13970000D01*
X67310000Y0D02*
X107950000Y0D01*
X107950000Y0D02*
X107950000Y3810000D01*
X107950000Y3810000D02*
X140970000Y3810000D01*
X140970000Y-45720000D02*
X143510000Y-48260000D01*
X140970000Y-44450000D02*
X140970000Y-45720000D01*
X143510000Y-48260000D02*
X146050000Y-48260000D01*
X146050000Y-48260000D02*
X146050000Y-58420000D01*
X146050000Y-64770000D02*
X139700000Y-64770000D01*
X139700000Y-67310000D02*
X138430000Y-68580000D01*
X139700000Y-64770000D02*
X139700000Y-67310000D01*
X143510000Y-84563949D02*
X143510000Y-86360000D01*
X143510000Y-73400000D02*
X143510000Y-84563949D01*
X139960000Y-69850000D02*
X143510000Y-73400000D01*
X137160000Y-69850000D02*
X139960000Y-69850000D01*
X143510000Y-2540000D02*
X157480000Y-2540000D01*
X157480000Y-20320000D02*
X156210000Y-21590000D01*
X157480000Y-2540000D02*
X157480000Y-20320000D01*
X151130000Y-21590000D02*
X156210000Y-21590000D01*
X156210000Y-21590000D02*
X163830000Y-21590000D01*
X151130000Y-21590000D02*
X151130000Y-30480000D01*
X143510000Y-38100000D02*
X137160000Y-38100000D01*
X151130000Y-30480000D02*
X143510000Y-38100000D01*
X69850000Y-24130000D02*
X74930000Y-24130000D01*
X74930000Y-24130000D02*
X74930000Y-17780000D01*
X74930000Y-17780000D02*
X83820000Y-17780000D01*
X83820000Y-17780000D02*
X83820000Y-59690000D01*
X83820000Y-59690000D02*
X88900000Y-64770000D01*
X90170000Y-64770000D02*
X95250000Y-69850000D01*
X88900000Y-64770000D02*
X90170000Y-64770000D01*
X92630000Y-72470000D02*
X95250000Y-69850000D01*
X92630000Y-85090000D02*
X92630000Y-72470000D01*
X80010000Y-66040000D02*
X80010000Y-68580000D01*
X80010000Y-68580000D02*
X81280000Y-69850000D01*
X81280000Y-69850000D02*
X87630000Y-69850000D01*
M02*
