M48
; DRILL file {KiCad (5.1.5)-3} date 14/12/2020 09:37:09
; FORMAT={-:-/ absolute / inch / decimal}
; #@! TF.CreationDate,2020-12-14T09:37:09+01:00
; #@! TF.GenerationSoftware,Kicad,Pcbnew,(5.1.5)-3
; #@! TF.FileFunction,Plated,1,2,PTH
FMAT,2
INCH
T1C0.0157
T2C0.0295
T3C0.0315
T4C0.0354
T5C0.0394
T6C0.0433
T7C0.0512
T8C0.0591
T9C0.0630
T10C0.0866
T11C0.1063
%
G90
G05
T1
X3.5Y-4.95
X3.6Y-4.95
X4.7Y-5.8
X5.3Y-3.75
X5.35Y-5.85
X6.1Y-4.4
X6.1Y-4.4
T2
X6.55Y-3.0
X6.6Y-2.95
X6.65Y-3.0
X6.5Y-3.75
X6.55Y-3.7
X6.6Y-3.75
X6.2Y-2.4
X6.25Y-2.35
X6.3Y-2.4
X6.55Y-4.3
X6.6Y-4.25
X6.65Y-4.3
X6.55Y-5.05
X6.6Y-5.0
X6.65Y-5.05
T3
X4.9Y-5.0
X5.2Y-5.0
X4.3Y-4.8
X4.3Y-5.1
X3.5Y-4.2
X3.8Y-4.2
X4.35Y-3.5
X4.35Y-3.8
X6.35Y-4.7
X6.65Y-4.7
X3.5Y-4.0
X3.8Y-4.0
X3.0Y-4.2
X3.3Y-4.2
X2.0Y-5.15
X2.0Y-5.45
X4.15Y-4.0
X4.15Y-4.3
X5.95Y-3.35
X6.25Y-3.35
X5.95Y-3.85
X6.25Y-3.85
X2.2Y-5.15
X2.2Y-5.45
X3.55Y-4.5
X3.7469Y-4.5
X4.05Y-3.5
X4.05Y-3.8
X3.0Y-4.4
X3.3Y-4.4
X6.5Y-2.4
X6.8Y-2.4
X2.4Y-5.15
X2.4Y-5.45
X2.7Y-5.3
X2.8969Y-5.3
X4.55Y-2.35
X4.55Y-2.5469
X5.95Y-3.5
X6.25Y-3.5
X3.0Y-4.0
X3.3Y-4.0
X6.85Y-3.75
X6.85Y-4.05
X4.1Y-2.25
X4.1Y-2.4469
X3.9Y-4.8
X3.9Y-5.1
X6.85Y-5.0
X6.85Y-5.3
X3.05Y-4.6
X3.05Y-4.7
X3.05Y-4.8
X3.35Y-4.6
X3.35Y-4.7
X3.35Y-4.8
X1.8Y-5.15
X1.8Y-5.45
X4.2Y-3.5
X4.2Y-3.8
X5.95Y-3.2
X6.25Y-3.2
X6.9Y-2.95
X7.2Y-2.95
X4.1Y-4.8
X4.1Y-5.1
X3.0Y-5.0
X3.3Y-5.0
X5.95Y-3.65
X6.25Y-3.65
T4
X2.25Y-2.65
X2.25Y-2.8469
X2.25Y-3.25
X2.25Y-3.45
X3.15Y-2.65
X3.15Y-2.85
X3.15Y-3.05
X3.15Y-3.25
X3.15Y-3.45
X7.0Y-4.5
X7.0Y-4.6
X2.15Y-4.1
X2.15Y-4.2969
X2.15Y-4.6906
X2.7406Y-4.1
X2.7406Y-4.2969
X2.7406Y-4.4937
X2.7406Y-4.6906
X7.1Y-2.35
X7.1Y-2.45
T5
X4.1Y-5.3
X4.1Y-5.4
X4.1Y-5.5
X4.6Y-3.05
X4.6Y-3.15
X4.6Y-3.25
X4.6Y-3.35
X4.6Y-3.45
X4.6Y-3.55
X4.6Y-3.65
X4.6Y-3.75
X4.6Y-3.85
X4.6Y-3.95
X4.6Y-4.05
X4.6Y-4.15
X4.6Y-4.25
X4.6Y-4.35
X4.6Y-4.45
X4.6Y-4.55
X4.6Y-4.65
X4.6Y-4.75
X4.6Y-4.85
X5.6Y-3.05
X5.6Y-3.15
X5.6Y-3.25
X5.6Y-3.35
X5.6Y-3.45
X5.6Y-3.55
X5.6Y-3.65
X5.6Y-3.75
X5.6Y-3.85
X5.6Y-3.95
X5.6Y-4.05
X5.6Y-4.15
X5.6Y-4.25
X5.6Y-4.35
X5.6Y-4.45
X5.6Y-4.55
X5.6Y-4.65
X5.6Y-4.75
X5.6Y-4.85
X3.8959Y-5.3
X3.8959Y-5.4
X3.8959Y-5.5
X5.95Y-5.95
X6.05Y-5.95
X6.15Y-5.95
X6.25Y-5.95
X4.3Y-5.3
X4.3Y-5.4
X4.3Y-5.5
T6
X4.2Y-3.0
X4.2Y-3.1
X4.2Y-3.2
T7
X7.1Y-3.45
X7.1Y-4.15
X7.6Y-3.45
X7.1Y-4.95
X7.1Y-5.65
X7.6Y-4.95
T8
X1.55Y-3.05
X1.55Y-3.9398
T9
X3.75Y-2.7
X3.75Y-2.9
X3.75Y-3.1
X3.75Y-3.3
T10
X7.6Y-3.9
X7.6Y-5.4
T11
X4.35Y-2.1
X4.35Y-5.95
X5.05Y-2.1
X5.05Y-5.95
X6.1Y-4.4
X7.85Y-3.9531
X7.85Y-4.15
X7.9Y-2.9031
X7.9Y-3.1
X4.9Y-5.6
X5.0969Y-5.6
X1.45Y-2.6
X1.45Y-2.7969
X1.5Y-5.1531
X1.5Y-5.35
X7.9Y-5.1031
X7.9Y-5.3
T0
M30
