%FSLAX45Y45*%
G04 Gerber Fmt 4.5, Leading zero omitted, Abs format (unit mm)*
G04 Created by KiCad (PCBNEW (5.1.5)-3) date 2020-12-14 09:37:36*
%MOMM*%
%LPD*%
G04 APERTURE LIST*
%TA.AperFunction,Profile*%
%ADD10C,0.050000*%
%TD*%
%ADD11C,0.200000*%
%ADD12C,0.300000*%
G04 APERTURE END LIST*
D10*
X2921000Y-15494000D02*
X2921000Y-5080000D01*
X20828000Y-15494000D02*
X2921000Y-15494000D01*
X20828000Y-5080000D02*
X20828000Y-15494000D01*
X2921000Y-5080000D02*
X20828000Y-5080000D01*
D11*
D12*
X3204928Y-15962214D02*
X3204928Y-15662214D01*
X3276357Y-15662214D01*
X3319214Y-15676500D01*
X3347786Y-15705071D01*
X3362071Y-15733643D01*
X3376357Y-15790786D01*
X3376357Y-15833643D01*
X3362071Y-15890786D01*
X3347786Y-15919357D01*
X3319214Y-15947929D01*
X3276357Y-15962214D01*
X3204928Y-15962214D01*
X3504928Y-15962214D02*
X3504928Y-15762214D01*
X3504928Y-15819357D02*
X3519214Y-15790786D01*
X3533500Y-15776500D01*
X3562071Y-15762214D01*
X3590643Y-15762214D01*
X3690643Y-15962214D02*
X3690643Y-15762214D01*
X3690643Y-15662214D02*
X3676357Y-15676500D01*
X3690643Y-15690786D01*
X3704928Y-15676500D01*
X3690643Y-15662214D01*
X3690643Y-15690786D01*
X3876357Y-15962214D02*
X3847786Y-15947929D01*
X3833500Y-15919357D01*
X3833500Y-15662214D01*
X4033500Y-15962214D02*
X4004928Y-15947929D01*
X3990643Y-15919357D01*
X3990643Y-15662214D01*
X4376357Y-15962214D02*
X4376357Y-15662214D01*
X4476357Y-15876500D01*
X4576357Y-15662214D01*
X4576357Y-15962214D01*
X4847786Y-15962214D02*
X4847786Y-15805071D01*
X4833500Y-15776500D01*
X4804928Y-15762214D01*
X4747786Y-15762214D01*
X4719214Y-15776500D01*
X4847786Y-15947929D02*
X4819214Y-15962214D01*
X4747786Y-15962214D01*
X4719214Y-15947929D01*
X4704928Y-15919357D01*
X4704928Y-15890786D01*
X4719214Y-15862214D01*
X4747786Y-15847929D01*
X4819214Y-15847929D01*
X4847786Y-15833643D01*
X4990643Y-15762214D02*
X4990643Y-16062214D01*
X4990643Y-15776500D02*
X5019214Y-15762214D01*
X5076357Y-15762214D01*
X5104928Y-15776500D01*
X5119214Y-15790786D01*
X5133500Y-15819357D01*
X5133500Y-15905071D01*
X5119214Y-15933643D01*
X5104928Y-15947929D01*
X5076357Y-15962214D01*
X5019214Y-15962214D01*
X4990643Y-15947929D01*
X5262071Y-15933643D02*
X5276357Y-15947929D01*
X5262071Y-15962214D01*
X5247786Y-15947929D01*
X5262071Y-15933643D01*
X5262071Y-15962214D01*
X5262071Y-15776500D02*
X5276357Y-15790786D01*
X5262071Y-15805071D01*
X5247786Y-15790786D01*
X5262071Y-15776500D01*
X5262071Y-15805071D01*
M02*
