G04 #@! TF.GenerationSoftware,KiCad,Pcbnew,(5.1.5)-3*
G04 #@! TF.CreationDate,2020-12-14T09:35:08+01:00*
G04 #@! TF.ProjectId,implantation finale,696d706c-616e-4746-9174-696f6e206669,rev?*
G04 #@! TF.SameCoordinates,Original*
G04 #@! TF.FileFunction,Legend,Top*
G04 #@! TF.FilePolarity,Positive*
%FSLAX46Y46*%
G04 Gerber Fmt 4.6, Leading zero omitted, Abs format (unit mm)*
G04 Created by KiCad (PCBNEW (5.1.5)-3) date 2020-12-14 09:35:08*
%MOMM*%
%LPD*%
G04 APERTURE LIST*
%ADD10C,0.150000*%
%ADD11C,0.120000*%
G04 APERTURE END LIST*
D10*
X215447619Y-98822380D02*
X215447619Y-98250952D01*
X215447619Y-98536666D02*
X216447619Y-98536666D01*
X216304761Y-98441428D01*
X216209523Y-98346190D01*
X216161904Y-98250952D01*
X216447619Y-99441428D02*
X216447619Y-99536666D01*
X216400000Y-99631904D01*
X216352380Y-99679523D01*
X216257142Y-99727142D01*
X216066666Y-99774761D01*
X215828571Y-99774761D01*
X215638095Y-99727142D01*
X215542857Y-99679523D01*
X215495238Y-99631904D01*
X215447619Y-99536666D01*
X215447619Y-99441428D01*
X215495238Y-99346190D01*
X215542857Y-99298571D01*
X215638095Y-99250952D01*
X215828571Y-99203333D01*
X216066666Y-99203333D01*
X216257142Y-99250952D01*
X216352380Y-99298571D01*
X216400000Y-99346190D01*
X216447619Y-99441428D01*
X216114285Y-100631904D02*
X215447619Y-100631904D01*
X216495238Y-100393809D02*
X215780952Y-100155714D01*
X215780952Y-100774761D01*
X215495238Y-101203333D02*
X215447619Y-101203333D01*
X215352380Y-101155714D01*
X215304761Y-101108095D01*
X215447619Y-102155714D02*
X215447619Y-101584285D01*
X215447619Y-101870000D02*
X216447619Y-101870000D01*
X216304761Y-101774761D01*
X216209523Y-101679523D01*
X216161904Y-101584285D01*
X216114285Y-103012857D02*
X215447619Y-103012857D01*
X216495238Y-102774761D02*
X215780952Y-102536666D01*
X215780952Y-103155714D01*
X216447619Y-103727142D02*
X216447619Y-103822380D01*
X216400000Y-103917619D01*
X216352380Y-103965238D01*
X216257142Y-104012857D01*
X216066666Y-104060476D01*
X215828571Y-104060476D01*
X215638095Y-104012857D01*
X215542857Y-103965238D01*
X215495238Y-103917619D01*
X215447619Y-103822380D01*
X215447619Y-103727142D01*
X215495238Y-103631904D01*
X215542857Y-103584285D01*
X215638095Y-103536666D01*
X215828571Y-103489047D01*
X216066666Y-103489047D01*
X216257142Y-103536666D01*
X216352380Y-103584285D01*
X216400000Y-103631904D01*
X216447619Y-103727142D01*
X215447619Y-105250952D02*
X216114285Y-105250952D01*
X216019047Y-105250952D02*
X216066666Y-105298571D01*
X216114285Y-105393809D01*
X216114285Y-105536666D01*
X216066666Y-105631904D01*
X215971428Y-105679523D01*
X215447619Y-105679523D01*
X215971428Y-105679523D02*
X216066666Y-105727142D01*
X216114285Y-105822380D01*
X216114285Y-105965238D01*
X216066666Y-106060476D01*
X215971428Y-106108095D01*
X215447619Y-106108095D01*
X215447619Y-106584285D02*
X216114285Y-106584285D01*
X216019047Y-106584285D02*
X216066666Y-106631904D01*
X216114285Y-106727142D01*
X216114285Y-106870000D01*
X216066666Y-106965238D01*
X215971428Y-107012857D01*
X215447619Y-107012857D01*
X215971428Y-107012857D02*
X216066666Y-107060476D01*
X216114285Y-107155714D01*
X216114285Y-107298571D01*
X216066666Y-107393809D01*
X215971428Y-107441428D01*
X215447619Y-107441428D01*
D11*
X214630000Y-50800000D02*
X214630000Y-154940000D01*
X208280000Y-50800000D02*
X215216421Y-50800000D01*
X208280000Y-154940000D02*
X215216421Y-154940000D01*
X214630000Y-154940000D02*
X214043579Y-153813496D01*
X214630000Y-154940000D02*
X215216421Y-153813496D01*
X214630000Y-50800000D02*
X214043579Y-51926504D01*
X214630000Y-50800000D02*
X215216421Y-51926504D01*
X160080000Y-149800000D02*
X160080000Y-151130000D01*
X158750000Y-149800000D02*
X160080000Y-149800000D01*
X157480000Y-149800000D02*
X157480000Y-152460000D01*
X157480000Y-152460000D02*
X149800000Y-152460000D01*
X157480000Y-149800000D02*
X149800000Y-149800000D01*
X149800000Y-149800000D02*
X149800000Y-152460000D01*
X120420000Y-68170000D02*
X120040000Y-68170000D01*
X120420000Y-67750000D02*
X120420000Y-68170000D01*
X138660000Y-67750000D02*
X138660000Y-68170000D01*
X120420000Y-67750000D02*
X138660000Y-67750000D01*
X138660000Y-87190000D02*
X137660000Y-87190000D01*
X138660000Y-86570000D02*
X138660000Y-87190000D01*
X120420000Y-87190000D02*
X121420000Y-87190000D01*
X120420000Y-86570000D02*
X120420000Y-87190000D01*
X194540000Y-147010000D02*
X177800000Y-147010000D01*
X194540000Y-125410000D02*
X194540000Y-147010000D01*
X177800000Y-121920000D02*
X183680000Y-121920000D01*
X194540000Y-121920000D02*
X194540000Y-127670000D01*
X177800000Y-147010000D02*
X177800000Y-121680000D01*
X186140000Y-121920000D02*
X194540000Y-121920000D01*
X194740000Y-145260000D02*
X194740000Y-147210000D01*
X194740000Y-147210000D02*
X192840000Y-147210000D01*
X194540000Y-108910000D02*
X177800000Y-108910000D01*
X194540000Y-87310000D02*
X194540000Y-108910000D01*
X177800000Y-83820000D02*
X183680000Y-83820000D01*
X194540000Y-83820000D02*
X194540000Y-89570000D01*
X177800000Y-108910000D02*
X177800000Y-83580000D01*
X186140000Y-83820000D02*
X194540000Y-83820000D01*
X194740000Y-107160000D02*
X194740000Y-109110000D01*
X194740000Y-109110000D02*
X192840000Y-109110000D01*
X169478478Y-78038478D02*
G75*
G03X167640000Y-73600000I-1838478J1838478D01*
G01*
X165801522Y-78038478D02*
G75*
G02X167640000Y-73600000I1838478J1838478D01*
G01*
X165840000Y-78050000D02*
X169440000Y-78050000D01*
X169478478Y-130108478D02*
G75*
G03X167640000Y-125670000I-1838478J1838478D01*
G01*
X165801522Y-130108478D02*
G75*
G02X167640000Y-125670000I1838478J1838478D01*
G01*
X165840000Y-130120000D02*
X169440000Y-130120000D01*
X168208478Y-97088478D02*
G75*
G03X166370000Y-92650000I-1838478J1838478D01*
G01*
X164531522Y-97088478D02*
G75*
G02X166370000Y-92650000I1838478J1838478D01*
G01*
X164570000Y-97100000D02*
X168170000Y-97100000D01*
X169478478Y-111058478D02*
G75*
G03X167640000Y-106620000I-1838478J1838478D01*
G01*
X165801522Y-111058478D02*
G75*
G02X167640000Y-106620000I1838478J1838478D01*
G01*
X165840000Y-111070000D02*
X169440000Y-111070000D01*
X160588478Y-62798478D02*
G75*
G03X158750000Y-58360000I-1838478J1838478D01*
G01*
X156911522Y-62798478D02*
G75*
G02X158750000Y-58360000I1838478J1838478D01*
G01*
X156950000Y-62810000D02*
X160550000Y-62810000D01*
X121750000Y-140830000D02*
X121750000Y-143650000D01*
X121750000Y-143650000D02*
X123450000Y-144950000D01*
X121750000Y-140830000D02*
X123450000Y-139530000D01*
X123450000Y-144950000D02*
X132170000Y-144950000D01*
X132170000Y-139530000D02*
X132170000Y-144950000D01*
X123450000Y-139530000D02*
X132170000Y-139530000D01*
X50530000Y-97350000D02*
X50530000Y-57190000D01*
X50530000Y-97350000D02*
X88770000Y-97350000D01*
X88770000Y-57190000D02*
X50530000Y-57190000D01*
X88770000Y-57190000D02*
X88770000Y-97350000D01*
X54150000Y-62810000D02*
X85150000Y-62810000D01*
X54150000Y-91730000D02*
X54150000Y-62810000D01*
X85150000Y-91730000D02*
X54150000Y-91730000D01*
X85150000Y-62810000D02*
X85150000Y-91730000D01*
X126750000Y-125880000D02*
X126750000Y-128120000D01*
X126990000Y-125880000D02*
X126990000Y-128120000D01*
X126870000Y-125880000D02*
X126870000Y-128120000D01*
X131040000Y-127000000D02*
X130390000Y-127000000D01*
X125500000Y-127000000D02*
X126150000Y-127000000D01*
X130390000Y-125880000D02*
X126150000Y-125880000D01*
X130390000Y-128120000D02*
X130390000Y-125880000D01*
X126150000Y-128120000D02*
X130390000Y-128120000D01*
X126150000Y-125880000D02*
X126150000Y-128120000D01*
X175800000Y-73560000D02*
X175800000Y-73890000D01*
X182340000Y-73560000D02*
X175800000Y-73560000D01*
X182340000Y-73890000D02*
X182340000Y-73560000D01*
X175800000Y-76300000D02*
X175800000Y-75970000D01*
X182340000Y-76300000D02*
X175800000Y-76300000D01*
X182340000Y-75970000D02*
X182340000Y-76300000D01*
X102810000Y-133290000D02*
X104140000Y-133290000D01*
X102810000Y-134620000D02*
X102810000Y-133290000D01*
X102810000Y-135890000D02*
X105470000Y-135890000D01*
X105470000Y-135890000D02*
X105470000Y-141030000D01*
X102810000Y-135890000D02*
X102810000Y-141030000D01*
X102810000Y-141030000D02*
X105470000Y-141030000D01*
X107890000Y-133290000D02*
X109220000Y-133290000D01*
X107890000Y-134620000D02*
X107890000Y-133290000D01*
X107890000Y-135890000D02*
X110550000Y-135890000D01*
X110550000Y-135890000D02*
X110550000Y-141030000D01*
X107890000Y-135890000D02*
X107890000Y-141030000D01*
X107890000Y-141030000D02*
X110550000Y-141030000D01*
X97625001Y-133290000D02*
X98955001Y-133290000D01*
X97625001Y-134620000D02*
X97625001Y-133290000D01*
X97625001Y-135890000D02*
X100285001Y-135890000D01*
X100285001Y-135890000D02*
X100285001Y-141030000D01*
X97625001Y-135890000D02*
X97625001Y-141030000D01*
X97625001Y-141030000D02*
X100285001Y-141030000D01*
X102770000Y-129000000D02*
X103100000Y-129000000D01*
X102770000Y-122460000D02*
X102770000Y-129000000D01*
X103100000Y-122460000D02*
X102770000Y-122460000D01*
X105510000Y-129000000D02*
X105180000Y-129000000D01*
X105510000Y-122460000D02*
X105510000Y-129000000D01*
X105180000Y-122460000D02*
X105510000Y-122460000D01*
X107850000Y-129000000D02*
X108180000Y-129000000D01*
X107850000Y-122460000D02*
X107850000Y-129000000D01*
X108180000Y-122460000D02*
X107850000Y-122460000D01*
X110590000Y-129000000D02*
X110260000Y-129000000D01*
X110590000Y-122460000D02*
X110590000Y-129000000D01*
X110260000Y-122460000D02*
X110590000Y-122460000D01*
X97690000Y-129000000D02*
X98020000Y-129000000D01*
X97690000Y-122460000D02*
X97690000Y-129000000D01*
X98020000Y-122460000D02*
X97690000Y-122460000D01*
X100430000Y-129000000D02*
X100100000Y-129000000D01*
X100430000Y-122460000D02*
X100430000Y-129000000D01*
X100100000Y-122460000D02*
X100430000Y-122460000D01*
X175658000Y-119630000D02*
X179942000Y-119630000D01*
X181800000Y-115570000D02*
G75*
G03X181800000Y-115570000I-4000000J0D01*
G01*
X177799514Y-110980000D02*
G75*
G02X179941145Y-119630000I486J-4590000D01*
G01*
X177800486Y-110980000D02*
G75*
G03X175658855Y-119630000I-486J-4590000D01*
G01*
X178198000Y-65020000D02*
X182482000Y-65020000D01*
X184340000Y-60960000D02*
G75*
G03X184340000Y-60960000I-4000000J0D01*
G01*
X180339514Y-56370000D02*
G75*
G02X182481145Y-65020000I486J-4590000D01*
G01*
X180340486Y-56370000D02*
G75*
G03X178198855Y-65020000I-486J-4590000D01*
G01*
X151670000Y-96420000D02*
X151670000Y-96750000D01*
X158210000Y-96420000D02*
X151670000Y-96420000D01*
X158210000Y-96750000D02*
X158210000Y-96420000D01*
X151670000Y-99160000D02*
X151670000Y-98830000D01*
X158210000Y-99160000D02*
X151670000Y-99160000D01*
X158210000Y-98830000D02*
X158210000Y-99160000D01*
X199250000Y-137330000D02*
X202070000Y-137330000D01*
X202070000Y-137330000D02*
X203370000Y-135630000D01*
X199250000Y-137330000D02*
X197950000Y-135630000D01*
X203370000Y-135630000D02*
X203370000Y-126910000D01*
X197950000Y-126910000D02*
X203370000Y-126910000D01*
X197950000Y-135630000D02*
X197950000Y-126910000D01*
X175110000Y-129290000D02*
X172870000Y-129290000D01*
X175110000Y-129530000D02*
X172870000Y-129530000D01*
X175110000Y-129410000D02*
X172870000Y-129410000D01*
X173990000Y-133580000D02*
X173990000Y-132930000D01*
X173990000Y-128040000D02*
X173990000Y-128690000D01*
X175110000Y-132930000D02*
X175110000Y-128690000D01*
X172870000Y-132930000D02*
X175110000Y-132930000D01*
X172870000Y-128690000D02*
X172870000Y-132930000D01*
X175110000Y-128690000D02*
X172870000Y-128690000D01*
X151670000Y-87530000D02*
X151670000Y-87860000D01*
X158210000Y-87530000D02*
X151670000Y-87530000D01*
X158210000Y-87860000D02*
X158210000Y-87530000D01*
X151670000Y-90270000D02*
X151670000Y-89940000D01*
X158210000Y-90270000D02*
X151670000Y-90270000D01*
X158210000Y-89940000D02*
X158210000Y-90270000D01*
X158210000Y-86460000D02*
X158210000Y-86130000D01*
X151670000Y-86460000D02*
X158210000Y-86460000D01*
X151670000Y-86130000D02*
X151670000Y-86460000D01*
X158210000Y-83720000D02*
X158210000Y-84050000D01*
X151670000Y-83720000D02*
X158210000Y-83720000D01*
X151670000Y-84050000D02*
X151670000Y-83720000D01*
X161830000Y-118010000D02*
X161830000Y-118340000D01*
X168370000Y-118010000D02*
X161830000Y-118010000D01*
X168370000Y-118340000D02*
X168370000Y-118010000D01*
X161830000Y-120750000D02*
X161830000Y-120420000D01*
X168370000Y-120750000D02*
X161830000Y-120750000D01*
X168370000Y-120420000D02*
X168370000Y-120750000D01*
X158210000Y-94080000D02*
X158210000Y-93750000D01*
X151670000Y-94080000D02*
X158210000Y-94080000D01*
X151670000Y-93750000D02*
X151670000Y-94080000D01*
X158210000Y-91340000D02*
X158210000Y-91670000D01*
X151670000Y-91340000D02*
X158210000Y-91340000D01*
X151670000Y-91670000D02*
X151670000Y-91340000D01*
X165640000Y-59590000D02*
X165640000Y-59920000D01*
X172180000Y-59590000D02*
X165640000Y-59590000D01*
X172180000Y-59920000D02*
X172180000Y-59590000D01*
X165640000Y-62330000D02*
X165640000Y-62000000D01*
X172180000Y-62330000D02*
X165640000Y-62330000D01*
X172180000Y-62000000D02*
X172180000Y-62330000D01*
X158210000Y-82650000D02*
X158210000Y-82320000D01*
X151670000Y-82650000D02*
X158210000Y-82650000D01*
X151670000Y-82320000D02*
X151670000Y-82650000D01*
X158210000Y-79910000D02*
X158210000Y-80240000D01*
X151670000Y-79910000D02*
X158210000Y-79910000D01*
X151670000Y-80240000D02*
X151670000Y-79910000D01*
X197980000Y-108120000D02*
X200800000Y-108120000D01*
X200800000Y-108120000D02*
X202100000Y-106420000D01*
X197980000Y-108120000D02*
X196680000Y-106420000D01*
X202100000Y-106420000D02*
X202100000Y-97700000D01*
X196680000Y-97700000D02*
X202100000Y-97700000D01*
X196680000Y-106420000D02*
X196680000Y-97700000D01*
X202070000Y-71030000D02*
X199250000Y-71030000D01*
X199250000Y-71030000D02*
X197950000Y-72730000D01*
X202070000Y-71030000D02*
X203370000Y-72730000D01*
X197950000Y-72730000D02*
X197950000Y-81450000D01*
X203370000Y-81450000D02*
X197950000Y-81450000D01*
X203370000Y-72730000D02*
X203370000Y-81450000D01*
X175110000Y-97540000D02*
X172870000Y-97540000D01*
X175110000Y-97780000D02*
X172870000Y-97780000D01*
X175110000Y-97660000D02*
X172870000Y-97660000D01*
X173990000Y-101830000D02*
X173990000Y-101180000D01*
X173990000Y-96290000D02*
X173990000Y-96940000D01*
X175110000Y-101180000D02*
X175110000Y-96940000D01*
X172870000Y-101180000D02*
X175110000Y-101180000D01*
X172870000Y-96940000D02*
X172870000Y-101180000D01*
X175110000Y-96940000D02*
X172870000Y-96940000D01*
X106855000Y-55640302D02*
X106055000Y-55640302D01*
X106455000Y-55240302D02*
X106455000Y-56040302D01*
X104673000Y-63731000D02*
X103607000Y-63731000D01*
X104908000Y-63691000D02*
X103372000Y-63691000D01*
X105088000Y-63651000D02*
X103192000Y-63651000D01*
X105238000Y-63611000D02*
X103042000Y-63611000D01*
X105369000Y-63571000D02*
X102911000Y-63571000D01*
X105486000Y-63531000D02*
X102794000Y-63531000D01*
X105593000Y-63491000D02*
X102687000Y-63491000D01*
X105692000Y-63451000D02*
X102588000Y-63451000D01*
X105785000Y-63411000D02*
X102495000Y-63411000D01*
X105871000Y-63371000D02*
X102409000Y-63371000D01*
X105953000Y-63331000D02*
X102327000Y-63331000D01*
X106030000Y-63291000D02*
X102250000Y-63291000D01*
X106104000Y-63251000D02*
X102176000Y-63251000D01*
X106174000Y-63211000D02*
X102106000Y-63211000D01*
X103100000Y-63171000D02*
X102038000Y-63171000D01*
X106242000Y-63171000D02*
X105180000Y-63171000D01*
X103100000Y-63131000D02*
X101974000Y-63131000D01*
X106306000Y-63131000D02*
X105180000Y-63131000D01*
X103100000Y-63091000D02*
X101912000Y-63091000D01*
X106368000Y-63091000D02*
X105180000Y-63091000D01*
X103100000Y-63051000D02*
X101853000Y-63051000D01*
X106427000Y-63051000D02*
X105180000Y-63051000D01*
X103100000Y-63011000D02*
X101795000Y-63011000D01*
X106485000Y-63011000D02*
X105180000Y-63011000D01*
X103100000Y-62971000D02*
X101740000Y-62971000D01*
X106540000Y-62971000D02*
X105180000Y-62971000D01*
X103100000Y-62931000D02*
X101686000Y-62931000D01*
X106594000Y-62931000D02*
X105180000Y-62931000D01*
X103100000Y-62891000D02*
X101635000Y-62891000D01*
X106645000Y-62891000D02*
X105180000Y-62891000D01*
X103100000Y-62851000D02*
X101584000Y-62851000D01*
X106696000Y-62851000D02*
X105180000Y-62851000D01*
X103100000Y-62811000D02*
X101536000Y-62811000D01*
X106744000Y-62811000D02*
X105180000Y-62811000D01*
X103100000Y-62771000D02*
X101489000Y-62771000D01*
X106791000Y-62771000D02*
X105180000Y-62771000D01*
X103100000Y-62731000D02*
X101443000Y-62731000D01*
X106837000Y-62731000D02*
X105180000Y-62731000D01*
X103100000Y-62691000D02*
X101399000Y-62691000D01*
X106881000Y-62691000D02*
X105180000Y-62691000D01*
X103100000Y-62651000D02*
X101356000Y-62651000D01*
X106924000Y-62651000D02*
X105180000Y-62651000D01*
X103100000Y-62611000D02*
X101314000Y-62611000D01*
X106966000Y-62611000D02*
X105180000Y-62611000D01*
X103100000Y-62571000D02*
X101273000Y-62571000D01*
X107007000Y-62571000D02*
X105180000Y-62571000D01*
X103100000Y-62531000D02*
X101233000Y-62531000D01*
X107047000Y-62531000D02*
X105180000Y-62531000D01*
X103100000Y-62491000D02*
X101195000Y-62491000D01*
X107085000Y-62491000D02*
X105180000Y-62491000D01*
X103100000Y-62451000D02*
X101157000Y-62451000D01*
X107123000Y-62451000D02*
X105180000Y-62451000D01*
X103100000Y-62411000D02*
X101121000Y-62411000D01*
X107159000Y-62411000D02*
X105180000Y-62411000D01*
X103100000Y-62371000D02*
X101085000Y-62371000D01*
X107195000Y-62371000D02*
X105180000Y-62371000D01*
X103100000Y-62331000D02*
X101050000Y-62331000D01*
X107230000Y-62331000D02*
X105180000Y-62331000D01*
X103100000Y-62291000D02*
X101016000Y-62291000D01*
X107264000Y-62291000D02*
X105180000Y-62291000D01*
X103100000Y-62251000D02*
X100984000Y-62251000D01*
X107296000Y-62251000D02*
X105180000Y-62251000D01*
X103100000Y-62211000D02*
X100951000Y-62211000D01*
X107329000Y-62211000D02*
X105180000Y-62211000D01*
X103100000Y-62171000D02*
X100920000Y-62171000D01*
X107360000Y-62171000D02*
X105180000Y-62171000D01*
X103100000Y-62131000D02*
X100890000Y-62131000D01*
X107390000Y-62131000D02*
X105180000Y-62131000D01*
X103100000Y-62091000D02*
X100860000Y-62091000D01*
X107420000Y-62091000D02*
X105180000Y-62091000D01*
X103100000Y-62051000D02*
X100831000Y-62051000D01*
X107449000Y-62051000D02*
X105180000Y-62051000D01*
X103100000Y-62011000D02*
X100802000Y-62011000D01*
X107478000Y-62011000D02*
X105180000Y-62011000D01*
X103100000Y-61971000D02*
X100775000Y-61971000D01*
X107505000Y-61971000D02*
X105180000Y-61971000D01*
X103100000Y-61931000D02*
X100748000Y-61931000D01*
X107532000Y-61931000D02*
X105180000Y-61931000D01*
X103100000Y-61891000D02*
X100722000Y-61891000D01*
X107558000Y-61891000D02*
X105180000Y-61891000D01*
X103100000Y-61851000D02*
X100696000Y-61851000D01*
X107584000Y-61851000D02*
X105180000Y-61851000D01*
X103100000Y-61811000D02*
X100671000Y-61811000D01*
X107609000Y-61811000D02*
X105180000Y-61811000D01*
X103100000Y-61771000D02*
X100647000Y-61771000D01*
X107633000Y-61771000D02*
X105180000Y-61771000D01*
X103100000Y-61731000D02*
X100623000Y-61731000D01*
X107657000Y-61731000D02*
X105180000Y-61731000D01*
X103100000Y-61691000D02*
X100600000Y-61691000D01*
X107680000Y-61691000D02*
X105180000Y-61691000D01*
X103100000Y-61651000D02*
X100578000Y-61651000D01*
X107702000Y-61651000D02*
X105180000Y-61651000D01*
X103100000Y-61611000D02*
X100556000Y-61611000D01*
X107724000Y-61611000D02*
X105180000Y-61611000D01*
X103100000Y-61571000D02*
X100534000Y-61571000D01*
X107746000Y-61571000D02*
X105180000Y-61571000D01*
X103100000Y-61531000D02*
X100513000Y-61531000D01*
X107767000Y-61531000D02*
X105180000Y-61531000D01*
X103100000Y-61491000D02*
X100493000Y-61491000D01*
X107787000Y-61491000D02*
X105180000Y-61491000D01*
X103100000Y-61451000D02*
X100474000Y-61451000D01*
X107806000Y-61451000D02*
X105180000Y-61451000D01*
X103100000Y-61411000D02*
X100454000Y-61411000D01*
X107826000Y-61411000D02*
X105180000Y-61411000D01*
X103100000Y-61371000D02*
X100436000Y-61371000D01*
X107844000Y-61371000D02*
X105180000Y-61371000D01*
X103100000Y-61331000D02*
X100418000Y-61331000D01*
X107862000Y-61331000D02*
X105180000Y-61331000D01*
X103100000Y-61291000D02*
X100400000Y-61291000D01*
X107880000Y-61291000D02*
X105180000Y-61291000D01*
X103100000Y-61251000D02*
X100383000Y-61251000D01*
X107897000Y-61251000D02*
X105180000Y-61251000D01*
X103100000Y-61211000D02*
X100366000Y-61211000D01*
X107914000Y-61211000D02*
X105180000Y-61211000D01*
X103100000Y-61171000D02*
X100350000Y-61171000D01*
X107930000Y-61171000D02*
X105180000Y-61171000D01*
X103100000Y-61131000D02*
X100335000Y-61131000D01*
X107945000Y-61131000D02*
X105180000Y-61131000D01*
X107961000Y-61091000D02*
X100319000Y-61091000D01*
X107975000Y-61051000D02*
X100305000Y-61051000D01*
X107990000Y-61011000D02*
X100290000Y-61011000D01*
X108003000Y-60971000D02*
X100277000Y-60971000D01*
X108017000Y-60931000D02*
X100263000Y-60931000D01*
X108029000Y-60891000D02*
X100251000Y-60891000D01*
X108042000Y-60851000D02*
X100238000Y-60851000D01*
X108054000Y-60811000D02*
X100226000Y-60811000D01*
X108065000Y-60771000D02*
X100215000Y-60771000D01*
X108076000Y-60731000D02*
X100204000Y-60731000D01*
X108087000Y-60691000D02*
X100193000Y-60691000D01*
X108097000Y-60651000D02*
X100183000Y-60651000D01*
X108107000Y-60611000D02*
X100173000Y-60611000D01*
X108116000Y-60571000D02*
X100164000Y-60571000D01*
X108125000Y-60531000D02*
X100155000Y-60531000D01*
X108134000Y-60491000D02*
X100146000Y-60491000D01*
X108142000Y-60451000D02*
X100138000Y-60451000D01*
X108150000Y-60411000D02*
X100130000Y-60411000D01*
X108157000Y-60371000D02*
X100123000Y-60371000D01*
X108164000Y-60330000D02*
X100116000Y-60330000D01*
X108170000Y-60290000D02*
X100110000Y-60290000D01*
X108177000Y-60250000D02*
X100103000Y-60250000D01*
X108182000Y-60210000D02*
X100098000Y-60210000D01*
X108188000Y-60170000D02*
X100092000Y-60170000D01*
X108192000Y-60130000D02*
X100088000Y-60130000D01*
X108197000Y-60090000D02*
X100083000Y-60090000D01*
X108201000Y-60050000D02*
X100079000Y-60050000D01*
X108205000Y-60010000D02*
X100075000Y-60010000D01*
X108208000Y-59970000D02*
X100072000Y-59970000D01*
X108211000Y-59930000D02*
X100069000Y-59930000D01*
X108214000Y-59890000D02*
X100066000Y-59890000D01*
X108216000Y-59850000D02*
X100064000Y-59850000D01*
X108217000Y-59810000D02*
X100063000Y-59810000D01*
X108219000Y-59770000D02*
X100061000Y-59770000D01*
X108220000Y-59730000D02*
X100060000Y-59730000D01*
X108220000Y-59690000D02*
X100060000Y-59690000D01*
X108220000Y-59650000D02*
X100060000Y-59650000D01*
X108260000Y-59650000D02*
G75*
G03X108260000Y-59650000I-4120000J0D01*
G01*
X67070302Y-131905000D02*
X67070302Y-132705000D01*
X66670302Y-132305000D02*
X67470302Y-132305000D01*
X75161000Y-134087000D02*
X75161000Y-135153000D01*
X75121000Y-133852000D02*
X75121000Y-135388000D01*
X75081000Y-133672000D02*
X75081000Y-135568000D01*
X75041000Y-133522000D02*
X75041000Y-135718000D01*
X75001000Y-133391000D02*
X75001000Y-135849000D01*
X74961000Y-133274000D02*
X74961000Y-135966000D01*
X74921000Y-133167000D02*
X74921000Y-136073000D01*
X74881000Y-133068000D02*
X74881000Y-136172000D01*
X74841000Y-132975000D02*
X74841000Y-136265000D01*
X74801000Y-132889000D02*
X74801000Y-136351000D01*
X74761000Y-132807000D02*
X74761000Y-136433000D01*
X74721000Y-132730000D02*
X74721000Y-136510000D01*
X74681000Y-132656000D02*
X74681000Y-136584000D01*
X74641000Y-132586000D02*
X74641000Y-136654000D01*
X74601000Y-135660000D02*
X74601000Y-136722000D01*
X74601000Y-132518000D02*
X74601000Y-133580000D01*
X74561000Y-135660000D02*
X74561000Y-136786000D01*
X74561000Y-132454000D02*
X74561000Y-133580000D01*
X74521000Y-135660000D02*
X74521000Y-136848000D01*
X74521000Y-132392000D02*
X74521000Y-133580000D01*
X74481000Y-135660000D02*
X74481000Y-136907000D01*
X74481000Y-132333000D02*
X74481000Y-133580000D01*
X74441000Y-135660000D02*
X74441000Y-136965000D01*
X74441000Y-132275000D02*
X74441000Y-133580000D01*
X74401000Y-135660000D02*
X74401000Y-137020000D01*
X74401000Y-132220000D02*
X74401000Y-133580000D01*
X74361000Y-135660000D02*
X74361000Y-137074000D01*
X74361000Y-132166000D02*
X74361000Y-133580000D01*
X74321000Y-135660000D02*
X74321000Y-137125000D01*
X74321000Y-132115000D02*
X74321000Y-133580000D01*
X74281000Y-135660000D02*
X74281000Y-137176000D01*
X74281000Y-132064000D02*
X74281000Y-133580000D01*
X74241000Y-135660000D02*
X74241000Y-137224000D01*
X74241000Y-132016000D02*
X74241000Y-133580000D01*
X74201000Y-135660000D02*
X74201000Y-137271000D01*
X74201000Y-131969000D02*
X74201000Y-133580000D01*
X74161000Y-135660000D02*
X74161000Y-137317000D01*
X74161000Y-131923000D02*
X74161000Y-133580000D01*
X74121000Y-135660000D02*
X74121000Y-137361000D01*
X74121000Y-131879000D02*
X74121000Y-133580000D01*
X74081000Y-135660000D02*
X74081000Y-137404000D01*
X74081000Y-131836000D02*
X74081000Y-133580000D01*
X74041000Y-135660000D02*
X74041000Y-137446000D01*
X74041000Y-131794000D02*
X74041000Y-133580000D01*
X74001000Y-135660000D02*
X74001000Y-137487000D01*
X74001000Y-131753000D02*
X74001000Y-133580000D01*
X73961000Y-135660000D02*
X73961000Y-137527000D01*
X73961000Y-131713000D02*
X73961000Y-133580000D01*
X73921000Y-135660000D02*
X73921000Y-137565000D01*
X73921000Y-131675000D02*
X73921000Y-133580000D01*
X73881000Y-135660000D02*
X73881000Y-137603000D01*
X73881000Y-131637000D02*
X73881000Y-133580000D01*
X73841000Y-135660000D02*
X73841000Y-137639000D01*
X73841000Y-131601000D02*
X73841000Y-133580000D01*
X73801000Y-135660000D02*
X73801000Y-137675000D01*
X73801000Y-131565000D02*
X73801000Y-133580000D01*
X73761000Y-135660000D02*
X73761000Y-137710000D01*
X73761000Y-131530000D02*
X73761000Y-133580000D01*
X73721000Y-135660000D02*
X73721000Y-137744000D01*
X73721000Y-131496000D02*
X73721000Y-133580000D01*
X73681000Y-135660000D02*
X73681000Y-137776000D01*
X73681000Y-131464000D02*
X73681000Y-133580000D01*
X73641000Y-135660000D02*
X73641000Y-137809000D01*
X73641000Y-131431000D02*
X73641000Y-133580000D01*
X73601000Y-135660000D02*
X73601000Y-137840000D01*
X73601000Y-131400000D02*
X73601000Y-133580000D01*
X73561000Y-135660000D02*
X73561000Y-137870000D01*
X73561000Y-131370000D02*
X73561000Y-133580000D01*
X73521000Y-135660000D02*
X73521000Y-137900000D01*
X73521000Y-131340000D02*
X73521000Y-133580000D01*
X73481000Y-135660000D02*
X73481000Y-137929000D01*
X73481000Y-131311000D02*
X73481000Y-133580000D01*
X73441000Y-135660000D02*
X73441000Y-137958000D01*
X73441000Y-131282000D02*
X73441000Y-133580000D01*
X73401000Y-135660000D02*
X73401000Y-137985000D01*
X73401000Y-131255000D02*
X73401000Y-133580000D01*
X73361000Y-135660000D02*
X73361000Y-138012000D01*
X73361000Y-131228000D02*
X73361000Y-133580000D01*
X73321000Y-135660000D02*
X73321000Y-138038000D01*
X73321000Y-131202000D02*
X73321000Y-133580000D01*
X73281000Y-135660000D02*
X73281000Y-138064000D01*
X73281000Y-131176000D02*
X73281000Y-133580000D01*
X73241000Y-135660000D02*
X73241000Y-138089000D01*
X73241000Y-131151000D02*
X73241000Y-133580000D01*
X73201000Y-135660000D02*
X73201000Y-138113000D01*
X73201000Y-131127000D02*
X73201000Y-133580000D01*
X73161000Y-135660000D02*
X73161000Y-138137000D01*
X73161000Y-131103000D02*
X73161000Y-133580000D01*
X73121000Y-135660000D02*
X73121000Y-138160000D01*
X73121000Y-131080000D02*
X73121000Y-133580000D01*
X73081000Y-135660000D02*
X73081000Y-138182000D01*
X73081000Y-131058000D02*
X73081000Y-133580000D01*
X73041000Y-135660000D02*
X73041000Y-138204000D01*
X73041000Y-131036000D02*
X73041000Y-133580000D01*
X73001000Y-135660000D02*
X73001000Y-138226000D01*
X73001000Y-131014000D02*
X73001000Y-133580000D01*
X72961000Y-135660000D02*
X72961000Y-138247000D01*
X72961000Y-130993000D02*
X72961000Y-133580000D01*
X72921000Y-135660000D02*
X72921000Y-138267000D01*
X72921000Y-130973000D02*
X72921000Y-133580000D01*
X72881000Y-135660000D02*
X72881000Y-138286000D01*
X72881000Y-130954000D02*
X72881000Y-133580000D01*
X72841000Y-135660000D02*
X72841000Y-138306000D01*
X72841000Y-130934000D02*
X72841000Y-133580000D01*
X72801000Y-135660000D02*
X72801000Y-138324000D01*
X72801000Y-130916000D02*
X72801000Y-133580000D01*
X72761000Y-135660000D02*
X72761000Y-138342000D01*
X72761000Y-130898000D02*
X72761000Y-133580000D01*
X72721000Y-135660000D02*
X72721000Y-138360000D01*
X72721000Y-130880000D02*
X72721000Y-133580000D01*
X72681000Y-135660000D02*
X72681000Y-138377000D01*
X72681000Y-130863000D02*
X72681000Y-133580000D01*
X72641000Y-135660000D02*
X72641000Y-138394000D01*
X72641000Y-130846000D02*
X72641000Y-133580000D01*
X72601000Y-135660000D02*
X72601000Y-138410000D01*
X72601000Y-130830000D02*
X72601000Y-133580000D01*
X72561000Y-135660000D02*
X72561000Y-138425000D01*
X72561000Y-130815000D02*
X72561000Y-133580000D01*
X72521000Y-130799000D02*
X72521000Y-138441000D01*
X72481000Y-130785000D02*
X72481000Y-138455000D01*
X72441000Y-130770000D02*
X72441000Y-138470000D01*
X72401000Y-130757000D02*
X72401000Y-138483000D01*
X72361000Y-130743000D02*
X72361000Y-138497000D01*
X72321000Y-130731000D02*
X72321000Y-138509000D01*
X72281000Y-130718000D02*
X72281000Y-138522000D01*
X72241000Y-130706000D02*
X72241000Y-138534000D01*
X72201000Y-130695000D02*
X72201000Y-138545000D01*
X72161000Y-130684000D02*
X72161000Y-138556000D01*
X72121000Y-130673000D02*
X72121000Y-138567000D01*
X72081000Y-130663000D02*
X72081000Y-138577000D01*
X72041000Y-130653000D02*
X72041000Y-138587000D01*
X72001000Y-130644000D02*
X72001000Y-138596000D01*
X71961000Y-130635000D02*
X71961000Y-138605000D01*
X71921000Y-130626000D02*
X71921000Y-138614000D01*
X71881000Y-130618000D02*
X71881000Y-138622000D01*
X71841000Y-130610000D02*
X71841000Y-138630000D01*
X71801000Y-130603000D02*
X71801000Y-138637000D01*
X71760000Y-130596000D02*
X71760000Y-138644000D01*
X71720000Y-130590000D02*
X71720000Y-138650000D01*
X71680000Y-130583000D02*
X71680000Y-138657000D01*
X71640000Y-130578000D02*
X71640000Y-138662000D01*
X71600000Y-130572000D02*
X71600000Y-138668000D01*
X71560000Y-130568000D02*
X71560000Y-138672000D01*
X71520000Y-130563000D02*
X71520000Y-138677000D01*
X71480000Y-130559000D02*
X71480000Y-138681000D01*
X71440000Y-130555000D02*
X71440000Y-138685000D01*
X71400000Y-130552000D02*
X71400000Y-138688000D01*
X71360000Y-130549000D02*
X71360000Y-138691000D01*
X71320000Y-130546000D02*
X71320000Y-138694000D01*
X71280000Y-130544000D02*
X71280000Y-138696000D01*
X71240000Y-130543000D02*
X71240000Y-138697000D01*
X71200000Y-130541000D02*
X71200000Y-138699000D01*
X71160000Y-130540000D02*
X71160000Y-138700000D01*
X71120000Y-130540000D02*
X71120000Y-138700000D01*
X71080000Y-130540000D02*
X71080000Y-138700000D01*
X75200000Y-134620000D02*
G75*
G03X75200000Y-134620000I-4120000J0D01*
G01*
X88660302Y-111585000D02*
X88660302Y-112385000D01*
X88260302Y-111985000D02*
X89060302Y-111985000D01*
X96751000Y-113767000D02*
X96751000Y-114833000D01*
X96711000Y-113532000D02*
X96711000Y-115068000D01*
X96671000Y-113352000D02*
X96671000Y-115248000D01*
X96631000Y-113202000D02*
X96631000Y-115398000D01*
X96591000Y-113071000D02*
X96591000Y-115529000D01*
X96551000Y-112954000D02*
X96551000Y-115646000D01*
X96511000Y-112847000D02*
X96511000Y-115753000D01*
X96471000Y-112748000D02*
X96471000Y-115852000D01*
X96431000Y-112655000D02*
X96431000Y-115945000D01*
X96391000Y-112569000D02*
X96391000Y-116031000D01*
X96351000Y-112487000D02*
X96351000Y-116113000D01*
X96311000Y-112410000D02*
X96311000Y-116190000D01*
X96271000Y-112336000D02*
X96271000Y-116264000D01*
X96231000Y-112266000D02*
X96231000Y-116334000D01*
X96191000Y-115340000D02*
X96191000Y-116402000D01*
X96191000Y-112198000D02*
X96191000Y-113260000D01*
X96151000Y-115340000D02*
X96151000Y-116466000D01*
X96151000Y-112134000D02*
X96151000Y-113260000D01*
X96111000Y-115340000D02*
X96111000Y-116528000D01*
X96111000Y-112072000D02*
X96111000Y-113260000D01*
X96071000Y-115340000D02*
X96071000Y-116587000D01*
X96071000Y-112013000D02*
X96071000Y-113260000D01*
X96031000Y-115340000D02*
X96031000Y-116645000D01*
X96031000Y-111955000D02*
X96031000Y-113260000D01*
X95991000Y-115340000D02*
X95991000Y-116700000D01*
X95991000Y-111900000D02*
X95991000Y-113260000D01*
X95951000Y-115340000D02*
X95951000Y-116754000D01*
X95951000Y-111846000D02*
X95951000Y-113260000D01*
X95911000Y-115340000D02*
X95911000Y-116805000D01*
X95911000Y-111795000D02*
X95911000Y-113260000D01*
X95871000Y-115340000D02*
X95871000Y-116856000D01*
X95871000Y-111744000D02*
X95871000Y-113260000D01*
X95831000Y-115340000D02*
X95831000Y-116904000D01*
X95831000Y-111696000D02*
X95831000Y-113260000D01*
X95791000Y-115340000D02*
X95791000Y-116951000D01*
X95791000Y-111649000D02*
X95791000Y-113260000D01*
X95751000Y-115340000D02*
X95751000Y-116997000D01*
X95751000Y-111603000D02*
X95751000Y-113260000D01*
X95711000Y-115340000D02*
X95711000Y-117041000D01*
X95711000Y-111559000D02*
X95711000Y-113260000D01*
X95671000Y-115340000D02*
X95671000Y-117084000D01*
X95671000Y-111516000D02*
X95671000Y-113260000D01*
X95631000Y-115340000D02*
X95631000Y-117126000D01*
X95631000Y-111474000D02*
X95631000Y-113260000D01*
X95591000Y-115340000D02*
X95591000Y-117167000D01*
X95591000Y-111433000D02*
X95591000Y-113260000D01*
X95551000Y-115340000D02*
X95551000Y-117207000D01*
X95551000Y-111393000D02*
X95551000Y-113260000D01*
X95511000Y-115340000D02*
X95511000Y-117245000D01*
X95511000Y-111355000D02*
X95511000Y-113260000D01*
X95471000Y-115340000D02*
X95471000Y-117283000D01*
X95471000Y-111317000D02*
X95471000Y-113260000D01*
X95431000Y-115340000D02*
X95431000Y-117319000D01*
X95431000Y-111281000D02*
X95431000Y-113260000D01*
X95391000Y-115340000D02*
X95391000Y-117355000D01*
X95391000Y-111245000D02*
X95391000Y-113260000D01*
X95351000Y-115340000D02*
X95351000Y-117390000D01*
X95351000Y-111210000D02*
X95351000Y-113260000D01*
X95311000Y-115340000D02*
X95311000Y-117424000D01*
X95311000Y-111176000D02*
X95311000Y-113260000D01*
X95271000Y-115340000D02*
X95271000Y-117456000D01*
X95271000Y-111144000D02*
X95271000Y-113260000D01*
X95231000Y-115340000D02*
X95231000Y-117489000D01*
X95231000Y-111111000D02*
X95231000Y-113260000D01*
X95191000Y-115340000D02*
X95191000Y-117520000D01*
X95191000Y-111080000D02*
X95191000Y-113260000D01*
X95151000Y-115340000D02*
X95151000Y-117550000D01*
X95151000Y-111050000D02*
X95151000Y-113260000D01*
X95111000Y-115340000D02*
X95111000Y-117580000D01*
X95111000Y-111020000D02*
X95111000Y-113260000D01*
X95071000Y-115340000D02*
X95071000Y-117609000D01*
X95071000Y-110991000D02*
X95071000Y-113260000D01*
X95031000Y-115340000D02*
X95031000Y-117638000D01*
X95031000Y-110962000D02*
X95031000Y-113260000D01*
X94991000Y-115340000D02*
X94991000Y-117665000D01*
X94991000Y-110935000D02*
X94991000Y-113260000D01*
X94951000Y-115340000D02*
X94951000Y-117692000D01*
X94951000Y-110908000D02*
X94951000Y-113260000D01*
X94911000Y-115340000D02*
X94911000Y-117718000D01*
X94911000Y-110882000D02*
X94911000Y-113260000D01*
X94871000Y-115340000D02*
X94871000Y-117744000D01*
X94871000Y-110856000D02*
X94871000Y-113260000D01*
X94831000Y-115340000D02*
X94831000Y-117769000D01*
X94831000Y-110831000D02*
X94831000Y-113260000D01*
X94791000Y-115340000D02*
X94791000Y-117793000D01*
X94791000Y-110807000D02*
X94791000Y-113260000D01*
X94751000Y-115340000D02*
X94751000Y-117817000D01*
X94751000Y-110783000D02*
X94751000Y-113260000D01*
X94711000Y-115340000D02*
X94711000Y-117840000D01*
X94711000Y-110760000D02*
X94711000Y-113260000D01*
X94671000Y-115340000D02*
X94671000Y-117862000D01*
X94671000Y-110738000D02*
X94671000Y-113260000D01*
X94631000Y-115340000D02*
X94631000Y-117884000D01*
X94631000Y-110716000D02*
X94631000Y-113260000D01*
X94591000Y-115340000D02*
X94591000Y-117906000D01*
X94591000Y-110694000D02*
X94591000Y-113260000D01*
X94551000Y-115340000D02*
X94551000Y-117927000D01*
X94551000Y-110673000D02*
X94551000Y-113260000D01*
X94511000Y-115340000D02*
X94511000Y-117947000D01*
X94511000Y-110653000D02*
X94511000Y-113260000D01*
X94471000Y-115340000D02*
X94471000Y-117966000D01*
X94471000Y-110634000D02*
X94471000Y-113260000D01*
X94431000Y-115340000D02*
X94431000Y-117986000D01*
X94431000Y-110614000D02*
X94431000Y-113260000D01*
X94391000Y-115340000D02*
X94391000Y-118004000D01*
X94391000Y-110596000D02*
X94391000Y-113260000D01*
X94351000Y-115340000D02*
X94351000Y-118022000D01*
X94351000Y-110578000D02*
X94351000Y-113260000D01*
X94311000Y-115340000D02*
X94311000Y-118040000D01*
X94311000Y-110560000D02*
X94311000Y-113260000D01*
X94271000Y-115340000D02*
X94271000Y-118057000D01*
X94271000Y-110543000D02*
X94271000Y-113260000D01*
X94231000Y-115340000D02*
X94231000Y-118074000D01*
X94231000Y-110526000D02*
X94231000Y-113260000D01*
X94191000Y-115340000D02*
X94191000Y-118090000D01*
X94191000Y-110510000D02*
X94191000Y-113260000D01*
X94151000Y-115340000D02*
X94151000Y-118105000D01*
X94151000Y-110495000D02*
X94151000Y-113260000D01*
X94111000Y-110479000D02*
X94111000Y-118121000D01*
X94071000Y-110465000D02*
X94071000Y-118135000D01*
X94031000Y-110450000D02*
X94031000Y-118150000D01*
X93991000Y-110437000D02*
X93991000Y-118163000D01*
X93951000Y-110423000D02*
X93951000Y-118177000D01*
X93911000Y-110411000D02*
X93911000Y-118189000D01*
X93871000Y-110398000D02*
X93871000Y-118202000D01*
X93831000Y-110386000D02*
X93831000Y-118214000D01*
X93791000Y-110375000D02*
X93791000Y-118225000D01*
X93751000Y-110364000D02*
X93751000Y-118236000D01*
X93711000Y-110353000D02*
X93711000Y-118247000D01*
X93671000Y-110343000D02*
X93671000Y-118257000D01*
X93631000Y-110333000D02*
X93631000Y-118267000D01*
X93591000Y-110324000D02*
X93591000Y-118276000D01*
X93551000Y-110315000D02*
X93551000Y-118285000D01*
X93511000Y-110306000D02*
X93511000Y-118294000D01*
X93471000Y-110298000D02*
X93471000Y-118302000D01*
X93431000Y-110290000D02*
X93431000Y-118310000D01*
X93391000Y-110283000D02*
X93391000Y-118317000D01*
X93350000Y-110276000D02*
X93350000Y-118324000D01*
X93310000Y-110270000D02*
X93310000Y-118330000D01*
X93270000Y-110263000D02*
X93270000Y-118337000D01*
X93230000Y-110258000D02*
X93230000Y-118342000D01*
X93190000Y-110252000D02*
X93190000Y-118348000D01*
X93150000Y-110248000D02*
X93150000Y-118352000D01*
X93110000Y-110243000D02*
X93110000Y-118357000D01*
X93070000Y-110239000D02*
X93070000Y-118361000D01*
X93030000Y-110235000D02*
X93030000Y-118365000D01*
X92990000Y-110232000D02*
X92990000Y-118368000D01*
X92950000Y-110229000D02*
X92950000Y-118371000D01*
X92910000Y-110226000D02*
X92910000Y-118374000D01*
X92870000Y-110224000D02*
X92870000Y-118376000D01*
X92830000Y-110223000D02*
X92830000Y-118377000D01*
X92790000Y-110221000D02*
X92790000Y-118379000D01*
X92750000Y-110220000D02*
X92750000Y-118380000D01*
X92710000Y-110220000D02*
X92710000Y-118380000D01*
X92670000Y-110220000D02*
X92670000Y-118380000D01*
X96790000Y-114300000D02*
G75*
G03X96790000Y-114300000I-4120000J0D01*
G01*
X118285000Y-58180302D02*
X117485000Y-58180302D01*
X117885000Y-57780302D02*
X117885000Y-58580302D01*
X116103000Y-66271000D02*
X115037000Y-66271000D01*
X116338000Y-66231000D02*
X114802000Y-66231000D01*
X116518000Y-66191000D02*
X114622000Y-66191000D01*
X116668000Y-66151000D02*
X114472000Y-66151000D01*
X116799000Y-66111000D02*
X114341000Y-66111000D01*
X116916000Y-66071000D02*
X114224000Y-66071000D01*
X117023000Y-66031000D02*
X114117000Y-66031000D01*
X117122000Y-65991000D02*
X114018000Y-65991000D01*
X117215000Y-65951000D02*
X113925000Y-65951000D01*
X117301000Y-65911000D02*
X113839000Y-65911000D01*
X117383000Y-65871000D02*
X113757000Y-65871000D01*
X117460000Y-65831000D02*
X113680000Y-65831000D01*
X117534000Y-65791000D02*
X113606000Y-65791000D01*
X117604000Y-65751000D02*
X113536000Y-65751000D01*
X114530000Y-65711000D02*
X113468000Y-65711000D01*
X117672000Y-65711000D02*
X116610000Y-65711000D01*
X114530000Y-65671000D02*
X113404000Y-65671000D01*
X117736000Y-65671000D02*
X116610000Y-65671000D01*
X114530000Y-65631000D02*
X113342000Y-65631000D01*
X117798000Y-65631000D02*
X116610000Y-65631000D01*
X114530000Y-65591000D02*
X113283000Y-65591000D01*
X117857000Y-65591000D02*
X116610000Y-65591000D01*
X114530000Y-65551000D02*
X113225000Y-65551000D01*
X117915000Y-65551000D02*
X116610000Y-65551000D01*
X114530000Y-65511000D02*
X113170000Y-65511000D01*
X117970000Y-65511000D02*
X116610000Y-65511000D01*
X114530000Y-65471000D02*
X113116000Y-65471000D01*
X118024000Y-65471000D02*
X116610000Y-65471000D01*
X114530000Y-65431000D02*
X113065000Y-65431000D01*
X118075000Y-65431000D02*
X116610000Y-65431000D01*
X114530000Y-65391000D02*
X113014000Y-65391000D01*
X118126000Y-65391000D02*
X116610000Y-65391000D01*
X114530000Y-65351000D02*
X112966000Y-65351000D01*
X118174000Y-65351000D02*
X116610000Y-65351000D01*
X114530000Y-65311000D02*
X112919000Y-65311000D01*
X118221000Y-65311000D02*
X116610000Y-65311000D01*
X114530000Y-65271000D02*
X112873000Y-65271000D01*
X118267000Y-65271000D02*
X116610000Y-65271000D01*
X114530000Y-65231000D02*
X112829000Y-65231000D01*
X118311000Y-65231000D02*
X116610000Y-65231000D01*
X114530000Y-65191000D02*
X112786000Y-65191000D01*
X118354000Y-65191000D02*
X116610000Y-65191000D01*
X114530000Y-65151000D02*
X112744000Y-65151000D01*
X118396000Y-65151000D02*
X116610000Y-65151000D01*
X114530000Y-65111000D02*
X112703000Y-65111000D01*
X118437000Y-65111000D02*
X116610000Y-65111000D01*
X114530000Y-65071000D02*
X112663000Y-65071000D01*
X118477000Y-65071000D02*
X116610000Y-65071000D01*
X114530000Y-65031000D02*
X112625000Y-65031000D01*
X118515000Y-65031000D02*
X116610000Y-65031000D01*
X114530000Y-64991000D02*
X112587000Y-64991000D01*
X118553000Y-64991000D02*
X116610000Y-64991000D01*
X114530000Y-64951000D02*
X112551000Y-64951000D01*
X118589000Y-64951000D02*
X116610000Y-64951000D01*
X114530000Y-64911000D02*
X112515000Y-64911000D01*
X118625000Y-64911000D02*
X116610000Y-64911000D01*
X114530000Y-64871000D02*
X112480000Y-64871000D01*
X118660000Y-64871000D02*
X116610000Y-64871000D01*
X114530000Y-64831000D02*
X112446000Y-64831000D01*
X118694000Y-64831000D02*
X116610000Y-64831000D01*
X114530000Y-64791000D02*
X112414000Y-64791000D01*
X118726000Y-64791000D02*
X116610000Y-64791000D01*
X114530000Y-64751000D02*
X112381000Y-64751000D01*
X118759000Y-64751000D02*
X116610000Y-64751000D01*
X114530000Y-64711000D02*
X112350000Y-64711000D01*
X118790000Y-64711000D02*
X116610000Y-64711000D01*
X114530000Y-64671000D02*
X112320000Y-64671000D01*
X118820000Y-64671000D02*
X116610000Y-64671000D01*
X114530000Y-64631000D02*
X112290000Y-64631000D01*
X118850000Y-64631000D02*
X116610000Y-64631000D01*
X114530000Y-64591000D02*
X112261000Y-64591000D01*
X118879000Y-64591000D02*
X116610000Y-64591000D01*
X114530000Y-64551000D02*
X112232000Y-64551000D01*
X118908000Y-64551000D02*
X116610000Y-64551000D01*
X114530000Y-64511000D02*
X112205000Y-64511000D01*
X118935000Y-64511000D02*
X116610000Y-64511000D01*
X114530000Y-64471000D02*
X112178000Y-64471000D01*
X118962000Y-64471000D02*
X116610000Y-64471000D01*
X114530000Y-64431000D02*
X112152000Y-64431000D01*
X118988000Y-64431000D02*
X116610000Y-64431000D01*
X114530000Y-64391000D02*
X112126000Y-64391000D01*
X119014000Y-64391000D02*
X116610000Y-64391000D01*
X114530000Y-64351000D02*
X112101000Y-64351000D01*
X119039000Y-64351000D02*
X116610000Y-64351000D01*
X114530000Y-64311000D02*
X112077000Y-64311000D01*
X119063000Y-64311000D02*
X116610000Y-64311000D01*
X114530000Y-64271000D02*
X112053000Y-64271000D01*
X119087000Y-64271000D02*
X116610000Y-64271000D01*
X114530000Y-64231000D02*
X112030000Y-64231000D01*
X119110000Y-64231000D02*
X116610000Y-64231000D01*
X114530000Y-64191000D02*
X112008000Y-64191000D01*
X119132000Y-64191000D02*
X116610000Y-64191000D01*
X114530000Y-64151000D02*
X111986000Y-64151000D01*
X119154000Y-64151000D02*
X116610000Y-64151000D01*
X114530000Y-64111000D02*
X111964000Y-64111000D01*
X119176000Y-64111000D02*
X116610000Y-64111000D01*
X114530000Y-64071000D02*
X111943000Y-64071000D01*
X119197000Y-64071000D02*
X116610000Y-64071000D01*
X114530000Y-64031000D02*
X111923000Y-64031000D01*
X119217000Y-64031000D02*
X116610000Y-64031000D01*
X114530000Y-63991000D02*
X111904000Y-63991000D01*
X119236000Y-63991000D02*
X116610000Y-63991000D01*
X114530000Y-63951000D02*
X111884000Y-63951000D01*
X119256000Y-63951000D02*
X116610000Y-63951000D01*
X114530000Y-63911000D02*
X111866000Y-63911000D01*
X119274000Y-63911000D02*
X116610000Y-63911000D01*
X114530000Y-63871000D02*
X111848000Y-63871000D01*
X119292000Y-63871000D02*
X116610000Y-63871000D01*
X114530000Y-63831000D02*
X111830000Y-63831000D01*
X119310000Y-63831000D02*
X116610000Y-63831000D01*
X114530000Y-63791000D02*
X111813000Y-63791000D01*
X119327000Y-63791000D02*
X116610000Y-63791000D01*
X114530000Y-63751000D02*
X111796000Y-63751000D01*
X119344000Y-63751000D02*
X116610000Y-63751000D01*
X114530000Y-63711000D02*
X111780000Y-63711000D01*
X119360000Y-63711000D02*
X116610000Y-63711000D01*
X114530000Y-63671000D02*
X111765000Y-63671000D01*
X119375000Y-63671000D02*
X116610000Y-63671000D01*
X119391000Y-63631000D02*
X111749000Y-63631000D01*
X119405000Y-63591000D02*
X111735000Y-63591000D01*
X119420000Y-63551000D02*
X111720000Y-63551000D01*
X119433000Y-63511000D02*
X111707000Y-63511000D01*
X119447000Y-63471000D02*
X111693000Y-63471000D01*
X119459000Y-63431000D02*
X111681000Y-63431000D01*
X119472000Y-63391000D02*
X111668000Y-63391000D01*
X119484000Y-63351000D02*
X111656000Y-63351000D01*
X119495000Y-63311000D02*
X111645000Y-63311000D01*
X119506000Y-63271000D02*
X111634000Y-63271000D01*
X119517000Y-63231000D02*
X111623000Y-63231000D01*
X119527000Y-63191000D02*
X111613000Y-63191000D01*
X119537000Y-63151000D02*
X111603000Y-63151000D01*
X119546000Y-63111000D02*
X111594000Y-63111000D01*
X119555000Y-63071000D02*
X111585000Y-63071000D01*
X119564000Y-63031000D02*
X111576000Y-63031000D01*
X119572000Y-62991000D02*
X111568000Y-62991000D01*
X119580000Y-62951000D02*
X111560000Y-62951000D01*
X119587000Y-62911000D02*
X111553000Y-62911000D01*
X119594000Y-62870000D02*
X111546000Y-62870000D01*
X119600000Y-62830000D02*
X111540000Y-62830000D01*
X119607000Y-62790000D02*
X111533000Y-62790000D01*
X119612000Y-62750000D02*
X111528000Y-62750000D01*
X119618000Y-62710000D02*
X111522000Y-62710000D01*
X119622000Y-62670000D02*
X111518000Y-62670000D01*
X119627000Y-62630000D02*
X111513000Y-62630000D01*
X119631000Y-62590000D02*
X111509000Y-62590000D01*
X119635000Y-62550000D02*
X111505000Y-62550000D01*
X119638000Y-62510000D02*
X111502000Y-62510000D01*
X119641000Y-62470000D02*
X111499000Y-62470000D01*
X119644000Y-62430000D02*
X111496000Y-62430000D01*
X119646000Y-62390000D02*
X111494000Y-62390000D01*
X119647000Y-62350000D02*
X111493000Y-62350000D01*
X119649000Y-62310000D02*
X111491000Y-62310000D01*
X119650000Y-62270000D02*
X111490000Y-62270000D01*
X119650000Y-62230000D02*
X111490000Y-62230000D01*
X119650000Y-62190000D02*
X111490000Y-62190000D01*
X119690000Y-62190000D02*
G75*
G03X119690000Y-62190000I-4120000J0D01*
G01*
X49430000Y-137890000D02*
X49760000Y-137890000D01*
X49430000Y-131350000D02*
X49430000Y-137890000D01*
X49760000Y-131350000D02*
X49430000Y-131350000D01*
X52170000Y-137890000D02*
X51840000Y-137890000D01*
X52170000Y-131350000D02*
X52170000Y-137890000D01*
X51840000Y-131350000D02*
X52170000Y-131350000D01*
X103990000Y-91190000D02*
X101750000Y-91190000D01*
X103990000Y-91430000D02*
X101750000Y-91430000D01*
X103990000Y-91310000D02*
X101750000Y-91310000D01*
X102870000Y-95480000D02*
X102870000Y-94830000D01*
X102870000Y-89940000D02*
X102870000Y-90590000D01*
X103990000Y-94830000D02*
X103990000Y-90590000D01*
X101750000Y-94830000D02*
X103990000Y-94830000D01*
X101750000Y-90590000D02*
X101750000Y-94830000D01*
X103990000Y-90590000D02*
X101750000Y-90590000D01*
X106530000Y-103890000D02*
X104290000Y-103890000D01*
X106530000Y-104130000D02*
X104290000Y-104130000D01*
X106530000Y-104010000D02*
X104290000Y-104010000D01*
X105410000Y-108180000D02*
X105410000Y-107530000D01*
X105410000Y-102640000D02*
X105410000Y-103290000D01*
X106530000Y-107530000D02*
X106530000Y-103290000D01*
X104290000Y-107530000D02*
X106530000Y-107530000D01*
X104290000Y-103290000D02*
X104290000Y-107530000D01*
X106530000Y-103290000D02*
X104290000Y-103290000D01*
X111610000Y-91190000D02*
X109370000Y-91190000D01*
X111610000Y-91430000D02*
X109370000Y-91430000D01*
X111610000Y-91310000D02*
X109370000Y-91310000D01*
X110490000Y-95480000D02*
X110490000Y-94830000D01*
X110490000Y-89940000D02*
X110490000Y-90590000D01*
X111610000Y-94830000D02*
X111610000Y-90590000D01*
X109370000Y-94830000D02*
X111610000Y-94830000D01*
X109370000Y-90590000D02*
X109370000Y-94830000D01*
X111610000Y-90590000D02*
X109370000Y-90590000D01*
X107800000Y-91190000D02*
X105560000Y-91190000D01*
X107800000Y-91430000D02*
X105560000Y-91430000D01*
X107800000Y-91310000D02*
X105560000Y-91310000D01*
X106680000Y-95480000D02*
X106680000Y-94830000D01*
X106680000Y-89940000D02*
X106680000Y-90590000D01*
X107800000Y-94830000D02*
X107800000Y-90590000D01*
X105560000Y-94830000D02*
X107800000Y-94830000D01*
X105560000Y-90590000D02*
X105560000Y-94830000D01*
X107800000Y-90590000D02*
X105560000Y-90590000D01*
X109950000Y-80591000D02*
X108440000Y-80591000D01*
X109950000Y-76890000D02*
X108440000Y-76890000D01*
X108440000Y-73620000D02*
X108440000Y-83860000D01*
X109950000Y-83860000D02*
X105309000Y-83860000D01*
X109950000Y-73620000D02*
X105309000Y-73620000D01*
X105309000Y-73620000D02*
X105309000Y-83860000D01*
X109950000Y-73620000D02*
X109950000Y-83860000D01*
X83930000Y-115510000D02*
X82280000Y-115510000D01*
X83930000Y-123250000D02*
X83930000Y-115510000D01*
X78630000Y-123250000D02*
X83930000Y-123250000D01*
X78630000Y-115510000D02*
X78630000Y-123250000D01*
X80280000Y-115510000D02*
X78630000Y-115510000D01*
X82280000Y-115510000D02*
G75*
G02X80280000Y-115510000I-1000000J0D01*
G01*
X50990000Y-123760000D02*
X50990000Y-99520000D01*
X50990000Y-123760000D02*
X73230000Y-123760000D01*
X73230000Y-99520000D02*
X50990000Y-99520000D01*
X73230000Y-99520000D02*
X73230000Y-123760000D01*
X70610000Y-105140000D02*
X70610000Y-108140000D01*
X70610000Y-110140000D02*
X70610000Y-113140000D01*
X70610000Y-115140000D02*
X70610000Y-118140000D01*
X70610000Y-120140000D02*
X70610000Y-120640000D01*
X70610000Y-103140000D02*
X70610000Y-102640000D01*
X53610000Y-110140000D02*
X53610000Y-118140000D01*
X53610000Y-120640000D02*
X70610000Y-120640000D01*
X53610000Y-120140000D02*
X53610000Y-120640000D01*
X53610000Y-102640000D02*
X70610000Y-102640000D01*
X53610000Y-108140000D02*
X53610000Y-105640000D01*
X47090000Y-131350000D02*
X46760000Y-131350000D01*
X47090000Y-137890000D02*
X47090000Y-131350000D01*
X46760000Y-137890000D02*
X47090000Y-137890000D01*
X44350000Y-131350000D02*
X44680000Y-131350000D01*
X44350000Y-137890000D02*
X44350000Y-131350000D01*
X44680000Y-137890000D02*
X44350000Y-137890000D01*
X76740000Y-110390000D02*
X76740000Y-110720000D01*
X83280000Y-110390000D02*
X76740000Y-110390000D01*
X83280000Y-110720000D02*
X83280000Y-110390000D01*
X76740000Y-113130000D02*
X76740000Y-112800000D01*
X83280000Y-113130000D02*
X76740000Y-113130000D01*
X83280000Y-112800000D02*
X83280000Y-113130000D01*
X83280000Y-108050000D02*
X83280000Y-107720000D01*
X76740000Y-108050000D02*
X83280000Y-108050000D01*
X76740000Y-107720000D02*
X76740000Y-108050000D01*
X83280000Y-105310000D02*
X83280000Y-105640000D01*
X76740000Y-105310000D02*
X83280000Y-105310000D01*
X76740000Y-105640000D02*
X76740000Y-105310000D01*
X54510000Y-137890000D02*
X54840000Y-137890000D01*
X54510000Y-131350000D02*
X54510000Y-137890000D01*
X54840000Y-131350000D02*
X54510000Y-131350000D01*
X57250000Y-137890000D02*
X56920000Y-137890000D01*
X57250000Y-131350000D02*
X57250000Y-137890000D01*
X56920000Y-131350000D02*
X57250000Y-131350000D01*
X62330000Y-131350000D02*
X62000000Y-131350000D01*
X62330000Y-137890000D02*
X62330000Y-131350000D01*
X62000000Y-137890000D02*
X62330000Y-137890000D01*
X59590000Y-131350000D02*
X59920000Y-131350000D01*
X59590000Y-137890000D02*
X59590000Y-131350000D01*
X59920000Y-137890000D02*
X59590000Y-137890000D01*
X83280000Y-128370000D02*
X83280000Y-128040000D01*
X76740000Y-128370000D02*
X83280000Y-128370000D01*
X76740000Y-128040000D02*
X76740000Y-128370000D01*
X83280000Y-125630000D02*
X83280000Y-125960000D01*
X76740000Y-125630000D02*
X83280000Y-125630000D01*
X76740000Y-125960000D02*
X76740000Y-125630000D01*
X95980000Y-108050000D02*
X95980000Y-107720000D01*
X89440000Y-108050000D02*
X95980000Y-108050000D01*
X89440000Y-107720000D02*
X89440000Y-108050000D01*
X95980000Y-105310000D02*
X95980000Y-105640000D01*
X89440000Y-105310000D02*
X95980000Y-105310000D01*
X89440000Y-105640000D02*
X89440000Y-105310000D01*
X89440000Y-100230000D02*
X89440000Y-100560000D01*
X95980000Y-100230000D02*
X89440000Y-100230000D01*
X95980000Y-100560000D02*
X95980000Y-100230000D01*
X89440000Y-102970000D02*
X89440000Y-102640000D01*
X95980000Y-102970000D02*
X89440000Y-102970000D01*
X95980000Y-102640000D02*
X95980000Y-102970000D01*
X76740000Y-100230000D02*
X76740000Y-100560000D01*
X83280000Y-100230000D02*
X76740000Y-100230000D01*
X83280000Y-100560000D02*
X83280000Y-100230000D01*
X76740000Y-102970000D02*
X76740000Y-102640000D01*
X83280000Y-102970000D02*
X76740000Y-102970000D01*
X83280000Y-102640000D02*
X83280000Y-102970000D01*
X36690000Y-138600000D02*
X39510000Y-138600000D01*
X39510000Y-138600000D02*
X40810000Y-136900000D01*
X36690000Y-138600000D02*
X35390000Y-136900000D01*
X40810000Y-136900000D02*
X40810000Y-128180000D01*
X35390000Y-128180000D02*
X40810000Y-128180000D01*
X35390000Y-136900000D02*
X35390000Y-128180000D01*
X38240000Y-63330000D02*
X35420000Y-63330000D01*
X35420000Y-63330000D02*
X34120000Y-65030000D01*
X38240000Y-63330000D02*
X39540000Y-65030000D01*
X34120000Y-65030000D02*
X34120000Y-73750000D01*
X39540000Y-73750000D02*
X34120000Y-73750000D01*
X39540000Y-65030000D02*
X39540000Y-73750000D01*
X34570000Y-77470000D02*
X37370000Y-77470000D01*
X34570000Y-77470000D02*
X34570000Y-100070000D01*
X44170000Y-77470000D02*
X44170000Y-100070000D01*
X41370000Y-77470000D02*
X44170000Y-77470000D01*
X41370000Y-100070000D02*
X44170000Y-100070000D01*
X34570000Y-100070000D02*
X37370000Y-100070000D01*
X96450000Y-65080000D02*
X96450000Y-66580000D01*
X96450000Y-70580000D02*
X96450000Y-72080000D01*
X96450000Y-75280000D02*
X96450000Y-77180000D01*
X96450000Y-80280000D02*
X96450000Y-82280000D01*
X96450000Y-85380000D02*
X96450000Y-87380000D01*
X96450000Y-87380000D02*
X92850000Y-87380000D01*
X92850000Y-87380000D02*
X92850000Y-65080000D01*
X92850000Y-65080000D02*
X96450000Y-65080000D01*
X92850000Y-68280000D02*
X93350000Y-68280000D01*
D10*
X160532380Y-151463333D02*
X161246666Y-151463333D01*
X161389523Y-151510952D01*
X161484761Y-151606190D01*
X161532380Y-151749047D01*
X161532380Y-151844285D01*
X160532380Y-151082380D02*
X160532380Y-150415714D01*
X161532380Y-150844285D01*
X121198095Y-66422380D02*
X121198095Y-67231904D01*
X121245714Y-67327142D01*
X121293333Y-67374761D01*
X121388571Y-67422380D01*
X121579047Y-67422380D01*
X121674285Y-67374761D01*
X121721904Y-67327142D01*
X121769523Y-67231904D01*
X121769523Y-66422380D01*
X122198095Y-66517619D02*
X122245714Y-66470000D01*
X122340952Y-66422380D01*
X122579047Y-66422380D01*
X122674285Y-66470000D01*
X122721904Y-66517619D01*
X122769523Y-66612857D01*
X122769523Y-66708095D01*
X122721904Y-66850952D01*
X122150476Y-67422380D01*
X122769523Y-67422380D01*
X183372380Y-133348095D02*
X182372380Y-133348095D01*
X183372380Y-132776666D02*
X182800952Y-133205238D01*
X182372380Y-132776666D02*
X182943809Y-133348095D01*
X182467619Y-132395714D02*
X182420000Y-132348095D01*
X182372380Y-132252857D01*
X182372380Y-132014761D01*
X182420000Y-131919523D01*
X182467619Y-131871904D01*
X182562857Y-131824285D01*
X182658095Y-131824285D01*
X182800952Y-131871904D01*
X183372380Y-132443333D01*
X183372380Y-131824285D01*
X183372380Y-95248095D02*
X182372380Y-95248095D01*
X183372380Y-94676666D02*
X182800952Y-95105238D01*
X182372380Y-94676666D02*
X182943809Y-95248095D01*
X183372380Y-93724285D02*
X183372380Y-94295714D01*
X183372380Y-94010000D02*
X182372380Y-94010000D01*
X182515238Y-94105238D01*
X182610476Y-94200476D01*
X182658095Y-94295714D01*
X167544761Y-73187619D02*
X167449523Y-73140000D01*
X167354285Y-73044761D01*
X167211428Y-72901904D01*
X167116190Y-72854285D01*
X167020952Y-72854285D01*
X167068571Y-73092380D02*
X166973333Y-73044761D01*
X166878095Y-72949523D01*
X166830476Y-72759047D01*
X166830476Y-72425714D01*
X166878095Y-72235238D01*
X166973333Y-72140000D01*
X167068571Y-72092380D01*
X167259047Y-72092380D01*
X167354285Y-72140000D01*
X167449523Y-72235238D01*
X167497142Y-72425714D01*
X167497142Y-72759047D01*
X167449523Y-72949523D01*
X167354285Y-73044761D01*
X167259047Y-73092380D01*
X167068571Y-73092380D01*
X168401904Y-72092380D02*
X167925714Y-72092380D01*
X167878095Y-72568571D01*
X167925714Y-72520952D01*
X168020952Y-72473333D01*
X168259047Y-72473333D01*
X168354285Y-72520952D01*
X168401904Y-72568571D01*
X168449523Y-72663809D01*
X168449523Y-72901904D01*
X168401904Y-72997142D01*
X168354285Y-73044761D01*
X168259047Y-73092380D01*
X168020952Y-73092380D01*
X167925714Y-73044761D01*
X167878095Y-72997142D01*
X167544761Y-125257619D02*
X167449523Y-125210000D01*
X167354285Y-125114761D01*
X167211428Y-124971904D01*
X167116190Y-124924285D01*
X167020952Y-124924285D01*
X167068571Y-125162380D02*
X166973333Y-125114761D01*
X166878095Y-125019523D01*
X166830476Y-124829047D01*
X166830476Y-124495714D01*
X166878095Y-124305238D01*
X166973333Y-124210000D01*
X167068571Y-124162380D01*
X167259047Y-124162380D01*
X167354285Y-124210000D01*
X167449523Y-124305238D01*
X167497142Y-124495714D01*
X167497142Y-124829047D01*
X167449523Y-125019523D01*
X167354285Y-125114761D01*
X167259047Y-125162380D01*
X167068571Y-125162380D01*
X168354285Y-124495714D02*
X168354285Y-125162380D01*
X168116190Y-124114761D02*
X167878095Y-124829047D01*
X168497142Y-124829047D01*
X166274761Y-92237619D02*
X166179523Y-92190000D01*
X166084285Y-92094761D01*
X165941428Y-91951904D01*
X165846190Y-91904285D01*
X165750952Y-91904285D01*
X165798571Y-92142380D02*
X165703333Y-92094761D01*
X165608095Y-91999523D01*
X165560476Y-91809047D01*
X165560476Y-91475714D01*
X165608095Y-91285238D01*
X165703333Y-91190000D01*
X165798571Y-91142380D01*
X165989047Y-91142380D01*
X166084285Y-91190000D01*
X166179523Y-91285238D01*
X166227142Y-91475714D01*
X166227142Y-91809047D01*
X166179523Y-91999523D01*
X166084285Y-92094761D01*
X165989047Y-92142380D01*
X165798571Y-92142380D01*
X166560476Y-91142380D02*
X167179523Y-91142380D01*
X166846190Y-91523333D01*
X166989047Y-91523333D01*
X167084285Y-91570952D01*
X167131904Y-91618571D01*
X167179523Y-91713809D01*
X167179523Y-91951904D01*
X167131904Y-92047142D01*
X167084285Y-92094761D01*
X166989047Y-92142380D01*
X166703333Y-92142380D01*
X166608095Y-92094761D01*
X166560476Y-92047142D01*
X167544761Y-106207619D02*
X167449523Y-106160000D01*
X167354285Y-106064761D01*
X167211428Y-105921904D01*
X167116190Y-105874285D01*
X167020952Y-105874285D01*
X167068571Y-106112380D02*
X166973333Y-106064761D01*
X166878095Y-105969523D01*
X166830476Y-105779047D01*
X166830476Y-105445714D01*
X166878095Y-105255238D01*
X166973333Y-105160000D01*
X167068571Y-105112380D01*
X167259047Y-105112380D01*
X167354285Y-105160000D01*
X167449523Y-105255238D01*
X167497142Y-105445714D01*
X167497142Y-105779047D01*
X167449523Y-105969523D01*
X167354285Y-106064761D01*
X167259047Y-106112380D01*
X167068571Y-106112380D01*
X167878095Y-105207619D02*
X167925714Y-105160000D01*
X168020952Y-105112380D01*
X168259047Y-105112380D01*
X168354285Y-105160000D01*
X168401904Y-105207619D01*
X168449523Y-105302857D01*
X168449523Y-105398095D01*
X168401904Y-105540952D01*
X167830476Y-106112380D01*
X168449523Y-106112380D01*
X158654761Y-57947619D02*
X158559523Y-57900000D01*
X158464285Y-57804761D01*
X158321428Y-57661904D01*
X158226190Y-57614285D01*
X158130952Y-57614285D01*
X158178571Y-57852380D02*
X158083333Y-57804761D01*
X157988095Y-57709523D01*
X157940476Y-57519047D01*
X157940476Y-57185714D01*
X157988095Y-56995238D01*
X158083333Y-56900000D01*
X158178571Y-56852380D01*
X158369047Y-56852380D01*
X158464285Y-56900000D01*
X158559523Y-56995238D01*
X158607142Y-57185714D01*
X158607142Y-57519047D01*
X158559523Y-57709523D01*
X158464285Y-57804761D01*
X158369047Y-57852380D01*
X158178571Y-57852380D01*
X159559523Y-57852380D02*
X158988095Y-57852380D01*
X159273809Y-57852380D02*
X159273809Y-56852380D01*
X159178571Y-56995238D01*
X159083333Y-57090476D01*
X158988095Y-57138095D01*
X126626666Y-137692380D02*
X126626666Y-138406666D01*
X126579047Y-138549523D01*
X126483809Y-138644761D01*
X126340952Y-138692380D01*
X126245714Y-138692380D01*
X127531428Y-137692380D02*
X127340952Y-137692380D01*
X127245714Y-137740000D01*
X127198095Y-137787619D01*
X127102857Y-137930476D01*
X127055238Y-138120952D01*
X127055238Y-138501904D01*
X127102857Y-138597142D01*
X127150476Y-138644761D01*
X127245714Y-138692380D01*
X127436190Y-138692380D01*
X127531428Y-138644761D01*
X127579047Y-138597142D01*
X127626666Y-138501904D01*
X127626666Y-138263809D01*
X127579047Y-138168571D01*
X127531428Y-138120952D01*
X127436190Y-138073333D01*
X127245714Y-138073333D01*
X127150476Y-138120952D01*
X127102857Y-138168571D01*
X127055238Y-138263809D01*
X119888571Y-142347142D02*
X121031428Y-142347142D01*
X132888571Y-142347142D02*
X134031428Y-142347142D01*
X133460000Y-142918571D02*
X133460000Y-141775714D01*
X89602380Y-81071904D02*
X89602380Y-80500476D01*
X90602380Y-80786190D02*
X89602380Y-80786190D01*
X90602380Y-79595714D02*
X90126190Y-79929047D01*
X90602380Y-80167142D02*
X89602380Y-80167142D01*
X89602380Y-79786190D01*
X89650000Y-79690952D01*
X89697619Y-79643333D01*
X89792857Y-79595714D01*
X89935714Y-79595714D01*
X90030952Y-79643333D01*
X90078571Y-79690952D01*
X90126190Y-79786190D01*
X90126190Y-80167142D01*
X90602380Y-78643333D02*
X90602380Y-79214761D01*
X90602380Y-78929047D02*
X89602380Y-78929047D01*
X89745238Y-79024285D01*
X89840476Y-79119523D01*
X89888095Y-79214761D01*
X55062380Y-67024285D02*
X55062380Y-67595714D01*
X55062380Y-67310000D02*
X54062380Y-67310000D01*
X54205238Y-67405238D01*
X54300476Y-67500476D01*
X54348095Y-67595714D01*
X54157619Y-72675714D02*
X54110000Y-72628095D01*
X54062380Y-72532857D01*
X54062380Y-72294761D01*
X54110000Y-72199523D01*
X54157619Y-72151904D01*
X54252857Y-72104285D01*
X54348095Y-72104285D01*
X54490952Y-72151904D01*
X55062380Y-72723333D01*
X55062380Y-72104285D01*
X54062380Y-77803333D02*
X54062380Y-77184285D01*
X54443333Y-77517619D01*
X54443333Y-77374761D01*
X54490952Y-77279523D01*
X54538571Y-77231904D01*
X54633809Y-77184285D01*
X54871904Y-77184285D01*
X54967142Y-77231904D01*
X55014761Y-77279523D01*
X55062380Y-77374761D01*
X55062380Y-77660476D01*
X55014761Y-77755714D01*
X54967142Y-77803333D01*
X54395714Y-82359523D02*
X55062380Y-82359523D01*
X54014761Y-82597619D02*
X54729047Y-82835714D01*
X54729047Y-82216666D01*
X54062380Y-87391904D02*
X54062380Y-87868095D01*
X54538571Y-87915714D01*
X54490952Y-87868095D01*
X54443333Y-87772857D01*
X54443333Y-87534761D01*
X54490952Y-87439523D01*
X54538571Y-87391904D01*
X54633809Y-87344285D01*
X54871904Y-87344285D01*
X54967142Y-87391904D01*
X55014761Y-87439523D01*
X55062380Y-87534761D01*
X55062380Y-87772857D01*
X55014761Y-87868095D01*
X54967142Y-87915714D01*
X82002380Y-87439523D02*
X82002380Y-87630000D01*
X82050000Y-87725238D01*
X82097619Y-87772857D01*
X82240476Y-87868095D01*
X82430952Y-87915714D01*
X82811904Y-87915714D01*
X82907142Y-87868095D01*
X82954761Y-87820476D01*
X83002380Y-87725238D01*
X83002380Y-87534761D01*
X82954761Y-87439523D01*
X82907142Y-87391904D01*
X82811904Y-87344285D01*
X82573809Y-87344285D01*
X82478571Y-87391904D01*
X82430952Y-87439523D01*
X82383333Y-87534761D01*
X82383333Y-87725238D01*
X82430952Y-87820476D01*
X82478571Y-87868095D01*
X82573809Y-87915714D01*
X82002380Y-82883333D02*
X82002380Y-82216666D01*
X83002380Y-82645238D01*
X82430952Y-77565238D02*
X82383333Y-77660476D01*
X82335714Y-77708095D01*
X82240476Y-77755714D01*
X82192857Y-77755714D01*
X82097619Y-77708095D01*
X82050000Y-77660476D01*
X82002380Y-77565238D01*
X82002380Y-77374761D01*
X82050000Y-77279523D01*
X82097619Y-77231904D01*
X82192857Y-77184285D01*
X82240476Y-77184285D01*
X82335714Y-77231904D01*
X82383333Y-77279523D01*
X82430952Y-77374761D01*
X82430952Y-77565238D01*
X82478571Y-77660476D01*
X82526190Y-77708095D01*
X82621428Y-77755714D01*
X82811904Y-77755714D01*
X82907142Y-77708095D01*
X82954761Y-77660476D01*
X83002380Y-77565238D01*
X83002380Y-77374761D01*
X82954761Y-77279523D01*
X82907142Y-77231904D01*
X82811904Y-77184285D01*
X82621428Y-77184285D01*
X82526190Y-77231904D01*
X82478571Y-77279523D01*
X82430952Y-77374761D01*
X83002380Y-72580476D02*
X83002380Y-72390000D01*
X82954761Y-72294761D01*
X82907142Y-72247142D01*
X82764285Y-72151904D01*
X82573809Y-72104285D01*
X82192857Y-72104285D01*
X82097619Y-72151904D01*
X82050000Y-72199523D01*
X82002380Y-72294761D01*
X82002380Y-72485238D01*
X82050000Y-72580476D01*
X82097619Y-72628095D01*
X82192857Y-72675714D01*
X82430952Y-72675714D01*
X82526190Y-72628095D01*
X82573809Y-72580476D01*
X82621428Y-72485238D01*
X82621428Y-72294761D01*
X82573809Y-72199523D01*
X82526190Y-72151904D01*
X82430952Y-72104285D01*
X83002380Y-67500476D02*
X83002380Y-68071904D01*
X83002380Y-67786190D02*
X82002380Y-67786190D01*
X82145238Y-67881428D01*
X82240476Y-67976666D01*
X82288095Y-68071904D01*
X82002380Y-66881428D02*
X82002380Y-66786190D01*
X82050000Y-66690952D01*
X82097619Y-66643333D01*
X82192857Y-66595714D01*
X82383333Y-66548095D01*
X82621428Y-66548095D01*
X82811904Y-66595714D01*
X82907142Y-66643333D01*
X82954761Y-66690952D01*
X83002380Y-66786190D01*
X83002380Y-66881428D01*
X82954761Y-66976666D01*
X82907142Y-67024285D01*
X82811904Y-67071904D01*
X82621428Y-67119523D01*
X82383333Y-67119523D01*
X82192857Y-67071904D01*
X82097619Y-67024285D01*
X82050000Y-66976666D01*
X82002380Y-66881428D01*
X127055714Y-125332380D02*
X127055714Y-124332380D01*
X127293809Y-124332380D01*
X127436666Y-124380000D01*
X127531904Y-124475238D01*
X127579523Y-124570476D01*
X127627142Y-124760952D01*
X127627142Y-124903809D01*
X127579523Y-125094285D01*
X127531904Y-125189523D01*
X127436666Y-125284761D01*
X127293809Y-125332380D01*
X127055714Y-125332380D01*
X128579523Y-125332380D02*
X128008095Y-125332380D01*
X128293809Y-125332380D02*
X128293809Y-124332380D01*
X128198571Y-124475238D01*
X128103333Y-124570476D01*
X128008095Y-124618095D01*
X129198571Y-124332380D02*
X129293809Y-124332380D01*
X129389047Y-124380000D01*
X129436666Y-124427619D01*
X129484285Y-124522857D01*
X129531904Y-124713333D01*
X129531904Y-124951428D01*
X129484285Y-125141904D01*
X129436666Y-125237142D01*
X129389047Y-125284761D01*
X129293809Y-125332380D01*
X129198571Y-125332380D01*
X129103333Y-125284761D01*
X129055714Y-125237142D01*
X129008095Y-125141904D01*
X128960476Y-124951428D01*
X128960476Y-124713333D01*
X129008095Y-124522857D01*
X129055714Y-124427619D01*
X129103333Y-124380000D01*
X129198571Y-124332380D01*
X124198095Y-125652380D02*
X124198095Y-124652380D01*
X124769523Y-125652380D02*
X124340952Y-125080952D01*
X124769523Y-124652380D02*
X124198095Y-125223809D01*
X178427142Y-77752380D02*
X178093809Y-77276190D01*
X177855714Y-77752380D02*
X177855714Y-76752380D01*
X178236666Y-76752380D01*
X178331904Y-76800000D01*
X178379523Y-76847619D01*
X178427142Y-76942857D01*
X178427142Y-77085714D01*
X178379523Y-77180952D01*
X178331904Y-77228571D01*
X178236666Y-77276190D01*
X177855714Y-77276190D01*
X178808095Y-76847619D02*
X178855714Y-76800000D01*
X178950952Y-76752380D01*
X179189047Y-76752380D01*
X179284285Y-76800000D01*
X179331904Y-76847619D01*
X179379523Y-76942857D01*
X179379523Y-77038095D01*
X179331904Y-77180952D01*
X178760476Y-77752380D01*
X179379523Y-77752380D01*
X180331904Y-77752380D02*
X179760476Y-77752380D01*
X180046190Y-77752380D02*
X180046190Y-76752380D01*
X179950952Y-76895238D01*
X179855714Y-76990476D01*
X179760476Y-77038095D01*
X102806666Y-132694761D02*
X102949523Y-132742380D01*
X103187619Y-132742380D01*
X103282857Y-132694761D01*
X103330476Y-132647142D01*
X103378095Y-132551904D01*
X103378095Y-132456666D01*
X103330476Y-132361428D01*
X103282857Y-132313809D01*
X103187619Y-132266190D01*
X102997142Y-132218571D01*
X102901904Y-132170952D01*
X102854285Y-132123333D01*
X102806666Y-132028095D01*
X102806666Y-131932857D01*
X102854285Y-131837619D01*
X102901904Y-131790000D01*
X102997142Y-131742380D01*
X103235238Y-131742380D01*
X103378095Y-131790000D01*
X103711428Y-131742380D02*
X103949523Y-132742380D01*
X104140000Y-132028095D01*
X104330476Y-132742380D01*
X104568571Y-131742380D01*
X104854285Y-131742380D02*
X105473333Y-131742380D01*
X105140000Y-132123333D01*
X105282857Y-132123333D01*
X105378095Y-132170952D01*
X105425714Y-132218571D01*
X105473333Y-132313809D01*
X105473333Y-132551904D01*
X105425714Y-132647142D01*
X105378095Y-132694761D01*
X105282857Y-132742380D01*
X104997142Y-132742380D01*
X104901904Y-132694761D01*
X104854285Y-132647142D01*
X107886666Y-132694761D02*
X108029523Y-132742380D01*
X108267619Y-132742380D01*
X108362857Y-132694761D01*
X108410476Y-132647142D01*
X108458095Y-132551904D01*
X108458095Y-132456666D01*
X108410476Y-132361428D01*
X108362857Y-132313809D01*
X108267619Y-132266190D01*
X108077142Y-132218571D01*
X107981904Y-132170952D01*
X107934285Y-132123333D01*
X107886666Y-132028095D01*
X107886666Y-131932857D01*
X107934285Y-131837619D01*
X107981904Y-131790000D01*
X108077142Y-131742380D01*
X108315238Y-131742380D01*
X108458095Y-131790000D01*
X108791428Y-131742380D02*
X109029523Y-132742380D01*
X109220000Y-132028095D01*
X109410476Y-132742380D01*
X109648571Y-131742380D01*
X109981904Y-131837619D02*
X110029523Y-131790000D01*
X110124761Y-131742380D01*
X110362857Y-131742380D01*
X110458095Y-131790000D01*
X110505714Y-131837619D01*
X110553333Y-131932857D01*
X110553333Y-132028095D01*
X110505714Y-132170952D01*
X109934285Y-132742380D01*
X110553333Y-132742380D01*
X97621667Y-132694761D02*
X97764524Y-132742380D01*
X98002620Y-132742380D01*
X98097858Y-132694761D01*
X98145477Y-132647142D01*
X98193096Y-132551904D01*
X98193096Y-132456666D01*
X98145477Y-132361428D01*
X98097858Y-132313809D01*
X98002620Y-132266190D01*
X97812143Y-132218571D01*
X97716905Y-132170952D01*
X97669286Y-132123333D01*
X97621667Y-132028095D01*
X97621667Y-131932857D01*
X97669286Y-131837619D01*
X97716905Y-131790000D01*
X97812143Y-131742380D01*
X98050239Y-131742380D01*
X98193096Y-131790000D01*
X98526429Y-131742380D02*
X98764524Y-132742380D01*
X98955001Y-132028095D01*
X99145477Y-132742380D01*
X99383572Y-131742380D01*
X100288334Y-132742380D02*
X99716905Y-132742380D01*
X100002620Y-132742380D02*
X100002620Y-131742380D01*
X99907381Y-131885238D01*
X99812143Y-131980476D01*
X99716905Y-132028095D01*
X106962380Y-126372857D02*
X106486190Y-126706190D01*
X106962380Y-126944285D02*
X105962380Y-126944285D01*
X105962380Y-126563333D01*
X106010000Y-126468095D01*
X106057619Y-126420476D01*
X106152857Y-126372857D01*
X106295714Y-126372857D01*
X106390952Y-126420476D01*
X106438571Y-126468095D01*
X106486190Y-126563333D01*
X106486190Y-126944285D01*
X106057619Y-125991904D02*
X106010000Y-125944285D01*
X105962380Y-125849047D01*
X105962380Y-125610952D01*
X106010000Y-125515714D01*
X106057619Y-125468095D01*
X106152857Y-125420476D01*
X106248095Y-125420476D01*
X106390952Y-125468095D01*
X106962380Y-126039523D01*
X106962380Y-125420476D01*
X105962380Y-124801428D02*
X105962380Y-124706190D01*
X106010000Y-124610952D01*
X106057619Y-124563333D01*
X106152857Y-124515714D01*
X106343333Y-124468095D01*
X106581428Y-124468095D01*
X106771904Y-124515714D01*
X106867142Y-124563333D01*
X106914761Y-124610952D01*
X106962380Y-124706190D01*
X106962380Y-124801428D01*
X106914761Y-124896666D01*
X106867142Y-124944285D01*
X106771904Y-124991904D01*
X106581428Y-125039523D01*
X106343333Y-125039523D01*
X106152857Y-124991904D01*
X106057619Y-124944285D01*
X106010000Y-124896666D01*
X105962380Y-124801428D01*
X112042380Y-126372857D02*
X111566190Y-126706190D01*
X112042380Y-126944285D02*
X111042380Y-126944285D01*
X111042380Y-126563333D01*
X111090000Y-126468095D01*
X111137619Y-126420476D01*
X111232857Y-126372857D01*
X111375714Y-126372857D01*
X111470952Y-126420476D01*
X111518571Y-126468095D01*
X111566190Y-126563333D01*
X111566190Y-126944285D01*
X112042380Y-125420476D02*
X112042380Y-125991904D01*
X112042380Y-125706190D02*
X111042380Y-125706190D01*
X111185238Y-125801428D01*
X111280476Y-125896666D01*
X111328095Y-125991904D01*
X112042380Y-124944285D02*
X112042380Y-124753809D01*
X111994761Y-124658571D01*
X111947142Y-124610952D01*
X111804285Y-124515714D01*
X111613809Y-124468095D01*
X111232857Y-124468095D01*
X111137619Y-124515714D01*
X111090000Y-124563333D01*
X111042380Y-124658571D01*
X111042380Y-124849047D01*
X111090000Y-124944285D01*
X111137619Y-124991904D01*
X111232857Y-125039523D01*
X111470952Y-125039523D01*
X111566190Y-124991904D01*
X111613809Y-124944285D01*
X111661428Y-124849047D01*
X111661428Y-124658571D01*
X111613809Y-124563333D01*
X111566190Y-124515714D01*
X111470952Y-124468095D01*
X101882380Y-126372857D02*
X101406190Y-126706190D01*
X101882380Y-126944285D02*
X100882380Y-126944285D01*
X100882380Y-126563333D01*
X100930000Y-126468095D01*
X100977619Y-126420476D01*
X101072857Y-126372857D01*
X101215714Y-126372857D01*
X101310952Y-126420476D01*
X101358571Y-126468095D01*
X101406190Y-126563333D01*
X101406190Y-126944285D01*
X101882380Y-125420476D02*
X101882380Y-125991904D01*
X101882380Y-125706190D02*
X100882380Y-125706190D01*
X101025238Y-125801428D01*
X101120476Y-125896666D01*
X101168095Y-125991904D01*
X101310952Y-124849047D02*
X101263333Y-124944285D01*
X101215714Y-124991904D01*
X101120476Y-125039523D01*
X101072857Y-125039523D01*
X100977619Y-124991904D01*
X100930000Y-124944285D01*
X100882380Y-124849047D01*
X100882380Y-124658571D01*
X100930000Y-124563333D01*
X100977619Y-124515714D01*
X101072857Y-124468095D01*
X101120476Y-124468095D01*
X101215714Y-124515714D01*
X101263333Y-124563333D01*
X101310952Y-124658571D01*
X101310952Y-124849047D01*
X101358571Y-124944285D01*
X101406190Y-124991904D01*
X101501428Y-125039523D01*
X101691904Y-125039523D01*
X101787142Y-124991904D01*
X101834761Y-124944285D01*
X101882380Y-124849047D01*
X101882380Y-124658571D01*
X101834761Y-124563333D01*
X101787142Y-124515714D01*
X101691904Y-124468095D01*
X101501428Y-124468095D01*
X101406190Y-124515714D01*
X101358571Y-124563333D01*
X101310952Y-124658571D01*
X172692380Y-116308095D02*
X171692380Y-116308095D01*
X171692380Y-116070000D01*
X171740000Y-115927142D01*
X171835238Y-115831904D01*
X171930476Y-115784285D01*
X172120952Y-115736666D01*
X172263809Y-115736666D01*
X172454285Y-115784285D01*
X172549523Y-115831904D01*
X172644761Y-115927142D01*
X172692380Y-116070000D01*
X172692380Y-116308095D01*
X171692380Y-115403333D02*
X171692380Y-114736666D01*
X172692380Y-115165238D01*
X175232380Y-61698095D02*
X174232380Y-61698095D01*
X174232380Y-61460000D01*
X174280000Y-61317142D01*
X174375238Y-61221904D01*
X174470476Y-61174285D01*
X174660952Y-61126666D01*
X174803809Y-61126666D01*
X174994285Y-61174285D01*
X175089523Y-61221904D01*
X175184761Y-61317142D01*
X175232380Y-61460000D01*
X175232380Y-61698095D01*
X174232380Y-60269523D02*
X174232380Y-60460000D01*
X174280000Y-60555238D01*
X174327619Y-60602857D01*
X174470476Y-60698095D01*
X174660952Y-60745714D01*
X175041904Y-60745714D01*
X175137142Y-60698095D01*
X175184761Y-60650476D01*
X175232380Y-60555238D01*
X175232380Y-60364761D01*
X175184761Y-60269523D01*
X175137142Y-60221904D01*
X175041904Y-60174285D01*
X174803809Y-60174285D01*
X174708571Y-60221904D01*
X174660952Y-60269523D01*
X174613333Y-60364761D01*
X174613333Y-60555238D01*
X174660952Y-60650476D01*
X174708571Y-60698095D01*
X174803809Y-60745714D01*
X154297142Y-100612380D02*
X153963809Y-100136190D01*
X153725714Y-100612380D02*
X153725714Y-99612380D01*
X154106666Y-99612380D01*
X154201904Y-99660000D01*
X154249523Y-99707619D01*
X154297142Y-99802857D01*
X154297142Y-99945714D01*
X154249523Y-100040952D01*
X154201904Y-100088571D01*
X154106666Y-100136190D01*
X153725714Y-100136190D01*
X155249523Y-100612380D02*
X154678095Y-100612380D01*
X154963809Y-100612380D02*
X154963809Y-99612380D01*
X154868571Y-99755238D01*
X154773333Y-99850476D01*
X154678095Y-99898095D01*
X155582857Y-99612380D02*
X156249523Y-99612380D01*
X155820952Y-100612380D01*
X196112380Y-132453333D02*
X196826666Y-132453333D01*
X196969523Y-132500952D01*
X197064761Y-132596190D01*
X197112380Y-132739047D01*
X197112380Y-132834285D01*
X196112380Y-131500952D02*
X196112380Y-131977142D01*
X196588571Y-132024761D01*
X196540952Y-131977142D01*
X196493333Y-131881904D01*
X196493333Y-131643809D01*
X196540952Y-131548571D01*
X196588571Y-131500952D01*
X196683809Y-131453333D01*
X196921904Y-131453333D01*
X197017142Y-131500952D01*
X197064761Y-131548571D01*
X197112380Y-131643809D01*
X197112380Y-131881904D01*
X197064761Y-131977142D01*
X197017142Y-132024761D01*
X200767142Y-139191428D02*
X200767142Y-138048571D01*
X200767142Y-126191428D02*
X200767142Y-125048571D01*
X201338571Y-125620000D02*
X200195714Y-125620000D01*
X176562380Y-131548095D02*
X175562380Y-131548095D01*
X175562380Y-131310000D01*
X175610000Y-131167142D01*
X175705238Y-131071904D01*
X175800476Y-131024285D01*
X175990952Y-130976666D01*
X176133809Y-130976666D01*
X176324285Y-131024285D01*
X176419523Y-131071904D01*
X176514761Y-131167142D01*
X176562380Y-131310000D01*
X176562380Y-131548095D01*
X176562380Y-130500476D02*
X176562380Y-130310000D01*
X176514761Y-130214761D01*
X176467142Y-130167142D01*
X176324285Y-130071904D01*
X176133809Y-130024285D01*
X175752857Y-130024285D01*
X175657619Y-130071904D01*
X175610000Y-130119523D01*
X175562380Y-130214761D01*
X175562380Y-130405238D01*
X175610000Y-130500476D01*
X175657619Y-130548095D01*
X175752857Y-130595714D01*
X175990952Y-130595714D01*
X176086190Y-130548095D01*
X176133809Y-130500476D01*
X176181428Y-130405238D01*
X176181428Y-130214761D01*
X176133809Y-130119523D01*
X176086190Y-130071904D01*
X175990952Y-130024285D01*
X176242380Y-127261904D02*
X175242380Y-127261904D01*
X176242380Y-126690476D02*
X175670952Y-127119047D01*
X175242380Y-126690476D02*
X175813809Y-127261904D01*
X154297142Y-91722380D02*
X153963809Y-91246190D01*
X153725714Y-91722380D02*
X153725714Y-90722380D01*
X154106666Y-90722380D01*
X154201904Y-90770000D01*
X154249523Y-90817619D01*
X154297142Y-90912857D01*
X154297142Y-91055714D01*
X154249523Y-91150952D01*
X154201904Y-91198571D01*
X154106666Y-91246190D01*
X153725714Y-91246190D01*
X155249523Y-91722380D02*
X154678095Y-91722380D01*
X154963809Y-91722380D02*
X154963809Y-90722380D01*
X154868571Y-90865238D01*
X154773333Y-90960476D01*
X154678095Y-91008095D01*
X156106666Y-90722380D02*
X155916190Y-90722380D01*
X155820952Y-90770000D01*
X155773333Y-90817619D01*
X155678095Y-90960476D01*
X155630476Y-91150952D01*
X155630476Y-91531904D01*
X155678095Y-91627142D01*
X155725714Y-91674761D01*
X155820952Y-91722380D01*
X156011428Y-91722380D01*
X156106666Y-91674761D01*
X156154285Y-91627142D01*
X156201904Y-91531904D01*
X156201904Y-91293809D01*
X156154285Y-91198571D01*
X156106666Y-91150952D01*
X156011428Y-91103333D01*
X155820952Y-91103333D01*
X155725714Y-91150952D01*
X155678095Y-91198571D01*
X155630476Y-91293809D01*
X154297142Y-83172380D02*
X153963809Y-82696190D01*
X153725714Y-83172380D02*
X153725714Y-82172380D01*
X154106666Y-82172380D01*
X154201904Y-82220000D01*
X154249523Y-82267619D01*
X154297142Y-82362857D01*
X154297142Y-82505714D01*
X154249523Y-82600952D01*
X154201904Y-82648571D01*
X154106666Y-82696190D01*
X153725714Y-82696190D01*
X155249523Y-83172380D02*
X154678095Y-83172380D01*
X154963809Y-83172380D02*
X154963809Y-82172380D01*
X154868571Y-82315238D01*
X154773333Y-82410476D01*
X154678095Y-82458095D01*
X156154285Y-82172380D02*
X155678095Y-82172380D01*
X155630476Y-82648571D01*
X155678095Y-82600952D01*
X155773333Y-82553333D01*
X156011428Y-82553333D01*
X156106666Y-82600952D01*
X156154285Y-82648571D01*
X156201904Y-82743809D01*
X156201904Y-82981904D01*
X156154285Y-83077142D01*
X156106666Y-83124761D01*
X156011428Y-83172380D01*
X155773333Y-83172380D01*
X155678095Y-83124761D01*
X155630476Y-83077142D01*
X164457142Y-122202380D02*
X164123809Y-121726190D01*
X163885714Y-122202380D02*
X163885714Y-121202380D01*
X164266666Y-121202380D01*
X164361904Y-121250000D01*
X164409523Y-121297619D01*
X164457142Y-121392857D01*
X164457142Y-121535714D01*
X164409523Y-121630952D01*
X164361904Y-121678571D01*
X164266666Y-121726190D01*
X163885714Y-121726190D01*
X165409523Y-122202380D02*
X164838095Y-122202380D01*
X165123809Y-122202380D02*
X165123809Y-121202380D01*
X165028571Y-121345238D01*
X164933333Y-121440476D01*
X164838095Y-121488095D01*
X166266666Y-121535714D02*
X166266666Y-122202380D01*
X166028571Y-121154761D02*
X165790476Y-121869047D01*
X166409523Y-121869047D01*
X154297142Y-90792380D02*
X153963809Y-90316190D01*
X153725714Y-90792380D02*
X153725714Y-89792380D01*
X154106666Y-89792380D01*
X154201904Y-89840000D01*
X154249523Y-89887619D01*
X154297142Y-89982857D01*
X154297142Y-90125714D01*
X154249523Y-90220952D01*
X154201904Y-90268571D01*
X154106666Y-90316190D01*
X153725714Y-90316190D01*
X155249523Y-90792380D02*
X154678095Y-90792380D01*
X154963809Y-90792380D02*
X154963809Y-89792380D01*
X154868571Y-89935238D01*
X154773333Y-90030476D01*
X154678095Y-90078095D01*
X155582857Y-89792380D02*
X156201904Y-89792380D01*
X155868571Y-90173333D01*
X156011428Y-90173333D01*
X156106666Y-90220952D01*
X156154285Y-90268571D01*
X156201904Y-90363809D01*
X156201904Y-90601904D01*
X156154285Y-90697142D01*
X156106666Y-90744761D01*
X156011428Y-90792380D01*
X155725714Y-90792380D01*
X155630476Y-90744761D01*
X155582857Y-90697142D01*
X168267142Y-63782380D02*
X167933809Y-63306190D01*
X167695714Y-63782380D02*
X167695714Y-62782380D01*
X168076666Y-62782380D01*
X168171904Y-62830000D01*
X168219523Y-62877619D01*
X168267142Y-62972857D01*
X168267142Y-63115714D01*
X168219523Y-63210952D01*
X168171904Y-63258571D01*
X168076666Y-63306190D01*
X167695714Y-63306190D01*
X169219523Y-63782380D02*
X168648095Y-63782380D01*
X168933809Y-63782380D02*
X168933809Y-62782380D01*
X168838571Y-62925238D01*
X168743333Y-63020476D01*
X168648095Y-63068095D01*
X169600476Y-62877619D02*
X169648095Y-62830000D01*
X169743333Y-62782380D01*
X169981428Y-62782380D01*
X170076666Y-62830000D01*
X170124285Y-62877619D01*
X170171904Y-62972857D01*
X170171904Y-63068095D01*
X170124285Y-63210952D01*
X169552857Y-63782380D01*
X170171904Y-63782380D01*
X154297142Y-79362380D02*
X153963809Y-78886190D01*
X153725714Y-79362380D02*
X153725714Y-78362380D01*
X154106666Y-78362380D01*
X154201904Y-78410000D01*
X154249523Y-78457619D01*
X154297142Y-78552857D01*
X154297142Y-78695714D01*
X154249523Y-78790952D01*
X154201904Y-78838571D01*
X154106666Y-78886190D01*
X153725714Y-78886190D01*
X155249523Y-79362380D02*
X154678095Y-79362380D01*
X154963809Y-79362380D02*
X154963809Y-78362380D01*
X154868571Y-78505238D01*
X154773333Y-78600476D01*
X154678095Y-78648095D01*
X156201904Y-79362380D02*
X155630476Y-79362380D01*
X155916190Y-79362380D02*
X155916190Y-78362380D01*
X155820952Y-78505238D01*
X155725714Y-78600476D01*
X155630476Y-78648095D01*
X194842380Y-103243333D02*
X195556666Y-103243333D01*
X195699523Y-103290952D01*
X195794761Y-103386190D01*
X195842380Y-103529047D01*
X195842380Y-103624285D01*
X195175714Y-102338571D02*
X195842380Y-102338571D01*
X194794761Y-102576666D02*
X195509047Y-102814761D01*
X195509047Y-102195714D01*
X199497142Y-109981428D02*
X199497142Y-108838571D01*
X199497142Y-96981428D02*
X199497142Y-95838571D01*
X200068571Y-96410000D02*
X198925714Y-96410000D01*
X204112380Y-76573333D02*
X204826666Y-76573333D01*
X204969523Y-76620952D01*
X205064761Y-76716190D01*
X205112380Y-76859047D01*
X205112380Y-76954285D01*
X204112380Y-76192380D02*
X204112380Y-75573333D01*
X204493333Y-75906666D01*
X204493333Y-75763809D01*
X204540952Y-75668571D01*
X204588571Y-75620952D01*
X204683809Y-75573333D01*
X204921904Y-75573333D01*
X205017142Y-75620952D01*
X205064761Y-75668571D01*
X205112380Y-75763809D01*
X205112380Y-76049523D01*
X205064761Y-76144761D01*
X205017142Y-76192380D01*
X200767142Y-70311428D02*
X200767142Y-69168571D01*
X200767142Y-83311428D02*
X200767142Y-82168571D01*
X201338571Y-82740000D02*
X200195714Y-82740000D01*
X176562380Y-99798095D02*
X175562380Y-99798095D01*
X175562380Y-99560000D01*
X175610000Y-99417142D01*
X175705238Y-99321904D01*
X175800476Y-99274285D01*
X175990952Y-99226666D01*
X176133809Y-99226666D01*
X176324285Y-99274285D01*
X176419523Y-99321904D01*
X176514761Y-99417142D01*
X176562380Y-99560000D01*
X176562380Y-99798095D01*
X175990952Y-98655238D02*
X175943333Y-98750476D01*
X175895714Y-98798095D01*
X175800476Y-98845714D01*
X175752857Y-98845714D01*
X175657619Y-98798095D01*
X175610000Y-98750476D01*
X175562380Y-98655238D01*
X175562380Y-98464761D01*
X175610000Y-98369523D01*
X175657619Y-98321904D01*
X175752857Y-98274285D01*
X175800476Y-98274285D01*
X175895714Y-98321904D01*
X175943333Y-98369523D01*
X175990952Y-98464761D01*
X175990952Y-98655238D01*
X176038571Y-98750476D01*
X176086190Y-98798095D01*
X176181428Y-98845714D01*
X176371904Y-98845714D01*
X176467142Y-98798095D01*
X176514761Y-98750476D01*
X176562380Y-98655238D01*
X176562380Y-98464761D01*
X176514761Y-98369523D01*
X176467142Y-98321904D01*
X176371904Y-98274285D01*
X176181428Y-98274285D01*
X176086190Y-98321904D01*
X176038571Y-98369523D01*
X175990952Y-98464761D01*
X176242380Y-95511904D02*
X175242380Y-95511904D01*
X176242380Y-94940476D02*
X175670952Y-95369047D01*
X175242380Y-94940476D02*
X175813809Y-95511904D01*
X109747142Y-59816666D02*
X109794761Y-59864285D01*
X109842380Y-60007142D01*
X109842380Y-60102380D01*
X109794761Y-60245238D01*
X109699523Y-60340476D01*
X109604285Y-60388095D01*
X109413809Y-60435714D01*
X109270952Y-60435714D01*
X109080476Y-60388095D01*
X108985238Y-60340476D01*
X108890000Y-60245238D01*
X108842380Y-60102380D01*
X108842380Y-60007142D01*
X108890000Y-59864285D01*
X108937619Y-59816666D01*
X109842380Y-58864285D02*
X109842380Y-59435714D01*
X109842380Y-59150000D02*
X108842380Y-59150000D01*
X108985238Y-59245238D01*
X109080476Y-59340476D01*
X109128095Y-59435714D01*
X70913333Y-129727142D02*
X70865714Y-129774761D01*
X70722857Y-129822380D01*
X70627619Y-129822380D01*
X70484761Y-129774761D01*
X70389523Y-129679523D01*
X70341904Y-129584285D01*
X70294285Y-129393809D01*
X70294285Y-129250952D01*
X70341904Y-129060476D01*
X70389523Y-128965238D01*
X70484761Y-128870000D01*
X70627619Y-128822380D01*
X70722857Y-128822380D01*
X70865714Y-128870000D01*
X70913333Y-128917619D01*
X71770476Y-129155714D02*
X71770476Y-129822380D01*
X71532380Y-128774761D02*
X71294285Y-129489047D01*
X71913333Y-129489047D01*
X92503333Y-109407142D02*
X92455714Y-109454761D01*
X92312857Y-109502380D01*
X92217619Y-109502380D01*
X92074761Y-109454761D01*
X91979523Y-109359523D01*
X91931904Y-109264285D01*
X91884285Y-109073809D01*
X91884285Y-108930952D01*
X91931904Y-108740476D01*
X91979523Y-108645238D01*
X92074761Y-108550000D01*
X92217619Y-108502380D01*
X92312857Y-108502380D01*
X92455714Y-108550000D01*
X92503333Y-108597619D01*
X92836666Y-108502380D02*
X93455714Y-108502380D01*
X93122380Y-108883333D01*
X93265238Y-108883333D01*
X93360476Y-108930952D01*
X93408095Y-108978571D01*
X93455714Y-109073809D01*
X93455714Y-109311904D01*
X93408095Y-109407142D01*
X93360476Y-109454761D01*
X93265238Y-109502380D01*
X92979523Y-109502380D01*
X92884285Y-109454761D01*
X92836666Y-109407142D01*
X121177142Y-62356666D02*
X121224761Y-62404285D01*
X121272380Y-62547142D01*
X121272380Y-62642380D01*
X121224761Y-62785238D01*
X121129523Y-62880476D01*
X121034285Y-62928095D01*
X120843809Y-62975714D01*
X120700952Y-62975714D01*
X120510476Y-62928095D01*
X120415238Y-62880476D01*
X120320000Y-62785238D01*
X120272380Y-62642380D01*
X120272380Y-62547142D01*
X120320000Y-62404285D01*
X120367619Y-62356666D01*
X120367619Y-61975714D02*
X120320000Y-61928095D01*
X120272380Y-61832857D01*
X120272380Y-61594761D01*
X120320000Y-61499523D01*
X120367619Y-61451904D01*
X120462857Y-61404285D01*
X120558095Y-61404285D01*
X120700952Y-61451904D01*
X121272380Y-62023333D01*
X121272380Y-61404285D01*
X53622380Y-135262857D02*
X53146190Y-135596190D01*
X53622380Y-135834285D02*
X52622380Y-135834285D01*
X52622380Y-135453333D01*
X52670000Y-135358095D01*
X52717619Y-135310476D01*
X52812857Y-135262857D01*
X52955714Y-135262857D01*
X53050952Y-135310476D01*
X53098571Y-135358095D01*
X53146190Y-135453333D01*
X53146190Y-135834285D01*
X53622380Y-134310476D02*
X53622380Y-134881904D01*
X53622380Y-134596190D02*
X52622380Y-134596190D01*
X52765238Y-134691428D01*
X52860476Y-134786666D01*
X52908095Y-134881904D01*
X52622380Y-133691428D02*
X52622380Y-133596190D01*
X52670000Y-133500952D01*
X52717619Y-133453333D01*
X52812857Y-133405714D01*
X53003333Y-133358095D01*
X53241428Y-133358095D01*
X53431904Y-133405714D01*
X53527142Y-133453333D01*
X53574761Y-133500952D01*
X53622380Y-133596190D01*
X53622380Y-133691428D01*
X53574761Y-133786666D01*
X53527142Y-133834285D01*
X53431904Y-133881904D01*
X53241428Y-133929523D01*
X53003333Y-133929523D01*
X52812857Y-133881904D01*
X52717619Y-133834285D01*
X52670000Y-133786666D01*
X52622380Y-133691428D01*
X105442380Y-93448095D02*
X104442380Y-93448095D01*
X104442380Y-93210000D01*
X104490000Y-93067142D01*
X104585238Y-92971904D01*
X104680476Y-92924285D01*
X104870952Y-92876666D01*
X105013809Y-92876666D01*
X105204285Y-92924285D01*
X105299523Y-92971904D01*
X105394761Y-93067142D01*
X105442380Y-93210000D01*
X105442380Y-93448095D01*
X104442380Y-91971904D02*
X104442380Y-92448095D01*
X104918571Y-92495714D01*
X104870952Y-92448095D01*
X104823333Y-92352857D01*
X104823333Y-92114761D01*
X104870952Y-92019523D01*
X104918571Y-91971904D01*
X105013809Y-91924285D01*
X105251904Y-91924285D01*
X105347142Y-91971904D01*
X105394761Y-92019523D01*
X105442380Y-92114761D01*
X105442380Y-92352857D01*
X105394761Y-92448095D01*
X105347142Y-92495714D01*
X105122380Y-89161904D02*
X104122380Y-89161904D01*
X105122380Y-88590476D02*
X104550952Y-89019047D01*
X104122380Y-88590476D02*
X104693809Y-89161904D01*
X107982380Y-106148095D02*
X106982380Y-106148095D01*
X106982380Y-105910000D01*
X107030000Y-105767142D01*
X107125238Y-105671904D01*
X107220476Y-105624285D01*
X107410952Y-105576666D01*
X107553809Y-105576666D01*
X107744285Y-105624285D01*
X107839523Y-105671904D01*
X107934761Y-105767142D01*
X107982380Y-105910000D01*
X107982380Y-106148095D01*
X107315714Y-104719523D02*
X107982380Y-104719523D01*
X106934761Y-104957619D02*
X107649047Y-105195714D01*
X107649047Y-104576666D01*
X107662380Y-101861904D02*
X106662380Y-101861904D01*
X107662380Y-101290476D02*
X107090952Y-101719047D01*
X106662380Y-101290476D02*
X107233809Y-101861904D01*
X113062380Y-93448095D02*
X112062380Y-93448095D01*
X112062380Y-93210000D01*
X112110000Y-93067142D01*
X112205238Y-92971904D01*
X112300476Y-92924285D01*
X112490952Y-92876666D01*
X112633809Y-92876666D01*
X112824285Y-92924285D01*
X112919523Y-92971904D01*
X113014761Y-93067142D01*
X113062380Y-93210000D01*
X113062380Y-93448095D01*
X112062380Y-92543333D02*
X112062380Y-91924285D01*
X112443333Y-92257619D01*
X112443333Y-92114761D01*
X112490952Y-92019523D01*
X112538571Y-91971904D01*
X112633809Y-91924285D01*
X112871904Y-91924285D01*
X112967142Y-91971904D01*
X113014761Y-92019523D01*
X113062380Y-92114761D01*
X113062380Y-92400476D01*
X113014761Y-92495714D01*
X112967142Y-92543333D01*
X112742380Y-89161904D02*
X111742380Y-89161904D01*
X112742380Y-88590476D02*
X112170952Y-89019047D01*
X111742380Y-88590476D02*
X112313809Y-89161904D01*
X109252380Y-93448095D02*
X108252380Y-93448095D01*
X108252380Y-93210000D01*
X108300000Y-93067142D01*
X108395238Y-92971904D01*
X108490476Y-92924285D01*
X108680952Y-92876666D01*
X108823809Y-92876666D01*
X109014285Y-92924285D01*
X109109523Y-92971904D01*
X109204761Y-93067142D01*
X109252380Y-93210000D01*
X109252380Y-93448095D01*
X108347619Y-92495714D02*
X108300000Y-92448095D01*
X108252380Y-92352857D01*
X108252380Y-92114761D01*
X108300000Y-92019523D01*
X108347619Y-91971904D01*
X108442857Y-91924285D01*
X108538095Y-91924285D01*
X108680952Y-91971904D01*
X109252380Y-92543333D01*
X109252380Y-91924285D01*
X108932380Y-89161904D02*
X107932380Y-89161904D01*
X108932380Y-88590476D02*
X108360952Y-89019047D01*
X107932380Y-88590476D02*
X108503809Y-89161904D01*
X110402380Y-79501904D02*
X111211904Y-79501904D01*
X111307142Y-79454285D01*
X111354761Y-79406666D01*
X111402380Y-79311428D01*
X111402380Y-79120952D01*
X111354761Y-79025714D01*
X111307142Y-78978095D01*
X111211904Y-78930476D01*
X110402380Y-78930476D01*
X110402380Y-78549523D02*
X110402380Y-77930476D01*
X110783333Y-78263809D01*
X110783333Y-78120952D01*
X110830952Y-78025714D01*
X110878571Y-77978095D01*
X110973809Y-77930476D01*
X111211904Y-77930476D01*
X111307142Y-77978095D01*
X111354761Y-78025714D01*
X111402380Y-78120952D01*
X111402380Y-78406666D01*
X111354761Y-78501904D01*
X111307142Y-78549523D01*
X80518095Y-113962380D02*
X80518095Y-114771904D01*
X80565714Y-114867142D01*
X80613333Y-114914761D01*
X80708571Y-114962380D01*
X80899047Y-114962380D01*
X80994285Y-114914761D01*
X81041904Y-114867142D01*
X81089523Y-114771904D01*
X81089523Y-113962380D01*
X82089523Y-114962380D02*
X81518095Y-114962380D01*
X81803809Y-114962380D02*
X81803809Y-113962380D01*
X81708571Y-114105238D01*
X81613333Y-114200476D01*
X81518095Y-114248095D01*
X74062380Y-112901904D02*
X74062380Y-112330476D01*
X75062380Y-112616190D02*
X74062380Y-112616190D01*
X75062380Y-111425714D02*
X74586190Y-111759047D01*
X75062380Y-111997142D02*
X74062380Y-111997142D01*
X74062380Y-111616190D01*
X74110000Y-111520952D01*
X74157619Y-111473333D01*
X74252857Y-111425714D01*
X74395714Y-111425714D01*
X74490952Y-111473333D01*
X74538571Y-111520952D01*
X74586190Y-111616190D01*
X74586190Y-111997142D01*
X74157619Y-111044761D02*
X74110000Y-110997142D01*
X74062380Y-110901904D01*
X74062380Y-110663809D01*
X74110000Y-110568571D01*
X74157619Y-110520952D01*
X74252857Y-110473333D01*
X74348095Y-110473333D01*
X74490952Y-110520952D01*
X75062380Y-111092380D01*
X75062380Y-110473333D01*
X52562380Y-103854285D02*
X52562380Y-104425714D01*
X52562380Y-104140000D02*
X51562380Y-104140000D01*
X51705238Y-104235238D01*
X51800476Y-104330476D01*
X51848095Y-104425714D01*
X51657619Y-109425714D02*
X51610000Y-109378095D01*
X51562380Y-109282857D01*
X51562380Y-109044761D01*
X51610000Y-108949523D01*
X51657619Y-108901904D01*
X51752857Y-108854285D01*
X51848095Y-108854285D01*
X51990952Y-108901904D01*
X52562380Y-109473333D01*
X52562380Y-108854285D01*
X51562380Y-114473333D02*
X51562380Y-113854285D01*
X51943333Y-114187619D01*
X51943333Y-114044761D01*
X51990952Y-113949523D01*
X52038571Y-113901904D01*
X52133809Y-113854285D01*
X52371904Y-113854285D01*
X52467142Y-113901904D01*
X52514761Y-113949523D01*
X52562380Y-114044761D01*
X52562380Y-114330476D01*
X52514761Y-114425714D01*
X52467142Y-114473333D01*
X51895714Y-118949523D02*
X52562380Y-118949523D01*
X51514761Y-119187619D02*
X52229047Y-119425714D01*
X52229047Y-118806666D01*
X71062380Y-118901904D02*
X71062380Y-119378095D01*
X71538571Y-119425714D01*
X71490952Y-119378095D01*
X71443333Y-119282857D01*
X71443333Y-119044761D01*
X71490952Y-118949523D01*
X71538571Y-118901904D01*
X71633809Y-118854285D01*
X71871904Y-118854285D01*
X71967142Y-118901904D01*
X72014761Y-118949523D01*
X72062380Y-119044761D01*
X72062380Y-119282857D01*
X72014761Y-119378095D01*
X71967142Y-119425714D01*
X71062380Y-113949523D02*
X71062380Y-114140000D01*
X71110000Y-114235238D01*
X71157619Y-114282857D01*
X71300476Y-114378095D01*
X71490952Y-114425714D01*
X71871904Y-114425714D01*
X71967142Y-114378095D01*
X72014761Y-114330476D01*
X72062380Y-114235238D01*
X72062380Y-114044761D01*
X72014761Y-113949523D01*
X71967142Y-113901904D01*
X71871904Y-113854285D01*
X71633809Y-113854285D01*
X71538571Y-113901904D01*
X71490952Y-113949523D01*
X71443333Y-114044761D01*
X71443333Y-114235238D01*
X71490952Y-114330476D01*
X71538571Y-114378095D01*
X71633809Y-114425714D01*
X71062380Y-109473333D02*
X71062380Y-108806666D01*
X72062380Y-109235238D01*
X71490952Y-104235238D02*
X71443333Y-104330476D01*
X71395714Y-104378095D01*
X71300476Y-104425714D01*
X71252857Y-104425714D01*
X71157619Y-104378095D01*
X71110000Y-104330476D01*
X71062380Y-104235238D01*
X71062380Y-104044761D01*
X71110000Y-103949523D01*
X71157619Y-103901904D01*
X71252857Y-103854285D01*
X71300476Y-103854285D01*
X71395714Y-103901904D01*
X71443333Y-103949523D01*
X71490952Y-104044761D01*
X71490952Y-104235238D01*
X71538571Y-104330476D01*
X71586190Y-104378095D01*
X71681428Y-104425714D01*
X71871904Y-104425714D01*
X71967142Y-104378095D01*
X72014761Y-104330476D01*
X72062380Y-104235238D01*
X72062380Y-104044761D01*
X72014761Y-103949523D01*
X71967142Y-103901904D01*
X71871904Y-103854285D01*
X71681428Y-103854285D01*
X71586190Y-103901904D01*
X71538571Y-103949523D01*
X71490952Y-104044761D01*
X43802380Y-134786666D02*
X43326190Y-135120000D01*
X43802380Y-135358095D02*
X42802380Y-135358095D01*
X42802380Y-134977142D01*
X42850000Y-134881904D01*
X42897619Y-134834285D01*
X42992857Y-134786666D01*
X43135714Y-134786666D01*
X43230952Y-134834285D01*
X43278571Y-134881904D01*
X43326190Y-134977142D01*
X43326190Y-135358095D01*
X43802380Y-134310476D02*
X43802380Y-134120000D01*
X43754761Y-134024761D01*
X43707142Y-133977142D01*
X43564285Y-133881904D01*
X43373809Y-133834285D01*
X42992857Y-133834285D01*
X42897619Y-133881904D01*
X42850000Y-133929523D01*
X42802380Y-134024761D01*
X42802380Y-134215238D01*
X42850000Y-134310476D01*
X42897619Y-134358095D01*
X42992857Y-134405714D01*
X43230952Y-134405714D01*
X43326190Y-134358095D01*
X43373809Y-134310476D01*
X43421428Y-134215238D01*
X43421428Y-134024761D01*
X43373809Y-133929523D01*
X43326190Y-133881904D01*
X43230952Y-133834285D01*
X79843333Y-114582380D02*
X79510000Y-114106190D01*
X79271904Y-114582380D02*
X79271904Y-113582380D01*
X79652857Y-113582380D01*
X79748095Y-113630000D01*
X79795714Y-113677619D01*
X79843333Y-113772857D01*
X79843333Y-113915714D01*
X79795714Y-114010952D01*
X79748095Y-114058571D01*
X79652857Y-114106190D01*
X79271904Y-114106190D01*
X80414761Y-114010952D02*
X80319523Y-113963333D01*
X80271904Y-113915714D01*
X80224285Y-113820476D01*
X80224285Y-113772857D01*
X80271904Y-113677619D01*
X80319523Y-113630000D01*
X80414761Y-113582380D01*
X80605238Y-113582380D01*
X80700476Y-113630000D01*
X80748095Y-113677619D01*
X80795714Y-113772857D01*
X80795714Y-113820476D01*
X80748095Y-113915714D01*
X80700476Y-113963333D01*
X80605238Y-114010952D01*
X80414761Y-114010952D01*
X80319523Y-114058571D01*
X80271904Y-114106190D01*
X80224285Y-114201428D01*
X80224285Y-114391904D01*
X80271904Y-114487142D01*
X80319523Y-114534761D01*
X80414761Y-114582380D01*
X80605238Y-114582380D01*
X80700476Y-114534761D01*
X80748095Y-114487142D01*
X80795714Y-114391904D01*
X80795714Y-114201428D01*
X80748095Y-114106190D01*
X80700476Y-114058571D01*
X80605238Y-114010952D01*
X79843333Y-104762380D02*
X79510000Y-104286190D01*
X79271904Y-104762380D02*
X79271904Y-103762380D01*
X79652857Y-103762380D01*
X79748095Y-103810000D01*
X79795714Y-103857619D01*
X79843333Y-103952857D01*
X79843333Y-104095714D01*
X79795714Y-104190952D01*
X79748095Y-104238571D01*
X79652857Y-104286190D01*
X79271904Y-104286190D01*
X80176666Y-103762380D02*
X80843333Y-103762380D01*
X80414761Y-104762380D01*
X58702380Y-134786666D02*
X58226190Y-135120000D01*
X58702380Y-135358095D02*
X57702380Y-135358095D01*
X57702380Y-134977142D01*
X57750000Y-134881904D01*
X57797619Y-134834285D01*
X57892857Y-134786666D01*
X58035714Y-134786666D01*
X58130952Y-134834285D01*
X58178571Y-134881904D01*
X58226190Y-134977142D01*
X58226190Y-135358095D01*
X57702380Y-133929523D02*
X57702380Y-134120000D01*
X57750000Y-134215238D01*
X57797619Y-134262857D01*
X57940476Y-134358095D01*
X58130952Y-134405714D01*
X58511904Y-134405714D01*
X58607142Y-134358095D01*
X58654761Y-134310476D01*
X58702380Y-134215238D01*
X58702380Y-134024761D01*
X58654761Y-133929523D01*
X58607142Y-133881904D01*
X58511904Y-133834285D01*
X58273809Y-133834285D01*
X58178571Y-133881904D01*
X58130952Y-133929523D01*
X58083333Y-134024761D01*
X58083333Y-134215238D01*
X58130952Y-134310476D01*
X58178571Y-134358095D01*
X58273809Y-134405714D01*
X59042380Y-134786666D02*
X58566190Y-135120000D01*
X59042380Y-135358095D02*
X58042380Y-135358095D01*
X58042380Y-134977142D01*
X58090000Y-134881904D01*
X58137619Y-134834285D01*
X58232857Y-134786666D01*
X58375714Y-134786666D01*
X58470952Y-134834285D01*
X58518571Y-134881904D01*
X58566190Y-134977142D01*
X58566190Y-135358095D01*
X58042380Y-133881904D02*
X58042380Y-134358095D01*
X58518571Y-134405714D01*
X58470952Y-134358095D01*
X58423333Y-134262857D01*
X58423333Y-134024761D01*
X58470952Y-133929523D01*
X58518571Y-133881904D01*
X58613809Y-133834285D01*
X58851904Y-133834285D01*
X58947142Y-133881904D01*
X58994761Y-133929523D01*
X59042380Y-134024761D01*
X59042380Y-134262857D01*
X58994761Y-134358095D01*
X58947142Y-134405714D01*
X79843333Y-125082380D02*
X79510000Y-124606190D01*
X79271904Y-125082380D02*
X79271904Y-124082380D01*
X79652857Y-124082380D01*
X79748095Y-124130000D01*
X79795714Y-124177619D01*
X79843333Y-124272857D01*
X79843333Y-124415714D01*
X79795714Y-124510952D01*
X79748095Y-124558571D01*
X79652857Y-124606190D01*
X79271904Y-124606190D01*
X80700476Y-124415714D02*
X80700476Y-125082380D01*
X80462380Y-124034761D02*
X80224285Y-124749047D01*
X80843333Y-124749047D01*
X92543333Y-104762380D02*
X92210000Y-104286190D01*
X91971904Y-104762380D02*
X91971904Y-103762380D01*
X92352857Y-103762380D01*
X92448095Y-103810000D01*
X92495714Y-103857619D01*
X92543333Y-103952857D01*
X92543333Y-104095714D01*
X92495714Y-104190952D01*
X92448095Y-104238571D01*
X92352857Y-104286190D01*
X91971904Y-104286190D01*
X92876666Y-103762380D02*
X93495714Y-103762380D01*
X93162380Y-104143333D01*
X93305238Y-104143333D01*
X93400476Y-104190952D01*
X93448095Y-104238571D01*
X93495714Y-104333809D01*
X93495714Y-104571904D01*
X93448095Y-104667142D01*
X93400476Y-104714761D01*
X93305238Y-104762380D01*
X93019523Y-104762380D01*
X92924285Y-104714761D01*
X92876666Y-104667142D01*
X92543333Y-104422380D02*
X92210000Y-103946190D01*
X91971904Y-104422380D02*
X91971904Y-103422380D01*
X92352857Y-103422380D01*
X92448095Y-103470000D01*
X92495714Y-103517619D01*
X92543333Y-103612857D01*
X92543333Y-103755714D01*
X92495714Y-103850952D01*
X92448095Y-103898571D01*
X92352857Y-103946190D01*
X91971904Y-103946190D01*
X92924285Y-103517619D02*
X92971904Y-103470000D01*
X93067142Y-103422380D01*
X93305238Y-103422380D01*
X93400476Y-103470000D01*
X93448095Y-103517619D01*
X93495714Y-103612857D01*
X93495714Y-103708095D01*
X93448095Y-103850952D01*
X92876666Y-104422380D01*
X93495714Y-104422380D01*
X79843333Y-104422380D02*
X79510000Y-103946190D01*
X79271904Y-104422380D02*
X79271904Y-103422380D01*
X79652857Y-103422380D01*
X79748095Y-103470000D01*
X79795714Y-103517619D01*
X79843333Y-103612857D01*
X79843333Y-103755714D01*
X79795714Y-103850952D01*
X79748095Y-103898571D01*
X79652857Y-103946190D01*
X79271904Y-103946190D01*
X80795714Y-104422380D02*
X80224285Y-104422380D01*
X80510000Y-104422380D02*
X80510000Y-103422380D01*
X80414761Y-103565238D01*
X80319523Y-103660476D01*
X80224285Y-103708095D01*
X33552380Y-133723333D02*
X34266666Y-133723333D01*
X34409523Y-133770952D01*
X34504761Y-133866190D01*
X34552380Y-134009047D01*
X34552380Y-134104285D01*
X33647619Y-133294761D02*
X33600000Y-133247142D01*
X33552380Y-133151904D01*
X33552380Y-132913809D01*
X33600000Y-132818571D01*
X33647619Y-132770952D01*
X33742857Y-132723333D01*
X33838095Y-132723333D01*
X33980952Y-132770952D01*
X34552380Y-133342380D01*
X34552380Y-132723333D01*
X38207142Y-140461428D02*
X38207142Y-139318571D01*
X38207142Y-127461428D02*
X38207142Y-126318571D01*
X38778571Y-126890000D02*
X37635714Y-126890000D01*
X40282380Y-68873333D02*
X40996666Y-68873333D01*
X41139523Y-68920952D01*
X41234761Y-69016190D01*
X41282380Y-69159047D01*
X41282380Y-69254285D01*
X41282380Y-67873333D02*
X41282380Y-68444761D01*
X41282380Y-68159047D02*
X40282380Y-68159047D01*
X40425238Y-68254285D01*
X40520476Y-68349523D01*
X40568095Y-68444761D01*
X36937142Y-62611428D02*
X36937142Y-61468571D01*
X36937142Y-75611428D02*
X36937142Y-74468571D01*
X37508571Y-75040000D02*
X36365714Y-75040000D01*
X45298571Y-89053333D02*
X45298571Y-89386666D01*
X45822380Y-89386666D02*
X44822380Y-89386666D01*
X44822380Y-88910476D01*
X45822380Y-88005714D02*
X45822380Y-88577142D01*
X45822380Y-88291428D02*
X44822380Y-88291428D01*
X44965238Y-88386666D01*
X45060476Y-88481904D01*
X45108095Y-88577142D01*
X92402380Y-77018095D02*
X91402380Y-77018095D01*
X91402380Y-76780000D01*
X91450000Y-76637142D01*
X91545238Y-76541904D01*
X91640476Y-76494285D01*
X91830952Y-76446666D01*
X91973809Y-76446666D01*
X92164285Y-76494285D01*
X92259523Y-76541904D01*
X92354761Y-76637142D01*
X92402380Y-76780000D01*
X92402380Y-77018095D01*
X92402380Y-75494285D02*
X92402380Y-76065714D01*
X92402380Y-75780000D02*
X91402380Y-75780000D01*
X91545238Y-75875238D01*
X91640476Y-75970476D01*
X91688095Y-76065714D01*
M02*
