%FSLAX45Y45*%
G04 Gerber Fmt 4.5, Leading zero omitted, Abs format (unit mm)*
G04 Created by KiCad (PCBNEW (5.1.5)-3) date 2020-12-14 09:37:36*
%MOMM*%
%LPD*%
G04 APERTURE LIST*
%TA.AperFunction,Profile*%
%ADD10C,0.050000*%
%TD*%
%ADD11C,0.200000*%
%ADD12C,0.300000*%
G04 APERTURE END LIST*
D10*
X2921000Y-15494000D02*
X2921000Y-5080000D01*
X20828000Y-15494000D02*
X2921000Y-15494000D01*
X20828000Y-5080000D02*
X20828000Y-15494000D01*
X2921000Y-5080000D02*
X20828000Y-5080000D01*
D11*
X8870000Y-12553000D02*
X8910000Y-12593000D01*
X8910000Y-12553000D02*
X8870000Y-12593000D01*
X9124000Y-12553000D02*
X9164000Y-12593000D01*
X9164000Y-12553000D02*
X9124000Y-12593000D01*
X11918000Y-14712000D02*
X11958000Y-14752000D01*
X11958000Y-14712000D02*
X11918000Y-14752000D01*
X13442000Y-9505000D02*
X13482000Y-9545000D01*
X13482000Y-9505000D02*
X13442000Y-9545000D01*
X13569000Y-14839000D02*
X13609000Y-14879000D01*
X13609000Y-14839000D02*
X13569000Y-14879000D01*
X15474000Y-11156000D02*
X15514000Y-11196000D01*
X15514000Y-11156000D02*
X15474000Y-11196000D01*
X15474000Y-11156000D02*
X15514000Y-11196000D01*
X15514000Y-11156000D02*
X15474000Y-11196000D01*
X16674500Y-7620000D02*
G75*
G03X16674500Y-7620000I-37500J0D01*
G01*
X16801500Y-7493000D02*
G75*
G03X16801500Y-7493000I-37500J0D01*
G01*
X16928500Y-7620000D02*
G75*
G03X16928500Y-7620000I-37500J0D01*
G01*
X16547500Y-9525000D02*
G75*
G03X16547500Y-9525000I-37500J0D01*
G01*
X16674500Y-9398000D02*
G75*
G03X16674500Y-9398000I-37500J0D01*
G01*
X16801500Y-9525000D02*
G75*
G03X16801500Y-9525000I-37500J0D01*
G01*
X15785500Y-6096000D02*
G75*
G03X15785500Y-6096000I-37500J0D01*
G01*
X15912500Y-5969000D02*
G75*
G03X15912500Y-5969000I-37500J0D01*
G01*
X16039500Y-6096000D02*
G75*
G03X16039500Y-6096000I-37500J0D01*
G01*
X16674500Y-10922000D02*
G75*
G03X16674500Y-10922000I-37500J0D01*
G01*
X16801500Y-10795000D02*
G75*
G03X16801500Y-10795000I-37500J0D01*
G01*
X16928500Y-10922000D02*
G75*
G03X16928500Y-10922000I-37500J0D01*
G01*
X16674500Y-12827000D02*
G75*
G03X16674500Y-12827000I-37500J0D01*
G01*
X16801500Y-12700000D02*
G75*
G03X16801500Y-12700000I-37500J0D01*
G01*
X16928500Y-12827000D02*
G75*
G03X16928500Y-12827000I-37500J0D01*
G01*
X12446000Y-12660000D02*
X12446000Y-12740000D01*
X12406000Y-12700000D02*
X12486000Y-12700000D01*
X13208000Y-12660000D02*
X13208000Y-12740000D01*
X13168000Y-12700000D02*
X13248000Y-12700000D01*
X10922000Y-12152000D02*
X10922000Y-12232000D01*
X10882000Y-12192000D02*
X10962000Y-12192000D01*
X10922000Y-12914000D02*
X10922000Y-12994000D01*
X10882000Y-12954000D02*
X10962000Y-12954000D01*
X8890000Y-10628000D02*
X8890000Y-10708000D01*
X8850000Y-10668000D02*
X8930000Y-10668000D01*
X9652000Y-10628000D02*
X9652000Y-10708000D01*
X9612000Y-10668000D02*
X9692000Y-10668000D01*
X11049000Y-8850000D02*
X11049000Y-8930000D01*
X11009000Y-8890000D02*
X11089000Y-8890000D01*
X11049000Y-9612000D02*
X11049000Y-9692000D01*
X11009000Y-9652000D02*
X11089000Y-9652000D01*
X16129000Y-11898000D02*
X16129000Y-11978000D01*
X16089000Y-11938000D02*
X16169000Y-11938000D01*
X16891000Y-11898000D02*
X16891000Y-11978000D01*
X16851000Y-11938000D02*
X16931000Y-11938000D01*
X8890000Y-10120000D02*
X8890000Y-10200000D01*
X8850000Y-10160000D02*
X8930000Y-10160000D01*
X9652000Y-10120000D02*
X9652000Y-10200000D01*
X9612000Y-10160000D02*
X9692000Y-10160000D01*
X7620000Y-10628000D02*
X7620000Y-10708000D01*
X7580000Y-10668000D02*
X7660000Y-10668000D01*
X8382000Y-10628000D02*
X8382000Y-10708000D01*
X8342000Y-10668000D02*
X8422000Y-10668000D01*
X5080000Y-13041000D02*
X5080000Y-13121000D01*
X5040000Y-13081000D02*
X5120000Y-13081000D01*
X5080000Y-13803000D02*
X5080000Y-13883000D01*
X5040000Y-13843000D02*
X5120000Y-13843000D01*
X10541000Y-10120000D02*
X10541000Y-10200000D01*
X10501000Y-10160000D02*
X10581000Y-10160000D01*
X10541000Y-10882000D02*
X10541000Y-10962000D01*
X10501000Y-10922000D02*
X10581000Y-10922000D01*
X15113000Y-8469000D02*
X15113000Y-8549000D01*
X15073000Y-8509000D02*
X15153000Y-8509000D01*
X15875000Y-8469000D02*
X15875000Y-8549000D01*
X15835000Y-8509000D02*
X15915000Y-8509000D01*
X15113000Y-9739000D02*
X15113000Y-9819000D01*
X15073000Y-9779000D02*
X15153000Y-9779000D01*
X15875000Y-9739000D02*
X15875000Y-9819000D01*
X15835000Y-9779000D02*
X15915000Y-9779000D01*
X5588000Y-13041000D02*
X5588000Y-13121000D01*
X5548000Y-13081000D02*
X5628000Y-13081000D01*
X5588000Y-13803000D02*
X5588000Y-13883000D01*
X5548000Y-13843000D02*
X5628000Y-13843000D01*
X9017000Y-11390000D02*
X9017000Y-11470000D01*
X8977000Y-11430000D02*
X9057000Y-11430000D01*
X9517000Y-11390000D02*
X9517000Y-11470000D01*
X9477000Y-11430000D02*
X9557000Y-11430000D01*
X10287000Y-8850000D02*
X10287000Y-8930000D01*
X10247000Y-8890000D02*
X10327000Y-8890000D01*
X10287000Y-9612000D02*
X10287000Y-9692000D01*
X10247000Y-9652000D02*
X10327000Y-9652000D01*
X7620000Y-11136000D02*
X7620000Y-11216000D01*
X7580000Y-11176000D02*
X7660000Y-11176000D01*
X8382000Y-11136000D02*
X8382000Y-11216000D01*
X8342000Y-11176000D02*
X8422000Y-11176000D01*
X16510000Y-6056000D02*
X16510000Y-6136000D01*
X16470000Y-6096000D02*
X16550000Y-6096000D01*
X17272000Y-6056000D02*
X17272000Y-6136000D01*
X17232000Y-6096000D02*
X17312000Y-6096000D01*
X6096000Y-13041000D02*
X6096000Y-13121000D01*
X6056000Y-13081000D02*
X6136000Y-13081000D01*
X6096000Y-13803000D02*
X6096000Y-13883000D01*
X6056000Y-13843000D02*
X6136000Y-13843000D01*
X6858000Y-13422000D02*
X6858000Y-13502000D01*
X6818000Y-13462000D02*
X6898000Y-13462000D01*
X7358000Y-13422000D02*
X7358000Y-13502000D01*
X7318000Y-13462000D02*
X7398000Y-13462000D01*
X11557000Y-5929000D02*
X11557000Y-6009000D01*
X11517000Y-5969000D02*
X11597000Y-5969000D01*
X11557000Y-6429000D02*
X11557000Y-6509000D01*
X11517000Y-6469000D02*
X11597000Y-6469000D01*
X15113000Y-8850000D02*
X15113000Y-8930000D01*
X15073000Y-8890000D02*
X15153000Y-8890000D01*
X15875000Y-8850000D02*
X15875000Y-8930000D01*
X15835000Y-8890000D02*
X15915000Y-8890000D01*
X7620000Y-10120000D02*
X7620000Y-10200000D01*
X7580000Y-10160000D02*
X7660000Y-10160000D01*
X8382000Y-10120000D02*
X8382000Y-10200000D01*
X8342000Y-10160000D02*
X8422000Y-10160000D01*
X17399000Y-9485000D02*
X17399000Y-9565000D01*
X17359000Y-9525000D02*
X17439000Y-9525000D01*
X17399000Y-10247000D02*
X17399000Y-10327000D01*
X17359000Y-10287000D02*
X17439000Y-10287000D01*
X10414000Y-5675000D02*
X10414000Y-5755000D01*
X10374000Y-5715000D02*
X10454000Y-5715000D01*
X10414000Y-6175000D02*
X10414000Y-6255000D01*
X10374000Y-6215000D02*
X10454000Y-6215000D01*
X9906000Y-12152000D02*
X9906000Y-12232000D01*
X9866000Y-12192000D02*
X9946000Y-12192000D01*
X9906000Y-12914000D02*
X9906000Y-12994000D01*
X9866000Y-12954000D02*
X9946000Y-12954000D01*
X17399000Y-12660000D02*
X17399000Y-12740000D01*
X17359000Y-12700000D02*
X17439000Y-12700000D01*
X17399000Y-13422000D02*
X17399000Y-13502000D01*
X17359000Y-13462000D02*
X17439000Y-13462000D01*
X7747000Y-11644000D02*
X7747000Y-11724000D01*
X7707000Y-11684000D02*
X7787000Y-11684000D01*
X7747000Y-11898000D02*
X7747000Y-11978000D01*
X7707000Y-11938000D02*
X7787000Y-11938000D01*
X7747000Y-12152000D02*
X7747000Y-12232000D01*
X7707000Y-12192000D02*
X7787000Y-12192000D01*
X8509000Y-11644000D02*
X8509000Y-11724000D01*
X8469000Y-11684000D02*
X8549000Y-11684000D01*
X8509000Y-11898000D02*
X8509000Y-11978000D01*
X8469000Y-11938000D02*
X8549000Y-11938000D01*
X8509000Y-12152000D02*
X8509000Y-12232000D01*
X8469000Y-12192000D02*
X8549000Y-12192000D01*
X4572000Y-13041000D02*
X4572000Y-13121000D01*
X4532000Y-13081000D02*
X4612000Y-13081000D01*
X4572000Y-13803000D02*
X4572000Y-13883000D01*
X4532000Y-13843000D02*
X4612000Y-13843000D01*
X10668000Y-8850000D02*
X10668000Y-8930000D01*
X10628000Y-8890000D02*
X10708000Y-8890000D01*
X10668000Y-9612000D02*
X10668000Y-9692000D01*
X10628000Y-9652000D02*
X10708000Y-9652000D01*
X15113000Y-8088000D02*
X15113000Y-8168000D01*
X15073000Y-8128000D02*
X15153000Y-8128000D01*
X15875000Y-8088000D02*
X15875000Y-8168000D01*
X15835000Y-8128000D02*
X15915000Y-8128000D01*
X17526000Y-7453000D02*
X17526000Y-7533000D01*
X17486000Y-7493000D02*
X17566000Y-7493000D01*
X18288000Y-7453000D02*
X18288000Y-7533000D01*
X18248000Y-7493000D02*
X18328000Y-7493000D01*
X10414000Y-12152000D02*
X10414000Y-12232000D01*
X10374000Y-12192000D02*
X10454000Y-12192000D01*
X10414000Y-12914000D02*
X10414000Y-12994000D01*
X10374000Y-12954000D02*
X10454000Y-12954000D01*
X7620000Y-12660000D02*
X7620000Y-12740000D01*
X7580000Y-12700000D02*
X7660000Y-12700000D01*
X8382000Y-12660000D02*
X8382000Y-12740000D01*
X8342000Y-12700000D02*
X8422000Y-12700000D01*
X15113000Y-9231000D02*
X15113000Y-9311000D01*
X15073000Y-9271000D02*
X15153000Y-9271000D01*
X15875000Y-9231000D02*
X15875000Y-9311000D01*
X15835000Y-9271000D02*
X15915000Y-9271000D01*
X5746820Y-6762820D02*
X5746820Y-6699180D01*
X5683180Y-6699180D01*
X5683180Y-6762820D01*
X5746820Y-6762820D01*
X5746820Y-7262820D02*
X5746820Y-7199180D01*
X5683180Y-7199180D01*
X5683180Y-7262820D01*
X5746820Y-7262820D01*
X5746820Y-8286820D02*
X5746820Y-8223180D01*
X5683180Y-8223180D01*
X5683180Y-8286820D01*
X5746820Y-8286820D01*
X5746820Y-8794820D02*
X5746820Y-8731180D01*
X5683180Y-8731180D01*
X5683180Y-8794820D01*
X5746820Y-8794820D01*
X8032820Y-6762820D02*
X8032820Y-6699180D01*
X7969180Y-6699180D01*
X7969180Y-6762820D01*
X8032820Y-6762820D01*
X8032820Y-7270820D02*
X8032820Y-7207180D01*
X7969180Y-7207180D01*
X7969180Y-7270820D01*
X8032820Y-7270820D01*
X8032820Y-7778820D02*
X8032820Y-7715180D01*
X7969180Y-7715180D01*
X7969180Y-7778820D01*
X8032820Y-7778820D01*
X8032820Y-8286820D02*
X8032820Y-8223180D01*
X7969180Y-8223180D01*
X7969180Y-8286820D01*
X8032820Y-8286820D01*
X8032820Y-8794820D02*
X8032820Y-8731180D01*
X7969180Y-8731180D01*
X7969180Y-8794820D01*
X8032820Y-8794820D01*
X17811820Y-11461820D02*
X17811820Y-11398180D01*
X17748180Y-11398180D01*
X17748180Y-11461820D01*
X17811820Y-11461820D01*
X17811820Y-11715820D02*
X17811820Y-11652180D01*
X17748180Y-11652180D01*
X17748180Y-11715820D01*
X17811820Y-11715820D01*
X5492820Y-10445820D02*
X5492820Y-10382180D01*
X5429180Y-10382180D01*
X5429180Y-10445820D01*
X5492820Y-10445820D01*
X5492820Y-10945820D02*
X5492820Y-10882180D01*
X5429180Y-10882180D01*
X5429180Y-10945820D01*
X5492820Y-10945820D01*
X5492820Y-11945820D02*
X5492820Y-11882180D01*
X5429180Y-11882180D01*
X5429180Y-11945820D01*
X5492820Y-11945820D01*
X6992820Y-10445820D02*
X6992820Y-10382180D01*
X6929180Y-10382180D01*
X6929180Y-10445820D01*
X6992820Y-10445820D01*
X6992820Y-10945820D02*
X6992820Y-10882180D01*
X6929180Y-10882180D01*
X6929180Y-10945820D01*
X6992820Y-10945820D01*
X6992820Y-11445820D02*
X6992820Y-11382180D01*
X6929180Y-11382180D01*
X6929180Y-11445820D01*
X6992820Y-11445820D01*
X6992820Y-11945820D02*
X6992820Y-11882180D01*
X6929180Y-11882180D01*
X6929180Y-11945820D01*
X6992820Y-11945820D01*
X18065820Y-6000820D02*
X18065820Y-5937180D01*
X18002180Y-5937180D01*
X18002180Y-6000820D01*
X18065820Y-6000820D01*
X18065820Y-6254820D02*
X18065820Y-6191180D01*
X18002180Y-6191180D01*
X18002180Y-6254820D01*
X18065820Y-6254820D01*
X10414000Y-13512000D02*
X10464000Y-13462000D01*
X10414000Y-13412000D01*
X10364000Y-13462000D01*
X10414000Y-13512000D01*
X10414000Y-13766000D02*
X10464000Y-13716000D01*
X10414000Y-13666000D01*
X10364000Y-13716000D01*
X10414000Y-13766000D01*
X10414000Y-14020000D02*
X10464000Y-13970000D01*
X10414000Y-13920000D01*
X10364000Y-13970000D01*
X10414000Y-14020000D01*
X11684000Y-7797000D02*
X11734000Y-7747000D01*
X11684000Y-7697000D01*
X11634000Y-7747000D01*
X11684000Y-7797000D01*
X11684000Y-8051000D02*
X11734000Y-8001000D01*
X11684000Y-7951000D01*
X11634000Y-8001000D01*
X11684000Y-8051000D01*
X11684000Y-8305000D02*
X11734000Y-8255000D01*
X11684000Y-8205000D01*
X11634000Y-8255000D01*
X11684000Y-8305000D01*
X11684000Y-8559000D02*
X11734000Y-8509000D01*
X11684000Y-8459000D01*
X11634000Y-8509000D01*
X11684000Y-8559000D01*
X11684000Y-8813000D02*
X11734000Y-8763000D01*
X11684000Y-8713000D01*
X11634000Y-8763000D01*
X11684000Y-8813000D01*
X11684000Y-9067000D02*
X11734000Y-9017000D01*
X11684000Y-8967000D01*
X11634000Y-9017000D01*
X11684000Y-9067000D01*
X11684000Y-9321000D02*
X11734000Y-9271000D01*
X11684000Y-9221000D01*
X11634000Y-9271000D01*
X11684000Y-9321000D01*
X11684000Y-9575000D02*
X11734000Y-9525000D01*
X11684000Y-9475000D01*
X11634000Y-9525000D01*
X11684000Y-9575000D01*
X11684000Y-9829000D02*
X11734000Y-9779000D01*
X11684000Y-9729000D01*
X11634000Y-9779000D01*
X11684000Y-9829000D01*
X11684000Y-10083000D02*
X11734000Y-10033000D01*
X11684000Y-9983000D01*
X11634000Y-10033000D01*
X11684000Y-10083000D01*
X11684000Y-10337000D02*
X11734000Y-10287000D01*
X11684000Y-10237000D01*
X11634000Y-10287000D01*
X11684000Y-10337000D01*
X11684000Y-10591000D02*
X11734000Y-10541000D01*
X11684000Y-10491000D01*
X11634000Y-10541000D01*
X11684000Y-10591000D01*
X11684000Y-10845000D02*
X11734000Y-10795000D01*
X11684000Y-10745000D01*
X11634000Y-10795000D01*
X11684000Y-10845000D01*
X11684000Y-11099000D02*
X11734000Y-11049000D01*
X11684000Y-10999000D01*
X11634000Y-11049000D01*
X11684000Y-11099000D01*
X11684000Y-11353000D02*
X11734000Y-11303000D01*
X11684000Y-11253000D01*
X11634000Y-11303000D01*
X11684000Y-11353000D01*
X11684000Y-11607000D02*
X11734000Y-11557000D01*
X11684000Y-11507000D01*
X11634000Y-11557000D01*
X11684000Y-11607000D01*
X11684000Y-11861000D02*
X11734000Y-11811000D01*
X11684000Y-11761000D01*
X11634000Y-11811000D01*
X11684000Y-11861000D01*
X11684000Y-12115000D02*
X11734000Y-12065000D01*
X11684000Y-12015000D01*
X11634000Y-12065000D01*
X11684000Y-12115000D01*
X11684000Y-12369000D02*
X11734000Y-12319000D01*
X11684000Y-12269000D01*
X11634000Y-12319000D01*
X11684000Y-12369000D01*
X14224000Y-7797000D02*
X14274000Y-7747000D01*
X14224000Y-7697000D01*
X14174000Y-7747000D01*
X14224000Y-7797000D01*
X14224000Y-8051000D02*
X14274000Y-8001000D01*
X14224000Y-7951000D01*
X14174000Y-8001000D01*
X14224000Y-8051000D01*
X14224000Y-8305000D02*
X14274000Y-8255000D01*
X14224000Y-8205000D01*
X14174000Y-8255000D01*
X14224000Y-8305000D01*
X14224000Y-8559000D02*
X14274000Y-8509000D01*
X14224000Y-8459000D01*
X14174000Y-8509000D01*
X14224000Y-8559000D01*
X14224000Y-8813000D02*
X14274000Y-8763000D01*
X14224000Y-8713000D01*
X14174000Y-8763000D01*
X14224000Y-8813000D01*
X14224000Y-9067000D02*
X14274000Y-9017000D01*
X14224000Y-8967000D01*
X14174000Y-9017000D01*
X14224000Y-9067000D01*
X14224000Y-9321000D02*
X14274000Y-9271000D01*
X14224000Y-9221000D01*
X14174000Y-9271000D01*
X14224000Y-9321000D01*
X14224000Y-9575000D02*
X14274000Y-9525000D01*
X14224000Y-9475000D01*
X14174000Y-9525000D01*
X14224000Y-9575000D01*
X14224000Y-9829000D02*
X14274000Y-9779000D01*
X14224000Y-9729000D01*
X14174000Y-9779000D01*
X14224000Y-9829000D01*
X14224000Y-10083000D02*
X14274000Y-10033000D01*
X14224000Y-9983000D01*
X14174000Y-10033000D01*
X14224000Y-10083000D01*
X14224000Y-10337000D02*
X14274000Y-10287000D01*
X14224000Y-10237000D01*
X14174000Y-10287000D01*
X14224000Y-10337000D01*
X14224000Y-10591000D02*
X14274000Y-10541000D01*
X14224000Y-10491000D01*
X14174000Y-10541000D01*
X14224000Y-10591000D01*
X14224000Y-10845000D02*
X14274000Y-10795000D01*
X14224000Y-10745000D01*
X14174000Y-10795000D01*
X14224000Y-10845000D01*
X14224000Y-11099000D02*
X14274000Y-11049000D01*
X14224000Y-10999000D01*
X14174000Y-11049000D01*
X14224000Y-11099000D01*
X14224000Y-11353000D02*
X14274000Y-11303000D01*
X14224000Y-11253000D01*
X14174000Y-11303000D01*
X14224000Y-11353000D01*
X14224000Y-11607000D02*
X14274000Y-11557000D01*
X14224000Y-11507000D01*
X14174000Y-11557000D01*
X14224000Y-11607000D01*
X14224000Y-11861000D02*
X14274000Y-11811000D01*
X14224000Y-11761000D01*
X14174000Y-11811000D01*
X14224000Y-11861000D01*
X14224000Y-12115000D02*
X14274000Y-12065000D01*
X14224000Y-12015000D01*
X14174000Y-12065000D01*
X14224000Y-12115000D01*
X14224000Y-12369000D02*
X14274000Y-12319000D01*
X14224000Y-12269000D01*
X14174000Y-12319000D01*
X14224000Y-12369000D01*
X9895500Y-13512000D02*
X9945500Y-13462000D01*
X9895500Y-13412000D01*
X9845500Y-13462000D01*
X9895500Y-13512000D01*
X9895500Y-13766000D02*
X9945500Y-13716000D01*
X9895500Y-13666000D01*
X9845500Y-13716000D01*
X9895500Y-13766000D01*
X9895500Y-14020000D02*
X9945500Y-13970000D01*
X9895500Y-13920000D01*
X9845500Y-13970000D01*
X9895500Y-14020000D01*
X15113000Y-15163000D02*
X15163000Y-15113000D01*
X15113000Y-15063000D01*
X15063000Y-15113000D01*
X15113000Y-15163000D01*
X15367000Y-15163000D02*
X15417000Y-15113000D01*
X15367000Y-15063000D01*
X15317000Y-15113000D01*
X15367000Y-15163000D01*
X15621000Y-15163000D02*
X15671000Y-15113000D01*
X15621000Y-15063000D01*
X15571000Y-15113000D01*
X15621000Y-15163000D01*
X15875000Y-15163000D02*
X15925000Y-15113000D01*
X15875000Y-15063000D01*
X15825000Y-15113000D01*
X15875000Y-15163000D01*
X10922000Y-13512000D02*
X10972000Y-13462000D01*
X10922000Y-13412000D01*
X10872000Y-13462000D01*
X10922000Y-13512000D01*
X10922000Y-13766000D02*
X10972000Y-13716000D01*
X10922000Y-13666000D01*
X10872000Y-13716000D01*
X10922000Y-13766000D01*
X10922000Y-14020000D02*
X10972000Y-13970000D01*
X10922000Y-13920000D01*
X10872000Y-13970000D01*
X10922000Y-14020000D01*
X10613000Y-7565000D02*
X10723000Y-7675000D01*
X10723000Y-7565000D02*
X10613000Y-7675000D01*
X10723000Y-7620000D02*
G75*
G03X10723000Y-7620000I-55000J0D01*
G01*
X10613000Y-7819000D02*
X10723000Y-7929000D01*
X10723000Y-7819000D02*
X10613000Y-7929000D01*
X10723000Y-7874000D02*
G75*
G03X10723000Y-7874000I-55000J0D01*
G01*
X10613000Y-8073000D02*
X10723000Y-8183000D01*
X10723000Y-8073000D02*
X10613000Y-8183000D01*
X10723000Y-8128000D02*
G75*
G03X10723000Y-8128000I-55000J0D01*
G01*
X17969000Y-8698000D02*
X18099000Y-8828000D01*
X18099000Y-8698000D02*
X17969000Y-8828000D01*
X18034000Y-8698000D02*
X18034000Y-8828000D01*
X17969000Y-8763000D02*
X18099000Y-8763000D01*
X17969000Y-10476000D02*
X18099000Y-10606000D01*
X18099000Y-10476000D02*
X17969000Y-10606000D01*
X18034000Y-10476000D02*
X18034000Y-10606000D01*
X17969000Y-10541000D02*
X18099000Y-10541000D01*
X19239000Y-8698000D02*
X19369000Y-8828000D01*
X19369000Y-8698000D02*
X19239000Y-8828000D01*
X19304000Y-8698000D02*
X19304000Y-8828000D01*
X19239000Y-8763000D02*
X19369000Y-8763000D01*
X17969000Y-12508000D02*
X18099000Y-12638000D01*
X18099000Y-12508000D02*
X17969000Y-12638000D01*
X18034000Y-12508000D02*
X18034000Y-12638000D01*
X17969000Y-12573000D02*
X18099000Y-12573000D01*
X17969000Y-14286000D02*
X18099000Y-14416000D01*
X18099000Y-14286000D02*
X17969000Y-14416000D01*
X18034000Y-14286000D02*
X18034000Y-14416000D01*
X17969000Y-14351000D02*
X18099000Y-14351000D01*
X19239000Y-12508000D02*
X19369000Y-12638000D01*
X19369000Y-12508000D02*
X19239000Y-12638000D01*
X19304000Y-12508000D02*
X19304000Y-12638000D01*
X19239000Y-12573000D02*
X19369000Y-12573000D01*
X3862000Y-7672000D02*
X4012000Y-7822000D01*
X4012000Y-7672000D02*
X3862000Y-7822000D01*
X3990033Y-7800033D02*
X3990033Y-7693966D01*
X3883966Y-7693966D01*
X3883966Y-7800033D01*
X3990033Y-7800033D01*
X3862000Y-9932000D02*
X4012000Y-10082000D01*
X4012000Y-9932000D02*
X3862000Y-10082000D01*
X3990033Y-10060034D02*
X3990033Y-9953967D01*
X3883966Y-9953967D01*
X3883966Y-10060034D01*
X3990033Y-10060034D01*
X9445000Y-6778000D02*
X9605000Y-6938000D01*
X9605000Y-6778000D02*
X9445000Y-6938000D01*
X9525000Y-6938000D02*
X9605000Y-6858000D01*
X9525000Y-6778000D01*
X9445000Y-6858000D01*
X9525000Y-6938000D01*
X9445000Y-7286000D02*
X9605000Y-7446000D01*
X9605000Y-7286000D02*
X9445000Y-7446000D01*
X9525000Y-7446000D02*
X9605000Y-7366000D01*
X9525000Y-7286000D01*
X9445000Y-7366000D01*
X9525000Y-7446000D01*
X9445000Y-7794000D02*
X9605000Y-7954000D01*
X9605000Y-7794000D02*
X9445000Y-7954000D01*
X9525000Y-7954000D02*
X9605000Y-7874000D01*
X9525000Y-7794000D01*
X9445000Y-7874000D01*
X9525000Y-7954000D01*
X9445000Y-8302000D02*
X9605000Y-8462000D01*
X9605000Y-8302000D02*
X9445000Y-8462000D01*
X9525000Y-8462000D02*
X9605000Y-8382000D01*
X9525000Y-8302000D01*
X9445000Y-8382000D01*
X9525000Y-8462000D01*
X19304000Y-9796000D02*
X19304000Y-10016000D01*
X19194000Y-9906000D02*
X19414000Y-9906000D01*
X19414000Y-9906000D02*
G75*
G03X19414000Y-9906000I-110000J0D01*
G01*
X19304000Y-13606000D02*
X19304000Y-13826000D01*
X19194000Y-13716000D02*
X19414000Y-13716000D01*
X19414000Y-13716000D02*
G75*
G03X19414000Y-13716000I-110000J0D01*
G01*
X11144460Y-5429460D02*
X11144460Y-5238540D01*
X10953540Y-5238540D01*
X10953540Y-5429460D01*
X11144460Y-5429460D01*
X11184000Y-5334000D02*
G75*
G03X11184000Y-5334000I-135000J0D01*
G01*
X11144460Y-15208460D02*
X11144460Y-15017540D01*
X10953540Y-15017540D01*
X10953540Y-15208460D01*
X11144460Y-15208460D01*
X11184000Y-15113000D02*
G75*
G03X11184000Y-15113000I-135000J0D01*
G01*
X12922460Y-5429460D02*
X12922460Y-5238540D01*
X12731540Y-5238540D01*
X12731540Y-5429460D01*
X12922460Y-5429460D01*
X12962000Y-5334000D02*
G75*
G03X12962000Y-5334000I-135000J0D01*
G01*
X12922460Y-15208460D02*
X12922460Y-15017540D01*
X12731540Y-15017540D01*
X12731540Y-15208460D01*
X12922460Y-15208460D01*
X12962000Y-15113000D02*
G75*
G03X12962000Y-15113000I-135000J0D01*
G01*
X15589460Y-11271460D02*
X15589460Y-11080540D01*
X15398540Y-11080540D01*
X15398540Y-11271460D01*
X15589460Y-11271460D01*
X15629000Y-11176000D02*
G75*
G03X15629000Y-11176000I-135000J0D01*
G01*
X20034460Y-10136460D02*
X20034460Y-9945540D01*
X19843540Y-9945540D01*
X19843540Y-10136460D01*
X20034460Y-10136460D01*
X20074000Y-10041000D02*
G75*
G03X20074000Y-10041000I-135000J0D01*
G01*
X20034460Y-10636460D02*
X20034460Y-10445540D01*
X19843540Y-10445540D01*
X19843540Y-10636460D01*
X20034460Y-10636460D01*
X20074000Y-10541000D02*
G75*
G03X20074000Y-10541000I-135000J0D01*
G01*
X20161460Y-7469460D02*
X20161460Y-7278540D01*
X19970540Y-7278540D01*
X19970540Y-7469460D01*
X20161460Y-7469460D01*
X20201000Y-7374000D02*
G75*
G03X20201000Y-7374000I-135000J0D01*
G01*
X20161460Y-7969460D02*
X20161460Y-7778540D01*
X19970540Y-7778540D01*
X19970540Y-7969460D01*
X20161460Y-7969460D01*
X20201000Y-7874000D02*
G75*
G03X20201000Y-7874000I-135000J0D01*
G01*
X12541460Y-14319460D02*
X12541460Y-14128540D01*
X12350540Y-14128540D01*
X12350540Y-14319460D01*
X12541460Y-14319460D01*
X12581000Y-14224000D02*
G75*
G03X12581000Y-14224000I-135000J0D01*
G01*
X13041460Y-14319460D02*
X13041460Y-14128540D01*
X12850540Y-14128540D01*
X12850540Y-14319460D01*
X13041460Y-14319460D01*
X13081000Y-14224000D02*
G75*
G03X13081000Y-14224000I-135000J0D01*
G01*
X3778460Y-6699460D02*
X3778460Y-6508540D01*
X3587540Y-6508540D01*
X3587540Y-6699460D01*
X3778460Y-6699460D01*
X3818000Y-6604000D02*
G75*
G03X3818000Y-6604000I-135000J0D01*
G01*
X3778460Y-7199460D02*
X3778460Y-7008540D01*
X3587540Y-7008540D01*
X3587540Y-7199460D01*
X3778460Y-7199460D01*
X3818000Y-7104000D02*
G75*
G03X3818000Y-7104000I-135000J0D01*
G01*
X3905460Y-13184460D02*
X3905460Y-12993540D01*
X3714540Y-12993540D01*
X3714540Y-13184460D01*
X3905460Y-13184460D01*
X3945000Y-13089000D02*
G75*
G03X3945000Y-13089000I-135000J0D01*
G01*
X3905460Y-13684460D02*
X3905460Y-13493540D01*
X3714540Y-13493540D01*
X3714540Y-13684460D01*
X3905460Y-13684460D01*
X3945000Y-13589000D02*
G75*
G03X3945000Y-13589000I-135000J0D01*
G01*
X20161460Y-13057460D02*
X20161460Y-12866540D01*
X19970540Y-12866540D01*
X19970540Y-13057460D01*
X20161460Y-13057460D01*
X20201000Y-12962000D02*
G75*
G03X20201000Y-12962000I-135000J0D01*
G01*
X20161460Y-13557460D02*
X20161460Y-13366540D01*
X19970540Y-13366540D01*
X19970540Y-13557460D01*
X20161460Y-13557460D01*
X20201000Y-13462000D02*
G75*
G03X20201000Y-13462000I-135000J0D01*
G01*
D12*
X3204928Y-15962214D02*
X3204928Y-15662214D01*
X3276357Y-15662214D01*
X3319214Y-15676500D01*
X3347786Y-15705071D01*
X3362071Y-15733643D01*
X3376357Y-15790786D01*
X3376357Y-15833643D01*
X3362071Y-15890786D01*
X3347786Y-15919357D01*
X3319214Y-15947929D01*
X3276357Y-15962214D01*
X3204928Y-15962214D01*
X3504928Y-15962214D02*
X3504928Y-15762214D01*
X3504928Y-15819357D02*
X3519214Y-15790786D01*
X3533500Y-15776500D01*
X3562071Y-15762214D01*
X3590643Y-15762214D01*
X3690643Y-15962214D02*
X3690643Y-15762214D01*
X3690643Y-15662214D02*
X3676357Y-15676500D01*
X3690643Y-15690786D01*
X3704928Y-15676500D01*
X3690643Y-15662214D01*
X3690643Y-15690786D01*
X3876357Y-15962214D02*
X3847786Y-15947929D01*
X3833500Y-15919357D01*
X3833500Y-15662214D01*
X4033500Y-15962214D02*
X4004928Y-15947929D01*
X3990643Y-15919357D01*
X3990643Y-15662214D01*
X4376357Y-15962214D02*
X4376357Y-15662214D01*
X4476357Y-15876500D01*
X4576357Y-15662214D01*
X4576357Y-15962214D01*
X4847786Y-15962214D02*
X4847786Y-15805071D01*
X4833500Y-15776500D01*
X4804928Y-15762214D01*
X4747786Y-15762214D01*
X4719214Y-15776500D01*
X4847786Y-15947929D02*
X4819214Y-15962214D01*
X4747786Y-15962214D01*
X4719214Y-15947929D01*
X4704928Y-15919357D01*
X4704928Y-15890786D01*
X4719214Y-15862214D01*
X4747786Y-15847929D01*
X4819214Y-15847929D01*
X4847786Y-15833643D01*
X4990643Y-15762214D02*
X4990643Y-16062214D01*
X4990643Y-15776500D02*
X5019214Y-15762214D01*
X5076357Y-15762214D01*
X5104928Y-15776500D01*
X5119214Y-15790786D01*
X5133500Y-15819357D01*
X5133500Y-15905071D01*
X5119214Y-15933643D01*
X5104928Y-15947929D01*
X5076357Y-15962214D01*
X5019214Y-15962214D01*
X4990643Y-15947929D01*
X5262071Y-15933643D02*
X5276357Y-15947929D01*
X5262071Y-15962214D01*
X5247786Y-15947929D01*
X5262071Y-15933643D01*
X5262071Y-15962214D01*
X5262071Y-15776500D02*
X5276357Y-15790786D01*
X5262071Y-15805071D01*
X5247786Y-15790786D01*
X5262071Y-15776500D01*
X5262071Y-15805071D01*
X2878500Y-16436500D02*
X2918500Y-16476500D01*
X2918500Y-16436500D02*
X2878500Y-16476500D01*
X3262071Y-16292214D02*
X3290643Y-16292214D01*
X3319214Y-16306500D01*
X3333500Y-16320786D01*
X3347786Y-16349357D01*
X3362071Y-16406500D01*
X3362071Y-16477929D01*
X3347786Y-16535071D01*
X3333500Y-16563643D01*
X3319214Y-16577929D01*
X3290643Y-16592214D01*
X3262071Y-16592214D01*
X3233500Y-16577929D01*
X3219214Y-16563643D01*
X3204928Y-16535071D01*
X3190643Y-16477929D01*
X3190643Y-16406500D01*
X3204928Y-16349357D01*
X3219214Y-16320786D01*
X3233500Y-16306500D01*
X3262071Y-16292214D01*
X3490643Y-16563643D02*
X3504928Y-16577929D01*
X3490643Y-16592214D01*
X3476357Y-16577929D01*
X3490643Y-16563643D01*
X3490643Y-16592214D01*
X3762071Y-16392214D02*
X3762071Y-16592214D01*
X3690643Y-16277929D02*
X3619214Y-16492214D01*
X3804928Y-16492214D01*
X3976357Y-16292214D02*
X4004928Y-16292214D01*
X4033500Y-16306500D01*
X4047786Y-16320786D01*
X4062071Y-16349357D01*
X4076357Y-16406500D01*
X4076357Y-16477929D01*
X4062071Y-16535071D01*
X4047786Y-16563643D01*
X4033500Y-16577929D01*
X4004928Y-16592214D01*
X3976357Y-16592214D01*
X3947786Y-16577929D01*
X3933500Y-16563643D01*
X3919214Y-16535071D01*
X3904928Y-16477929D01*
X3904928Y-16406500D01*
X3919214Y-16349357D01*
X3933500Y-16320786D01*
X3947786Y-16306500D01*
X3976357Y-16292214D01*
X4204928Y-16592214D02*
X4204928Y-16392214D01*
X4204928Y-16420786D02*
X4219214Y-16406500D01*
X4247786Y-16392214D01*
X4290643Y-16392214D01*
X4319214Y-16406500D01*
X4333500Y-16435071D01*
X4333500Y-16592214D01*
X4333500Y-16435071D02*
X4347786Y-16406500D01*
X4376357Y-16392214D01*
X4419214Y-16392214D01*
X4447786Y-16406500D01*
X4462071Y-16435071D01*
X4462071Y-16592214D01*
X4604928Y-16592214D02*
X4604928Y-16392214D01*
X4604928Y-16420786D02*
X4619214Y-16406500D01*
X4647786Y-16392214D01*
X4690643Y-16392214D01*
X4719214Y-16406500D01*
X4733500Y-16435071D01*
X4733500Y-16592214D01*
X4733500Y-16435071D02*
X4747786Y-16406500D01*
X4776357Y-16392214D01*
X4819214Y-16392214D01*
X4847786Y-16406500D01*
X4862071Y-16435071D01*
X4862071Y-16592214D01*
X5447786Y-16277929D02*
X5190643Y-16663643D01*
X5833500Y-16292214D02*
X5862071Y-16292214D01*
X5890643Y-16306500D01*
X5904928Y-16320786D01*
X5919214Y-16349357D01*
X5933500Y-16406500D01*
X5933500Y-16477929D01*
X5919214Y-16535071D01*
X5904928Y-16563643D01*
X5890643Y-16577929D01*
X5862071Y-16592214D01*
X5833500Y-16592214D01*
X5804928Y-16577929D01*
X5790643Y-16563643D01*
X5776357Y-16535071D01*
X5762071Y-16477929D01*
X5762071Y-16406500D01*
X5776357Y-16349357D01*
X5790643Y-16320786D01*
X5804928Y-16306500D01*
X5833500Y-16292214D01*
X6062071Y-16563643D02*
X6076357Y-16577929D01*
X6062071Y-16592214D01*
X6047786Y-16577929D01*
X6062071Y-16563643D01*
X6062071Y-16592214D01*
X6262071Y-16292214D02*
X6290643Y-16292214D01*
X6319214Y-16306500D01*
X6333500Y-16320786D01*
X6347786Y-16349357D01*
X6362071Y-16406500D01*
X6362071Y-16477929D01*
X6347786Y-16535071D01*
X6333500Y-16563643D01*
X6319214Y-16577929D01*
X6290643Y-16592214D01*
X6262071Y-16592214D01*
X6233500Y-16577929D01*
X6219214Y-16563643D01*
X6204928Y-16535071D01*
X6190643Y-16477929D01*
X6190643Y-16406500D01*
X6204928Y-16349357D01*
X6219214Y-16320786D01*
X6233500Y-16306500D01*
X6262071Y-16292214D01*
X6647786Y-16592214D02*
X6476357Y-16592214D01*
X6562071Y-16592214D02*
X6562071Y-16292214D01*
X6533500Y-16335071D01*
X6504928Y-16363643D01*
X6476357Y-16377929D01*
X6904928Y-16292214D02*
X6847786Y-16292214D01*
X6819214Y-16306500D01*
X6804928Y-16320786D01*
X6776357Y-16363643D01*
X6762071Y-16420786D01*
X6762071Y-16535071D01*
X6776357Y-16563643D01*
X6790643Y-16577929D01*
X6819214Y-16592214D01*
X6876357Y-16592214D01*
X6904928Y-16577929D01*
X6919214Y-16563643D01*
X6933500Y-16535071D01*
X6933500Y-16463643D01*
X6919214Y-16435071D01*
X6904928Y-16420786D01*
X6876357Y-16406500D01*
X6819214Y-16406500D01*
X6790643Y-16420786D01*
X6776357Y-16435071D01*
X6762071Y-16463643D01*
X7047786Y-16292214D02*
X7047786Y-16349357D01*
X7162071Y-16292214D02*
X7162071Y-16349357D01*
X7604928Y-16706500D02*
X7590643Y-16692214D01*
X7562071Y-16649357D01*
X7547786Y-16620786D01*
X7533500Y-16577929D01*
X7519214Y-16506500D01*
X7519214Y-16449357D01*
X7533500Y-16377929D01*
X7547786Y-16335071D01*
X7562071Y-16306500D01*
X7590643Y-16263643D01*
X7604928Y-16249357D01*
X7690643Y-16292214D02*
X7890643Y-16292214D01*
X7762071Y-16592214D01*
X8233500Y-16592214D02*
X8233500Y-16292214D01*
X8362071Y-16592214D02*
X8362071Y-16435071D01*
X8347786Y-16406500D01*
X8319214Y-16392214D01*
X8276357Y-16392214D01*
X8247786Y-16406500D01*
X8233500Y-16420786D01*
X8547786Y-16592214D02*
X8519214Y-16577929D01*
X8504928Y-16563643D01*
X8490643Y-16535071D01*
X8490643Y-16449357D01*
X8504928Y-16420786D01*
X8519214Y-16406500D01*
X8547786Y-16392214D01*
X8590643Y-16392214D01*
X8619214Y-16406500D01*
X8633500Y-16420786D01*
X8647786Y-16449357D01*
X8647786Y-16535071D01*
X8633500Y-16563643D01*
X8619214Y-16577929D01*
X8590643Y-16592214D01*
X8547786Y-16592214D01*
X8819214Y-16592214D02*
X8790643Y-16577929D01*
X8776357Y-16549357D01*
X8776357Y-16292214D01*
X9047786Y-16577929D02*
X9019214Y-16592214D01*
X8962071Y-16592214D01*
X8933500Y-16577929D01*
X8919214Y-16549357D01*
X8919214Y-16435071D01*
X8933500Y-16406500D01*
X8962071Y-16392214D01*
X9019214Y-16392214D01*
X9047786Y-16406500D01*
X9062071Y-16435071D01*
X9062071Y-16463643D01*
X8919214Y-16492214D01*
X9176357Y-16577929D02*
X9204928Y-16592214D01*
X9262071Y-16592214D01*
X9290643Y-16577929D01*
X9304928Y-16549357D01*
X9304928Y-16535071D01*
X9290643Y-16506500D01*
X9262071Y-16492214D01*
X9219214Y-16492214D01*
X9190643Y-16477929D01*
X9176357Y-16449357D01*
X9176357Y-16435071D01*
X9190643Y-16406500D01*
X9219214Y-16392214D01*
X9262071Y-16392214D01*
X9290643Y-16406500D01*
X9404928Y-16706500D02*
X9419214Y-16692214D01*
X9447786Y-16649357D01*
X9462071Y-16620786D01*
X9476357Y-16577929D01*
X9490643Y-16506500D01*
X9490643Y-16449357D01*
X9476357Y-16377929D01*
X9462071Y-16335071D01*
X9447786Y-16306500D01*
X9419214Y-16263643D01*
X9404928Y-16249357D01*
X2918500Y-16852500D02*
G75*
G03X2918500Y-16852500I-37500J0D01*
G01*
X3262071Y-16688214D02*
X3290643Y-16688214D01*
X3319214Y-16702500D01*
X3333500Y-16716786D01*
X3347786Y-16745357D01*
X3362071Y-16802500D01*
X3362071Y-16873929D01*
X3347786Y-16931072D01*
X3333500Y-16959643D01*
X3319214Y-16973929D01*
X3290643Y-16988214D01*
X3262071Y-16988214D01*
X3233500Y-16973929D01*
X3219214Y-16959643D01*
X3204928Y-16931072D01*
X3190643Y-16873929D01*
X3190643Y-16802500D01*
X3204928Y-16745357D01*
X3219214Y-16716786D01*
X3233500Y-16702500D01*
X3262071Y-16688214D01*
X3490643Y-16959643D02*
X3504928Y-16973929D01*
X3490643Y-16988214D01*
X3476357Y-16973929D01*
X3490643Y-16959643D01*
X3490643Y-16988214D01*
X3604928Y-16688214D02*
X3804928Y-16688214D01*
X3676357Y-16988214D01*
X4062071Y-16688214D02*
X3919214Y-16688214D01*
X3904928Y-16831072D01*
X3919214Y-16816786D01*
X3947786Y-16802500D01*
X4019214Y-16802500D01*
X4047786Y-16816786D01*
X4062071Y-16831072D01*
X4076357Y-16859643D01*
X4076357Y-16931072D01*
X4062071Y-16959643D01*
X4047786Y-16973929D01*
X4019214Y-16988214D01*
X3947786Y-16988214D01*
X3919214Y-16973929D01*
X3904928Y-16959643D01*
X4204928Y-16988214D02*
X4204928Y-16788214D01*
X4204928Y-16816786D02*
X4219214Y-16802500D01*
X4247786Y-16788214D01*
X4290643Y-16788214D01*
X4319214Y-16802500D01*
X4333500Y-16831072D01*
X4333500Y-16988214D01*
X4333500Y-16831072D02*
X4347786Y-16802500D01*
X4376357Y-16788214D01*
X4419214Y-16788214D01*
X4447786Y-16802500D01*
X4462071Y-16831072D01*
X4462071Y-16988214D01*
X4604928Y-16988214D02*
X4604928Y-16788214D01*
X4604928Y-16816786D02*
X4619214Y-16802500D01*
X4647786Y-16788214D01*
X4690643Y-16788214D01*
X4719214Y-16802500D01*
X4733500Y-16831072D01*
X4733500Y-16988214D01*
X4733500Y-16831072D02*
X4747786Y-16802500D01*
X4776357Y-16788214D01*
X4819214Y-16788214D01*
X4847786Y-16802500D01*
X4862071Y-16831072D01*
X4862071Y-16988214D01*
X5447786Y-16673929D02*
X5190643Y-17059643D01*
X5833500Y-16688214D02*
X5862071Y-16688214D01*
X5890643Y-16702500D01*
X5904928Y-16716786D01*
X5919214Y-16745357D01*
X5933500Y-16802500D01*
X5933500Y-16873929D01*
X5919214Y-16931072D01*
X5904928Y-16959643D01*
X5890643Y-16973929D01*
X5862071Y-16988214D01*
X5833500Y-16988214D01*
X5804928Y-16973929D01*
X5790643Y-16959643D01*
X5776357Y-16931072D01*
X5762071Y-16873929D01*
X5762071Y-16802500D01*
X5776357Y-16745357D01*
X5790643Y-16716786D01*
X5804928Y-16702500D01*
X5833500Y-16688214D01*
X6062071Y-16959643D02*
X6076357Y-16973929D01*
X6062071Y-16988214D01*
X6047786Y-16973929D01*
X6062071Y-16959643D01*
X6062071Y-16988214D01*
X6262071Y-16688214D02*
X6290643Y-16688214D01*
X6319214Y-16702500D01*
X6333500Y-16716786D01*
X6347786Y-16745357D01*
X6362071Y-16802500D01*
X6362071Y-16873929D01*
X6347786Y-16931072D01*
X6333500Y-16959643D01*
X6319214Y-16973929D01*
X6290643Y-16988214D01*
X6262071Y-16988214D01*
X6233500Y-16973929D01*
X6219214Y-16959643D01*
X6204928Y-16931072D01*
X6190643Y-16873929D01*
X6190643Y-16802500D01*
X6204928Y-16745357D01*
X6219214Y-16716786D01*
X6233500Y-16702500D01*
X6262071Y-16688214D01*
X6462071Y-16688214D02*
X6647786Y-16688214D01*
X6547786Y-16802500D01*
X6590643Y-16802500D01*
X6619214Y-16816786D01*
X6633500Y-16831072D01*
X6647786Y-16859643D01*
X6647786Y-16931072D01*
X6633500Y-16959643D01*
X6619214Y-16973929D01*
X6590643Y-16988214D01*
X6504928Y-16988214D01*
X6476357Y-16973929D01*
X6462071Y-16959643D01*
X6833500Y-16688214D02*
X6862071Y-16688214D01*
X6890643Y-16702500D01*
X6904928Y-16716786D01*
X6919214Y-16745357D01*
X6933500Y-16802500D01*
X6933500Y-16873929D01*
X6919214Y-16931072D01*
X6904928Y-16959643D01*
X6890643Y-16973929D01*
X6862071Y-16988214D01*
X6833500Y-16988214D01*
X6804928Y-16973929D01*
X6790643Y-16959643D01*
X6776357Y-16931072D01*
X6762071Y-16873929D01*
X6762071Y-16802500D01*
X6776357Y-16745357D01*
X6790643Y-16716786D01*
X6804928Y-16702500D01*
X6833500Y-16688214D01*
X7047786Y-16688214D02*
X7047786Y-16745357D01*
X7162071Y-16688214D02*
X7162071Y-16745357D01*
X7604928Y-17102500D02*
X7590643Y-17088214D01*
X7562071Y-17045357D01*
X7547786Y-17016786D01*
X7533500Y-16973929D01*
X7519214Y-16902500D01*
X7519214Y-16845357D01*
X7533500Y-16773929D01*
X7547786Y-16731071D01*
X7562071Y-16702500D01*
X7590643Y-16659643D01*
X7604928Y-16645357D01*
X7876357Y-16988214D02*
X7704928Y-16988214D01*
X7790643Y-16988214D02*
X7790643Y-16688214D01*
X7762071Y-16731071D01*
X7733500Y-16759643D01*
X7704928Y-16773929D01*
X8147786Y-16688214D02*
X8004928Y-16688214D01*
X7990643Y-16831072D01*
X8004928Y-16816786D01*
X8033500Y-16802500D01*
X8104928Y-16802500D01*
X8133500Y-16816786D01*
X8147786Y-16831072D01*
X8162071Y-16859643D01*
X8162071Y-16931072D01*
X8147786Y-16959643D01*
X8133500Y-16973929D01*
X8104928Y-16988214D01*
X8033500Y-16988214D01*
X8004928Y-16973929D01*
X7990643Y-16959643D01*
X8519214Y-16988214D02*
X8519214Y-16688214D01*
X8647786Y-16988214D02*
X8647786Y-16831072D01*
X8633500Y-16802500D01*
X8604928Y-16788214D01*
X8562071Y-16788214D01*
X8533500Y-16802500D01*
X8519214Y-16816786D01*
X8833500Y-16988214D02*
X8804928Y-16973929D01*
X8790643Y-16959643D01*
X8776357Y-16931072D01*
X8776357Y-16845357D01*
X8790643Y-16816786D01*
X8804928Y-16802500D01*
X8833500Y-16788214D01*
X8876357Y-16788214D01*
X8904928Y-16802500D01*
X8919214Y-16816786D01*
X8933500Y-16845357D01*
X8933500Y-16931072D01*
X8919214Y-16959643D01*
X8904928Y-16973929D01*
X8876357Y-16988214D01*
X8833500Y-16988214D01*
X9104928Y-16988214D02*
X9076357Y-16973929D01*
X9062071Y-16945357D01*
X9062071Y-16688214D01*
X9333500Y-16973929D02*
X9304928Y-16988214D01*
X9247786Y-16988214D01*
X9219214Y-16973929D01*
X9204928Y-16945357D01*
X9204928Y-16831072D01*
X9219214Y-16802500D01*
X9247786Y-16788214D01*
X9304928Y-16788214D01*
X9333500Y-16802500D01*
X9347786Y-16831072D01*
X9347786Y-16859643D01*
X9204928Y-16888214D01*
X9462071Y-16973929D02*
X9490643Y-16988214D01*
X9547786Y-16988214D01*
X9576357Y-16973929D01*
X9590643Y-16945357D01*
X9590643Y-16931072D01*
X9576357Y-16902500D01*
X9547786Y-16888214D01*
X9504928Y-16888214D01*
X9476357Y-16873929D01*
X9462071Y-16845357D01*
X9462071Y-16831072D01*
X9476357Y-16802500D01*
X9504928Y-16788214D01*
X9547786Y-16788214D01*
X9576357Y-16802500D01*
X9690643Y-17102500D02*
X9704928Y-17088214D01*
X9733500Y-17045357D01*
X9747786Y-17016786D01*
X9762071Y-16973929D01*
X9776357Y-16902500D01*
X9776357Y-16845357D01*
X9762071Y-16773929D01*
X9747786Y-16731071D01*
X9733500Y-16702500D01*
X9704928Y-16659643D01*
X9690643Y-16645357D01*
X2878500Y-17208500D02*
X2878500Y-17288500D01*
X2838500Y-17248500D02*
X2918500Y-17248500D01*
X3262071Y-17084214D02*
X3290643Y-17084214D01*
X3319214Y-17098500D01*
X3333500Y-17112786D01*
X3347786Y-17141357D01*
X3362071Y-17198500D01*
X3362071Y-17269929D01*
X3347786Y-17327072D01*
X3333500Y-17355643D01*
X3319214Y-17369929D01*
X3290643Y-17384214D01*
X3262071Y-17384214D01*
X3233500Y-17369929D01*
X3219214Y-17355643D01*
X3204928Y-17327072D01*
X3190643Y-17269929D01*
X3190643Y-17198500D01*
X3204928Y-17141357D01*
X3219214Y-17112786D01*
X3233500Y-17098500D01*
X3262071Y-17084214D01*
X3490643Y-17355643D02*
X3504928Y-17369929D01*
X3490643Y-17384214D01*
X3476357Y-17369929D01*
X3490643Y-17355643D01*
X3490643Y-17384214D01*
X3676357Y-17212786D02*
X3647786Y-17198500D01*
X3633500Y-17184214D01*
X3619214Y-17155643D01*
X3619214Y-17141357D01*
X3633500Y-17112786D01*
X3647786Y-17098500D01*
X3676357Y-17084214D01*
X3733500Y-17084214D01*
X3762071Y-17098500D01*
X3776357Y-17112786D01*
X3790643Y-17141357D01*
X3790643Y-17155643D01*
X3776357Y-17184214D01*
X3762071Y-17198500D01*
X3733500Y-17212786D01*
X3676357Y-17212786D01*
X3647786Y-17227072D01*
X3633500Y-17241357D01*
X3619214Y-17269929D01*
X3619214Y-17327072D01*
X3633500Y-17355643D01*
X3647786Y-17369929D01*
X3676357Y-17384214D01*
X3733500Y-17384214D01*
X3762071Y-17369929D01*
X3776357Y-17355643D01*
X3790643Y-17327072D01*
X3790643Y-17269929D01*
X3776357Y-17241357D01*
X3762071Y-17227072D01*
X3733500Y-17212786D01*
X3976357Y-17084214D02*
X4004928Y-17084214D01*
X4033500Y-17098500D01*
X4047786Y-17112786D01*
X4062071Y-17141357D01*
X4076357Y-17198500D01*
X4076357Y-17269929D01*
X4062071Y-17327072D01*
X4047786Y-17355643D01*
X4033500Y-17369929D01*
X4004928Y-17384214D01*
X3976357Y-17384214D01*
X3947786Y-17369929D01*
X3933500Y-17355643D01*
X3919214Y-17327072D01*
X3904928Y-17269929D01*
X3904928Y-17198500D01*
X3919214Y-17141357D01*
X3933500Y-17112786D01*
X3947786Y-17098500D01*
X3976357Y-17084214D01*
X4204928Y-17384214D02*
X4204928Y-17184214D01*
X4204928Y-17212786D02*
X4219214Y-17198500D01*
X4247786Y-17184214D01*
X4290643Y-17184214D01*
X4319214Y-17198500D01*
X4333500Y-17227072D01*
X4333500Y-17384214D01*
X4333500Y-17227072D02*
X4347786Y-17198500D01*
X4376357Y-17184214D01*
X4419214Y-17184214D01*
X4447786Y-17198500D01*
X4462071Y-17227072D01*
X4462071Y-17384214D01*
X4604928Y-17384214D02*
X4604928Y-17184214D01*
X4604928Y-17212786D02*
X4619214Y-17198500D01*
X4647786Y-17184214D01*
X4690643Y-17184214D01*
X4719214Y-17198500D01*
X4733500Y-17227072D01*
X4733500Y-17384214D01*
X4733500Y-17227072D02*
X4747786Y-17198500D01*
X4776357Y-17184214D01*
X4819214Y-17184214D01*
X4847786Y-17198500D01*
X4862071Y-17227072D01*
X4862071Y-17384214D01*
X5447786Y-17069929D02*
X5190643Y-17455643D01*
X5833500Y-17084214D02*
X5862071Y-17084214D01*
X5890643Y-17098500D01*
X5904928Y-17112786D01*
X5919214Y-17141357D01*
X5933500Y-17198500D01*
X5933500Y-17269929D01*
X5919214Y-17327072D01*
X5904928Y-17355643D01*
X5890643Y-17369929D01*
X5862071Y-17384214D01*
X5833500Y-17384214D01*
X5804928Y-17369929D01*
X5790643Y-17355643D01*
X5776357Y-17327072D01*
X5762071Y-17269929D01*
X5762071Y-17198500D01*
X5776357Y-17141357D01*
X5790643Y-17112786D01*
X5804928Y-17098500D01*
X5833500Y-17084214D01*
X6062071Y-17355643D02*
X6076357Y-17369929D01*
X6062071Y-17384214D01*
X6047786Y-17369929D01*
X6062071Y-17355643D01*
X6062071Y-17384214D01*
X6262071Y-17084214D02*
X6290643Y-17084214D01*
X6319214Y-17098500D01*
X6333500Y-17112786D01*
X6347786Y-17141357D01*
X6362071Y-17198500D01*
X6362071Y-17269929D01*
X6347786Y-17327072D01*
X6333500Y-17355643D01*
X6319214Y-17369929D01*
X6290643Y-17384214D01*
X6262071Y-17384214D01*
X6233500Y-17369929D01*
X6219214Y-17355643D01*
X6204928Y-17327072D01*
X6190643Y-17269929D01*
X6190643Y-17198500D01*
X6204928Y-17141357D01*
X6219214Y-17112786D01*
X6233500Y-17098500D01*
X6262071Y-17084214D01*
X6462071Y-17084214D02*
X6647786Y-17084214D01*
X6547786Y-17198500D01*
X6590643Y-17198500D01*
X6619214Y-17212786D01*
X6633500Y-17227072D01*
X6647786Y-17255643D01*
X6647786Y-17327072D01*
X6633500Y-17355643D01*
X6619214Y-17369929D01*
X6590643Y-17384214D01*
X6504928Y-17384214D01*
X6476357Y-17369929D01*
X6462071Y-17355643D01*
X6933500Y-17384214D02*
X6762071Y-17384214D01*
X6847786Y-17384214D02*
X6847786Y-17084214D01*
X6819214Y-17127072D01*
X6790643Y-17155643D01*
X6762071Y-17169929D01*
X7047786Y-17084214D02*
X7047786Y-17141357D01*
X7162071Y-17084214D02*
X7162071Y-17141357D01*
X7604928Y-17498500D02*
X7590643Y-17484214D01*
X7562071Y-17441357D01*
X7547786Y-17412786D01*
X7533500Y-17369929D01*
X7519214Y-17298500D01*
X7519214Y-17241357D01*
X7533500Y-17169929D01*
X7547786Y-17127072D01*
X7562071Y-17098500D01*
X7590643Y-17055643D01*
X7604928Y-17041357D01*
X7690643Y-17084214D02*
X7890643Y-17084214D01*
X7762071Y-17384214D01*
X8062071Y-17084214D02*
X8090643Y-17084214D01*
X8119214Y-17098500D01*
X8133500Y-17112786D01*
X8147786Y-17141357D01*
X8162071Y-17198500D01*
X8162071Y-17269929D01*
X8147786Y-17327072D01*
X8133500Y-17355643D01*
X8119214Y-17369929D01*
X8090643Y-17384214D01*
X8062071Y-17384214D01*
X8033500Y-17369929D01*
X8019214Y-17355643D01*
X8004928Y-17327072D01*
X7990643Y-17269929D01*
X7990643Y-17198500D01*
X8004928Y-17141357D01*
X8019214Y-17112786D01*
X8033500Y-17098500D01*
X8062071Y-17084214D01*
X8519214Y-17384214D02*
X8519214Y-17084214D01*
X8647786Y-17384214D02*
X8647786Y-17227072D01*
X8633500Y-17198500D01*
X8604928Y-17184214D01*
X8562071Y-17184214D01*
X8533500Y-17198500D01*
X8519214Y-17212786D01*
X8833500Y-17384214D02*
X8804928Y-17369929D01*
X8790643Y-17355643D01*
X8776357Y-17327072D01*
X8776357Y-17241357D01*
X8790643Y-17212786D01*
X8804928Y-17198500D01*
X8833500Y-17184214D01*
X8876357Y-17184214D01*
X8904928Y-17198500D01*
X8919214Y-17212786D01*
X8933500Y-17241357D01*
X8933500Y-17327072D01*
X8919214Y-17355643D01*
X8904928Y-17369929D01*
X8876357Y-17384214D01*
X8833500Y-17384214D01*
X9104928Y-17384214D02*
X9076357Y-17369929D01*
X9062071Y-17341357D01*
X9062071Y-17084214D01*
X9333500Y-17369929D02*
X9304928Y-17384214D01*
X9247786Y-17384214D01*
X9219214Y-17369929D01*
X9204928Y-17341357D01*
X9204928Y-17227072D01*
X9219214Y-17198500D01*
X9247786Y-17184214D01*
X9304928Y-17184214D01*
X9333500Y-17198500D01*
X9347786Y-17227072D01*
X9347786Y-17255643D01*
X9204928Y-17284214D01*
X9462071Y-17369929D02*
X9490643Y-17384214D01*
X9547786Y-17384214D01*
X9576357Y-17369929D01*
X9590643Y-17341357D01*
X9590643Y-17327072D01*
X9576357Y-17298500D01*
X9547786Y-17284214D01*
X9504928Y-17284214D01*
X9476357Y-17269929D01*
X9462071Y-17241357D01*
X9462071Y-17227072D01*
X9476357Y-17198500D01*
X9504928Y-17184214D01*
X9547786Y-17184214D01*
X9576357Y-17198500D01*
X9690643Y-17498500D02*
X9704928Y-17484214D01*
X9733500Y-17441357D01*
X9747786Y-17412786D01*
X9762071Y-17369929D01*
X9776357Y-17298500D01*
X9776357Y-17241357D01*
X9762071Y-17169929D01*
X9747786Y-17127072D01*
X9733500Y-17098500D01*
X9704928Y-17055643D01*
X9690643Y-17041357D01*
X2905320Y-17676320D02*
X2905320Y-17612680D01*
X2841680Y-17612680D01*
X2841680Y-17676320D01*
X2905320Y-17676320D01*
X3262071Y-17480214D02*
X3290643Y-17480214D01*
X3319214Y-17494500D01*
X3333500Y-17508786D01*
X3347786Y-17537357D01*
X3362071Y-17594500D01*
X3362071Y-17665929D01*
X3347786Y-17723072D01*
X3333500Y-17751643D01*
X3319214Y-17765929D01*
X3290643Y-17780214D01*
X3262071Y-17780214D01*
X3233500Y-17765929D01*
X3219214Y-17751643D01*
X3204928Y-17723072D01*
X3190643Y-17665929D01*
X3190643Y-17594500D01*
X3204928Y-17537357D01*
X3219214Y-17508786D01*
X3233500Y-17494500D01*
X3262071Y-17480214D01*
X3490643Y-17751643D02*
X3504928Y-17765929D01*
X3490643Y-17780214D01*
X3476357Y-17765929D01*
X3490643Y-17751643D01*
X3490643Y-17780214D01*
X3647786Y-17780214D02*
X3704928Y-17780214D01*
X3733500Y-17765929D01*
X3747786Y-17751643D01*
X3776357Y-17708786D01*
X3790643Y-17651643D01*
X3790643Y-17537357D01*
X3776357Y-17508786D01*
X3762071Y-17494500D01*
X3733500Y-17480214D01*
X3676357Y-17480214D01*
X3647786Y-17494500D01*
X3633500Y-17508786D01*
X3619214Y-17537357D01*
X3619214Y-17608786D01*
X3633500Y-17637357D01*
X3647786Y-17651643D01*
X3676357Y-17665929D01*
X3733500Y-17665929D01*
X3762071Y-17651643D01*
X3776357Y-17637357D01*
X3790643Y-17608786D01*
X3976357Y-17480214D02*
X4004928Y-17480214D01*
X4033500Y-17494500D01*
X4047786Y-17508786D01*
X4062071Y-17537357D01*
X4076357Y-17594500D01*
X4076357Y-17665929D01*
X4062071Y-17723072D01*
X4047786Y-17751643D01*
X4033500Y-17765929D01*
X4004928Y-17780214D01*
X3976357Y-17780214D01*
X3947786Y-17765929D01*
X3933500Y-17751643D01*
X3919214Y-17723072D01*
X3904928Y-17665929D01*
X3904928Y-17594500D01*
X3919214Y-17537357D01*
X3933500Y-17508786D01*
X3947786Y-17494500D01*
X3976357Y-17480214D01*
X4204928Y-17780214D02*
X4204928Y-17580214D01*
X4204928Y-17608786D02*
X4219214Y-17594500D01*
X4247786Y-17580214D01*
X4290643Y-17580214D01*
X4319214Y-17594500D01*
X4333500Y-17623072D01*
X4333500Y-17780214D01*
X4333500Y-17623072D02*
X4347786Y-17594500D01*
X4376357Y-17580214D01*
X4419214Y-17580214D01*
X4447786Y-17594500D01*
X4462071Y-17623072D01*
X4462071Y-17780214D01*
X4604928Y-17780214D02*
X4604928Y-17580214D01*
X4604928Y-17608786D02*
X4619214Y-17594500D01*
X4647786Y-17580214D01*
X4690643Y-17580214D01*
X4719214Y-17594500D01*
X4733500Y-17623072D01*
X4733500Y-17780214D01*
X4733500Y-17623072D02*
X4747786Y-17594500D01*
X4776357Y-17580214D01*
X4819214Y-17580214D01*
X4847786Y-17594500D01*
X4862071Y-17623072D01*
X4862071Y-17780214D01*
X5447786Y-17465929D02*
X5190643Y-17851643D01*
X5833500Y-17480214D02*
X5862071Y-17480214D01*
X5890643Y-17494500D01*
X5904928Y-17508786D01*
X5919214Y-17537357D01*
X5933500Y-17594500D01*
X5933500Y-17665929D01*
X5919214Y-17723072D01*
X5904928Y-17751643D01*
X5890643Y-17765929D01*
X5862071Y-17780214D01*
X5833500Y-17780214D01*
X5804928Y-17765929D01*
X5790643Y-17751643D01*
X5776357Y-17723072D01*
X5762071Y-17665929D01*
X5762071Y-17594500D01*
X5776357Y-17537357D01*
X5790643Y-17508786D01*
X5804928Y-17494500D01*
X5833500Y-17480214D01*
X6062071Y-17751643D02*
X6076357Y-17765929D01*
X6062071Y-17780214D01*
X6047786Y-17765929D01*
X6062071Y-17751643D01*
X6062071Y-17780214D01*
X6262071Y-17480214D02*
X6290643Y-17480214D01*
X6319214Y-17494500D01*
X6333500Y-17508786D01*
X6347786Y-17537357D01*
X6362071Y-17594500D01*
X6362071Y-17665929D01*
X6347786Y-17723072D01*
X6333500Y-17751643D01*
X6319214Y-17765929D01*
X6290643Y-17780214D01*
X6262071Y-17780214D01*
X6233500Y-17765929D01*
X6219214Y-17751643D01*
X6204928Y-17723072D01*
X6190643Y-17665929D01*
X6190643Y-17594500D01*
X6204928Y-17537357D01*
X6219214Y-17508786D01*
X6233500Y-17494500D01*
X6262071Y-17480214D01*
X6462071Y-17480214D02*
X6647786Y-17480214D01*
X6547786Y-17594500D01*
X6590643Y-17594500D01*
X6619214Y-17608786D01*
X6633500Y-17623072D01*
X6647786Y-17651643D01*
X6647786Y-17723072D01*
X6633500Y-17751643D01*
X6619214Y-17765929D01*
X6590643Y-17780214D01*
X6504928Y-17780214D01*
X6476357Y-17765929D01*
X6462071Y-17751643D01*
X6919214Y-17480214D02*
X6776357Y-17480214D01*
X6762071Y-17623072D01*
X6776357Y-17608786D01*
X6804928Y-17594500D01*
X6876357Y-17594500D01*
X6904928Y-17608786D01*
X6919214Y-17623072D01*
X6933500Y-17651643D01*
X6933500Y-17723072D01*
X6919214Y-17751643D01*
X6904928Y-17765929D01*
X6876357Y-17780214D01*
X6804928Y-17780214D01*
X6776357Y-17765929D01*
X6762071Y-17751643D01*
X7047786Y-17480214D02*
X7047786Y-17537357D01*
X7162071Y-17480214D02*
X7162071Y-17537357D01*
X7604928Y-17894500D02*
X7590643Y-17880214D01*
X7562071Y-17837357D01*
X7547786Y-17808786D01*
X7533500Y-17765929D01*
X7519214Y-17694500D01*
X7519214Y-17637357D01*
X7533500Y-17565929D01*
X7547786Y-17523072D01*
X7562071Y-17494500D01*
X7590643Y-17451643D01*
X7604928Y-17437357D01*
X7704928Y-17508786D02*
X7719214Y-17494500D01*
X7747786Y-17480214D01*
X7819214Y-17480214D01*
X7847786Y-17494500D01*
X7862071Y-17508786D01*
X7876357Y-17537357D01*
X7876357Y-17565929D01*
X7862071Y-17608786D01*
X7690643Y-17780214D01*
X7876357Y-17780214D01*
X8062071Y-17480214D02*
X8090643Y-17480214D01*
X8119214Y-17494500D01*
X8133500Y-17508786D01*
X8147786Y-17537357D01*
X8162071Y-17594500D01*
X8162071Y-17665929D01*
X8147786Y-17723072D01*
X8133500Y-17751643D01*
X8119214Y-17765929D01*
X8090643Y-17780214D01*
X8062071Y-17780214D01*
X8033500Y-17765929D01*
X8019214Y-17751643D01*
X8004928Y-17723072D01*
X7990643Y-17665929D01*
X7990643Y-17594500D01*
X8004928Y-17537357D01*
X8019214Y-17508786D01*
X8033500Y-17494500D01*
X8062071Y-17480214D01*
X8519214Y-17780214D02*
X8519214Y-17480214D01*
X8647786Y-17780214D02*
X8647786Y-17623072D01*
X8633500Y-17594500D01*
X8604928Y-17580214D01*
X8562071Y-17580214D01*
X8533500Y-17594500D01*
X8519214Y-17608786D01*
X8833500Y-17780214D02*
X8804928Y-17765929D01*
X8790643Y-17751643D01*
X8776357Y-17723072D01*
X8776357Y-17637357D01*
X8790643Y-17608786D01*
X8804928Y-17594500D01*
X8833500Y-17580214D01*
X8876357Y-17580214D01*
X8904928Y-17594500D01*
X8919214Y-17608786D01*
X8933500Y-17637357D01*
X8933500Y-17723072D01*
X8919214Y-17751643D01*
X8904928Y-17765929D01*
X8876357Y-17780214D01*
X8833500Y-17780214D01*
X9104928Y-17780214D02*
X9076357Y-17765929D01*
X9062071Y-17737357D01*
X9062071Y-17480214D01*
X9333500Y-17765929D02*
X9304928Y-17780214D01*
X9247786Y-17780214D01*
X9219214Y-17765929D01*
X9204928Y-17737357D01*
X9204928Y-17623072D01*
X9219214Y-17594500D01*
X9247786Y-17580214D01*
X9304928Y-17580214D01*
X9333500Y-17594500D01*
X9347786Y-17623072D01*
X9347786Y-17651643D01*
X9204928Y-17680214D01*
X9462071Y-17765929D02*
X9490643Y-17780214D01*
X9547786Y-17780214D01*
X9576357Y-17765929D01*
X9590643Y-17737357D01*
X9590643Y-17723072D01*
X9576357Y-17694500D01*
X9547786Y-17680214D01*
X9504928Y-17680214D01*
X9476357Y-17665929D01*
X9462071Y-17637357D01*
X9462071Y-17623072D01*
X9476357Y-17594500D01*
X9504928Y-17580214D01*
X9547786Y-17580214D01*
X9576357Y-17594500D01*
X9690643Y-17894500D02*
X9704928Y-17880214D01*
X9733500Y-17837357D01*
X9747786Y-17808786D01*
X9762071Y-17765929D01*
X9776357Y-17694500D01*
X9776357Y-17637357D01*
X9762071Y-17565929D01*
X9747786Y-17523072D01*
X9733500Y-17494500D01*
X9704928Y-17451643D01*
X9690643Y-17437357D01*
X2868500Y-18090500D02*
X2918500Y-18040500D01*
X2868500Y-17990500D01*
X2818500Y-18040500D01*
X2868500Y-18090500D01*
X3362071Y-18176214D02*
X3190643Y-18176214D01*
X3276357Y-18176214D02*
X3276357Y-17876214D01*
X3247786Y-17919072D01*
X3219214Y-17947643D01*
X3190643Y-17961929D01*
X3490643Y-18147643D02*
X3504928Y-18161929D01*
X3490643Y-18176214D01*
X3476357Y-18161929D01*
X3490643Y-18147643D01*
X3490643Y-18176214D01*
X3690643Y-17876214D02*
X3719214Y-17876214D01*
X3747786Y-17890500D01*
X3762071Y-17904786D01*
X3776357Y-17933357D01*
X3790643Y-17990500D01*
X3790643Y-18061929D01*
X3776357Y-18119072D01*
X3762071Y-18147643D01*
X3747786Y-18161929D01*
X3719214Y-18176214D01*
X3690643Y-18176214D01*
X3662071Y-18161929D01*
X3647786Y-18147643D01*
X3633500Y-18119072D01*
X3619214Y-18061929D01*
X3619214Y-17990500D01*
X3633500Y-17933357D01*
X3647786Y-17904786D01*
X3662071Y-17890500D01*
X3690643Y-17876214D01*
X3976357Y-17876214D02*
X4004928Y-17876214D01*
X4033500Y-17890500D01*
X4047786Y-17904786D01*
X4062071Y-17933357D01*
X4076357Y-17990500D01*
X4076357Y-18061929D01*
X4062071Y-18119072D01*
X4047786Y-18147643D01*
X4033500Y-18161929D01*
X4004928Y-18176214D01*
X3976357Y-18176214D01*
X3947786Y-18161929D01*
X3933500Y-18147643D01*
X3919214Y-18119072D01*
X3904928Y-18061929D01*
X3904928Y-17990500D01*
X3919214Y-17933357D01*
X3933500Y-17904786D01*
X3947786Y-17890500D01*
X3976357Y-17876214D01*
X4204928Y-18176214D02*
X4204928Y-17976214D01*
X4204928Y-18004786D02*
X4219214Y-17990500D01*
X4247786Y-17976214D01*
X4290643Y-17976214D01*
X4319214Y-17990500D01*
X4333500Y-18019072D01*
X4333500Y-18176214D01*
X4333500Y-18019072D02*
X4347786Y-17990500D01*
X4376357Y-17976214D01*
X4419214Y-17976214D01*
X4447786Y-17990500D01*
X4462071Y-18019072D01*
X4462071Y-18176214D01*
X4604928Y-18176214D02*
X4604928Y-17976214D01*
X4604928Y-18004786D02*
X4619214Y-17990500D01*
X4647786Y-17976214D01*
X4690643Y-17976214D01*
X4719214Y-17990500D01*
X4733500Y-18019072D01*
X4733500Y-18176214D01*
X4733500Y-18019072D02*
X4747786Y-17990500D01*
X4776357Y-17976214D01*
X4819214Y-17976214D01*
X4847786Y-17990500D01*
X4862071Y-18019072D01*
X4862071Y-18176214D01*
X5447786Y-17861929D02*
X5190643Y-18247643D01*
X5833500Y-17876214D02*
X5862071Y-17876214D01*
X5890643Y-17890500D01*
X5904928Y-17904786D01*
X5919214Y-17933357D01*
X5933500Y-17990500D01*
X5933500Y-18061929D01*
X5919214Y-18119072D01*
X5904928Y-18147643D01*
X5890643Y-18161929D01*
X5862071Y-18176214D01*
X5833500Y-18176214D01*
X5804928Y-18161929D01*
X5790643Y-18147643D01*
X5776357Y-18119072D01*
X5762071Y-18061929D01*
X5762071Y-17990500D01*
X5776357Y-17933357D01*
X5790643Y-17904786D01*
X5804928Y-17890500D01*
X5833500Y-17876214D01*
X6062071Y-18147643D02*
X6076357Y-18161929D01*
X6062071Y-18176214D01*
X6047786Y-18161929D01*
X6062071Y-18147643D01*
X6062071Y-18176214D01*
X6262071Y-17876214D02*
X6290643Y-17876214D01*
X6319214Y-17890500D01*
X6333500Y-17904786D01*
X6347786Y-17933357D01*
X6362071Y-17990500D01*
X6362071Y-18061929D01*
X6347786Y-18119072D01*
X6333500Y-18147643D01*
X6319214Y-18161929D01*
X6290643Y-18176214D01*
X6262071Y-18176214D01*
X6233500Y-18161929D01*
X6219214Y-18147643D01*
X6204928Y-18119072D01*
X6190643Y-18061929D01*
X6190643Y-17990500D01*
X6204928Y-17933357D01*
X6219214Y-17904786D01*
X6233500Y-17890500D01*
X6262071Y-17876214D01*
X6462071Y-17876214D02*
X6647786Y-17876214D01*
X6547786Y-17990500D01*
X6590643Y-17990500D01*
X6619214Y-18004786D01*
X6633500Y-18019072D01*
X6647786Y-18047643D01*
X6647786Y-18119072D01*
X6633500Y-18147643D01*
X6619214Y-18161929D01*
X6590643Y-18176214D01*
X6504928Y-18176214D01*
X6476357Y-18161929D01*
X6462071Y-18147643D01*
X6790643Y-18176214D02*
X6847786Y-18176214D01*
X6876357Y-18161929D01*
X6890643Y-18147643D01*
X6919214Y-18104786D01*
X6933500Y-18047643D01*
X6933500Y-17933357D01*
X6919214Y-17904786D01*
X6904928Y-17890500D01*
X6876357Y-17876214D01*
X6819214Y-17876214D01*
X6790643Y-17890500D01*
X6776357Y-17904786D01*
X6762071Y-17933357D01*
X6762071Y-18004786D01*
X6776357Y-18033357D01*
X6790643Y-18047643D01*
X6819214Y-18061929D01*
X6876357Y-18061929D01*
X6904928Y-18047643D01*
X6919214Y-18033357D01*
X6933500Y-18004786D01*
X7047786Y-17876214D02*
X7047786Y-17933357D01*
X7162071Y-17876214D02*
X7162071Y-17933357D01*
X7604928Y-18290500D02*
X7590643Y-18276214D01*
X7562071Y-18233357D01*
X7547786Y-18204786D01*
X7533500Y-18161929D01*
X7519214Y-18090500D01*
X7519214Y-18033357D01*
X7533500Y-17961929D01*
X7547786Y-17919072D01*
X7562071Y-17890500D01*
X7590643Y-17847643D01*
X7604928Y-17833357D01*
X7862071Y-17876214D02*
X7719214Y-17876214D01*
X7704928Y-18019072D01*
X7719214Y-18004786D01*
X7747786Y-17990500D01*
X7819214Y-17990500D01*
X7847786Y-18004786D01*
X7862071Y-18019072D01*
X7876357Y-18047643D01*
X7876357Y-18119072D01*
X7862071Y-18147643D01*
X7847786Y-18161929D01*
X7819214Y-18176214D01*
X7747786Y-18176214D01*
X7719214Y-18161929D01*
X7704928Y-18147643D01*
X8162071Y-18176214D02*
X7990643Y-18176214D01*
X8076357Y-18176214D02*
X8076357Y-17876214D01*
X8047786Y-17919072D01*
X8019214Y-17947643D01*
X7990643Y-17961929D01*
X8519214Y-18176214D02*
X8519214Y-17876214D01*
X8647786Y-18176214D02*
X8647786Y-18019072D01*
X8633500Y-17990500D01*
X8604928Y-17976214D01*
X8562071Y-17976214D01*
X8533500Y-17990500D01*
X8519214Y-18004786D01*
X8833500Y-18176214D02*
X8804928Y-18161929D01*
X8790643Y-18147643D01*
X8776357Y-18119072D01*
X8776357Y-18033357D01*
X8790643Y-18004786D01*
X8804928Y-17990500D01*
X8833500Y-17976214D01*
X8876357Y-17976214D01*
X8904928Y-17990500D01*
X8919214Y-18004786D01*
X8933500Y-18033357D01*
X8933500Y-18119072D01*
X8919214Y-18147643D01*
X8904928Y-18161929D01*
X8876357Y-18176214D01*
X8833500Y-18176214D01*
X9104928Y-18176214D02*
X9076357Y-18161929D01*
X9062071Y-18133357D01*
X9062071Y-17876214D01*
X9333500Y-18161929D02*
X9304928Y-18176214D01*
X9247786Y-18176214D01*
X9219214Y-18161929D01*
X9204928Y-18133357D01*
X9204928Y-18019072D01*
X9219214Y-17990500D01*
X9247786Y-17976214D01*
X9304928Y-17976214D01*
X9333500Y-17990500D01*
X9347786Y-18019072D01*
X9347786Y-18047643D01*
X9204928Y-18076214D01*
X9462071Y-18161929D02*
X9490643Y-18176214D01*
X9547786Y-18176214D01*
X9576357Y-18161929D01*
X9590643Y-18133357D01*
X9590643Y-18119072D01*
X9576357Y-18090500D01*
X9547786Y-18076214D01*
X9504928Y-18076214D01*
X9476357Y-18061929D01*
X9462071Y-18033357D01*
X9462071Y-18019072D01*
X9476357Y-17990500D01*
X9504928Y-17976214D01*
X9547786Y-17976214D01*
X9576357Y-17990500D01*
X9690643Y-18290500D02*
X9704928Y-18276214D01*
X9733500Y-18233357D01*
X9747786Y-18204786D01*
X9762071Y-18161929D01*
X9776357Y-18090500D01*
X9776357Y-18033357D01*
X9762071Y-17961929D01*
X9747786Y-17919072D01*
X9733500Y-17890500D01*
X9704928Y-17847643D01*
X9690643Y-17833357D01*
X2808500Y-18381500D02*
X2918500Y-18491500D01*
X2918500Y-18381500D02*
X2808500Y-18491500D01*
X2918500Y-18436500D02*
G75*
G03X2918500Y-18436500I-55000J0D01*
G01*
X3362071Y-18572214D02*
X3190643Y-18572214D01*
X3276357Y-18572214D02*
X3276357Y-18272214D01*
X3247786Y-18315072D01*
X3219214Y-18343643D01*
X3190643Y-18357929D01*
X3490643Y-18543643D02*
X3504928Y-18557929D01*
X3490643Y-18572214D01*
X3476357Y-18557929D01*
X3490643Y-18543643D01*
X3490643Y-18572214D01*
X3790643Y-18572214D02*
X3619214Y-18572214D01*
X3704928Y-18572214D02*
X3704928Y-18272214D01*
X3676357Y-18315072D01*
X3647786Y-18343643D01*
X3619214Y-18357929D01*
X3976357Y-18272214D02*
X4004928Y-18272214D01*
X4033500Y-18286500D01*
X4047786Y-18300786D01*
X4062071Y-18329357D01*
X4076357Y-18386500D01*
X4076357Y-18457929D01*
X4062071Y-18515072D01*
X4047786Y-18543643D01*
X4033500Y-18557929D01*
X4004928Y-18572214D01*
X3976357Y-18572214D01*
X3947786Y-18557929D01*
X3933500Y-18543643D01*
X3919214Y-18515072D01*
X3904928Y-18457929D01*
X3904928Y-18386500D01*
X3919214Y-18329357D01*
X3933500Y-18300786D01*
X3947786Y-18286500D01*
X3976357Y-18272214D01*
X4204928Y-18572214D02*
X4204928Y-18372214D01*
X4204928Y-18400786D02*
X4219214Y-18386500D01*
X4247786Y-18372214D01*
X4290643Y-18372214D01*
X4319214Y-18386500D01*
X4333500Y-18415072D01*
X4333500Y-18572214D01*
X4333500Y-18415072D02*
X4347786Y-18386500D01*
X4376357Y-18372214D01*
X4419214Y-18372214D01*
X4447786Y-18386500D01*
X4462071Y-18415072D01*
X4462071Y-18572214D01*
X4604928Y-18572214D02*
X4604928Y-18372214D01*
X4604928Y-18400786D02*
X4619214Y-18386500D01*
X4647786Y-18372214D01*
X4690643Y-18372214D01*
X4719214Y-18386500D01*
X4733500Y-18415072D01*
X4733500Y-18572214D01*
X4733500Y-18415072D02*
X4747786Y-18386500D01*
X4776357Y-18372214D01*
X4819214Y-18372214D01*
X4847786Y-18386500D01*
X4862071Y-18415072D01*
X4862071Y-18572214D01*
X5447786Y-18257929D02*
X5190643Y-18643643D01*
X5833500Y-18272214D02*
X5862071Y-18272214D01*
X5890643Y-18286500D01*
X5904928Y-18300786D01*
X5919214Y-18329357D01*
X5933500Y-18386500D01*
X5933500Y-18457929D01*
X5919214Y-18515072D01*
X5904928Y-18543643D01*
X5890643Y-18557929D01*
X5862071Y-18572214D01*
X5833500Y-18572214D01*
X5804928Y-18557929D01*
X5790643Y-18543643D01*
X5776357Y-18515072D01*
X5762071Y-18457929D01*
X5762071Y-18386500D01*
X5776357Y-18329357D01*
X5790643Y-18300786D01*
X5804928Y-18286500D01*
X5833500Y-18272214D01*
X6062071Y-18543643D02*
X6076357Y-18557929D01*
X6062071Y-18572214D01*
X6047786Y-18557929D01*
X6062071Y-18543643D01*
X6062071Y-18572214D01*
X6262071Y-18272214D02*
X6290643Y-18272214D01*
X6319214Y-18286500D01*
X6333500Y-18300786D01*
X6347786Y-18329357D01*
X6362071Y-18386500D01*
X6362071Y-18457929D01*
X6347786Y-18515072D01*
X6333500Y-18543643D01*
X6319214Y-18557929D01*
X6290643Y-18572214D01*
X6262071Y-18572214D01*
X6233500Y-18557929D01*
X6219214Y-18543643D01*
X6204928Y-18515072D01*
X6190643Y-18457929D01*
X6190643Y-18386500D01*
X6204928Y-18329357D01*
X6219214Y-18300786D01*
X6233500Y-18286500D01*
X6262071Y-18272214D01*
X6619214Y-18372214D02*
X6619214Y-18572214D01*
X6547786Y-18257929D02*
X6476357Y-18472214D01*
X6662071Y-18472214D01*
X6747786Y-18272214D02*
X6933500Y-18272214D01*
X6833500Y-18386500D01*
X6876357Y-18386500D01*
X6904928Y-18400786D01*
X6919214Y-18415072D01*
X6933500Y-18443643D01*
X6933500Y-18515072D01*
X6919214Y-18543643D01*
X6904928Y-18557929D01*
X6876357Y-18572214D01*
X6790643Y-18572214D01*
X6762071Y-18557929D01*
X6747786Y-18543643D01*
X7047786Y-18272214D02*
X7047786Y-18329357D01*
X7162071Y-18272214D02*
X7162071Y-18329357D01*
X7604928Y-18686500D02*
X7590643Y-18672214D01*
X7562071Y-18629357D01*
X7547786Y-18600786D01*
X7533500Y-18557929D01*
X7519214Y-18486500D01*
X7519214Y-18429357D01*
X7533500Y-18357929D01*
X7547786Y-18315072D01*
X7562071Y-18286500D01*
X7590643Y-18243643D01*
X7604928Y-18229357D01*
X7690643Y-18272214D02*
X7876357Y-18272214D01*
X7776357Y-18386500D01*
X7819214Y-18386500D01*
X7847786Y-18400786D01*
X7862071Y-18415072D01*
X7876357Y-18443643D01*
X7876357Y-18515072D01*
X7862071Y-18543643D01*
X7847786Y-18557929D01*
X7819214Y-18572214D01*
X7733500Y-18572214D01*
X7704928Y-18557929D01*
X7690643Y-18543643D01*
X8233500Y-18572214D02*
X8233500Y-18272214D01*
X8362071Y-18572214D02*
X8362071Y-18415072D01*
X8347786Y-18386500D01*
X8319214Y-18372214D01*
X8276357Y-18372214D01*
X8247786Y-18386500D01*
X8233500Y-18400786D01*
X8547786Y-18572214D02*
X8519214Y-18557929D01*
X8504928Y-18543643D01*
X8490643Y-18515072D01*
X8490643Y-18429357D01*
X8504928Y-18400786D01*
X8519214Y-18386500D01*
X8547786Y-18372214D01*
X8590643Y-18372214D01*
X8619214Y-18386500D01*
X8633500Y-18400786D01*
X8647786Y-18429357D01*
X8647786Y-18515072D01*
X8633500Y-18543643D01*
X8619214Y-18557929D01*
X8590643Y-18572214D01*
X8547786Y-18572214D01*
X8819214Y-18572214D02*
X8790643Y-18557929D01*
X8776357Y-18529357D01*
X8776357Y-18272214D01*
X9047786Y-18557929D02*
X9019214Y-18572214D01*
X8962071Y-18572214D01*
X8933500Y-18557929D01*
X8919214Y-18529357D01*
X8919214Y-18415072D01*
X8933500Y-18386500D01*
X8962071Y-18372214D01*
X9019214Y-18372214D01*
X9047786Y-18386500D01*
X9062071Y-18415072D01*
X9062071Y-18443643D01*
X8919214Y-18472214D01*
X9176357Y-18557929D02*
X9204928Y-18572214D01*
X9262071Y-18572214D01*
X9290643Y-18557929D01*
X9304928Y-18529357D01*
X9304928Y-18515072D01*
X9290643Y-18486500D01*
X9262071Y-18472214D01*
X9219214Y-18472214D01*
X9190643Y-18457929D01*
X9176357Y-18429357D01*
X9176357Y-18415072D01*
X9190643Y-18386500D01*
X9219214Y-18372214D01*
X9262071Y-18372214D01*
X9290643Y-18386500D01*
X9404928Y-18686500D02*
X9419214Y-18672214D01*
X9447786Y-18629357D01*
X9462071Y-18600786D01*
X9476357Y-18557929D01*
X9490643Y-18486500D01*
X9490643Y-18429357D01*
X9476357Y-18357929D01*
X9462071Y-18315072D01*
X9447786Y-18286500D01*
X9419214Y-18243643D01*
X9404928Y-18229357D01*
X2788500Y-18767500D02*
X2918500Y-18897500D01*
X2918500Y-18767500D02*
X2788500Y-18897500D01*
X2853500Y-18767500D02*
X2853500Y-18897500D01*
X2788500Y-18832500D02*
X2918500Y-18832500D01*
X3362071Y-18968214D02*
X3190643Y-18968214D01*
X3276357Y-18968214D02*
X3276357Y-18668214D01*
X3247786Y-18711072D01*
X3219214Y-18739643D01*
X3190643Y-18753929D01*
X3490643Y-18939643D02*
X3504928Y-18953929D01*
X3490643Y-18968214D01*
X3476357Y-18953929D01*
X3490643Y-18939643D01*
X3490643Y-18968214D01*
X3604928Y-18668214D02*
X3790643Y-18668214D01*
X3690643Y-18782500D01*
X3733500Y-18782500D01*
X3762071Y-18796786D01*
X3776357Y-18811072D01*
X3790643Y-18839643D01*
X3790643Y-18911072D01*
X3776357Y-18939643D01*
X3762071Y-18953929D01*
X3733500Y-18968214D01*
X3647786Y-18968214D01*
X3619214Y-18953929D01*
X3604928Y-18939643D01*
X3976357Y-18668214D02*
X4004928Y-18668214D01*
X4033500Y-18682500D01*
X4047786Y-18696786D01*
X4062071Y-18725357D01*
X4076357Y-18782500D01*
X4076357Y-18853929D01*
X4062071Y-18911072D01*
X4047786Y-18939643D01*
X4033500Y-18953929D01*
X4004928Y-18968214D01*
X3976357Y-18968214D01*
X3947786Y-18953929D01*
X3933500Y-18939643D01*
X3919214Y-18911072D01*
X3904928Y-18853929D01*
X3904928Y-18782500D01*
X3919214Y-18725357D01*
X3933500Y-18696786D01*
X3947786Y-18682500D01*
X3976357Y-18668214D01*
X4204928Y-18968214D02*
X4204928Y-18768214D01*
X4204928Y-18796786D02*
X4219214Y-18782500D01*
X4247786Y-18768214D01*
X4290643Y-18768214D01*
X4319214Y-18782500D01*
X4333500Y-18811072D01*
X4333500Y-18968214D01*
X4333500Y-18811072D02*
X4347786Y-18782500D01*
X4376357Y-18768214D01*
X4419214Y-18768214D01*
X4447786Y-18782500D01*
X4462071Y-18811072D01*
X4462071Y-18968214D01*
X4604928Y-18968214D02*
X4604928Y-18768214D01*
X4604928Y-18796786D02*
X4619214Y-18782500D01*
X4647786Y-18768214D01*
X4690643Y-18768214D01*
X4719214Y-18782500D01*
X4733500Y-18811072D01*
X4733500Y-18968214D01*
X4733500Y-18811072D02*
X4747786Y-18782500D01*
X4776357Y-18768214D01*
X4819214Y-18768214D01*
X4847786Y-18782500D01*
X4862071Y-18811072D01*
X4862071Y-18968214D01*
X5447786Y-18653929D02*
X5190643Y-19039643D01*
X5833500Y-18668214D02*
X5862071Y-18668214D01*
X5890643Y-18682500D01*
X5904928Y-18696786D01*
X5919214Y-18725357D01*
X5933500Y-18782500D01*
X5933500Y-18853929D01*
X5919214Y-18911072D01*
X5904928Y-18939643D01*
X5890643Y-18953929D01*
X5862071Y-18968214D01*
X5833500Y-18968214D01*
X5804928Y-18953929D01*
X5790643Y-18939643D01*
X5776357Y-18911072D01*
X5762071Y-18853929D01*
X5762071Y-18782500D01*
X5776357Y-18725357D01*
X5790643Y-18696786D01*
X5804928Y-18682500D01*
X5833500Y-18668214D01*
X6062071Y-18939643D02*
X6076357Y-18953929D01*
X6062071Y-18968214D01*
X6047786Y-18953929D01*
X6062071Y-18939643D01*
X6062071Y-18968214D01*
X6262071Y-18668214D02*
X6290643Y-18668214D01*
X6319214Y-18682500D01*
X6333500Y-18696786D01*
X6347786Y-18725357D01*
X6362071Y-18782500D01*
X6362071Y-18853929D01*
X6347786Y-18911072D01*
X6333500Y-18939643D01*
X6319214Y-18953929D01*
X6290643Y-18968214D01*
X6262071Y-18968214D01*
X6233500Y-18953929D01*
X6219214Y-18939643D01*
X6204928Y-18911072D01*
X6190643Y-18853929D01*
X6190643Y-18782500D01*
X6204928Y-18725357D01*
X6219214Y-18696786D01*
X6233500Y-18682500D01*
X6262071Y-18668214D01*
X6633500Y-18668214D02*
X6490643Y-18668214D01*
X6476357Y-18811072D01*
X6490643Y-18796786D01*
X6519214Y-18782500D01*
X6590643Y-18782500D01*
X6619214Y-18796786D01*
X6633500Y-18811072D01*
X6647786Y-18839643D01*
X6647786Y-18911072D01*
X6633500Y-18939643D01*
X6619214Y-18953929D01*
X6590643Y-18968214D01*
X6519214Y-18968214D01*
X6490643Y-18953929D01*
X6476357Y-18939643D01*
X6933500Y-18968214D02*
X6762071Y-18968214D01*
X6847786Y-18968214D02*
X6847786Y-18668214D01*
X6819214Y-18711072D01*
X6790643Y-18739643D01*
X6762071Y-18753929D01*
X7047786Y-18668214D02*
X7047786Y-18725357D01*
X7162071Y-18668214D02*
X7162071Y-18725357D01*
X7604928Y-19082500D02*
X7590643Y-19068214D01*
X7562071Y-19025357D01*
X7547786Y-18996786D01*
X7533500Y-18953929D01*
X7519214Y-18882500D01*
X7519214Y-18825357D01*
X7533500Y-18753929D01*
X7547786Y-18711072D01*
X7562071Y-18682500D01*
X7590643Y-18639643D01*
X7604928Y-18625357D01*
X7847786Y-18668214D02*
X7790643Y-18668214D01*
X7762071Y-18682500D01*
X7747786Y-18696786D01*
X7719214Y-18739643D01*
X7704928Y-18796786D01*
X7704928Y-18911072D01*
X7719214Y-18939643D01*
X7733500Y-18953929D01*
X7762071Y-18968214D01*
X7819214Y-18968214D01*
X7847786Y-18953929D01*
X7862071Y-18939643D01*
X7876357Y-18911072D01*
X7876357Y-18839643D01*
X7862071Y-18811072D01*
X7847786Y-18796786D01*
X7819214Y-18782500D01*
X7762071Y-18782500D01*
X7733500Y-18796786D01*
X7719214Y-18811072D01*
X7704928Y-18839643D01*
X8233500Y-18968214D02*
X8233500Y-18668214D01*
X8362071Y-18968214D02*
X8362071Y-18811072D01*
X8347786Y-18782500D01*
X8319214Y-18768214D01*
X8276357Y-18768214D01*
X8247786Y-18782500D01*
X8233500Y-18796786D01*
X8547786Y-18968214D02*
X8519214Y-18953929D01*
X8504928Y-18939643D01*
X8490643Y-18911072D01*
X8490643Y-18825357D01*
X8504928Y-18796786D01*
X8519214Y-18782500D01*
X8547786Y-18768214D01*
X8590643Y-18768214D01*
X8619214Y-18782500D01*
X8633500Y-18796786D01*
X8647786Y-18825357D01*
X8647786Y-18911072D01*
X8633500Y-18939643D01*
X8619214Y-18953929D01*
X8590643Y-18968214D01*
X8547786Y-18968214D01*
X8819214Y-18968214D02*
X8790643Y-18953929D01*
X8776357Y-18925357D01*
X8776357Y-18668214D01*
X9047786Y-18953929D02*
X9019214Y-18968214D01*
X8962071Y-18968214D01*
X8933500Y-18953929D01*
X8919214Y-18925357D01*
X8919214Y-18811072D01*
X8933500Y-18782500D01*
X8962071Y-18768214D01*
X9019214Y-18768214D01*
X9047786Y-18782500D01*
X9062071Y-18811072D01*
X9062071Y-18839643D01*
X8919214Y-18868214D01*
X9176357Y-18953929D02*
X9204928Y-18968214D01*
X9262071Y-18968214D01*
X9290643Y-18953929D01*
X9304928Y-18925357D01*
X9304928Y-18911072D01*
X9290643Y-18882500D01*
X9262071Y-18868214D01*
X9219214Y-18868214D01*
X9190643Y-18853929D01*
X9176357Y-18825357D01*
X9176357Y-18811072D01*
X9190643Y-18782500D01*
X9219214Y-18768214D01*
X9262071Y-18768214D01*
X9290643Y-18782500D01*
X9404928Y-19082500D02*
X9419214Y-19068214D01*
X9447786Y-19025357D01*
X9462071Y-18996786D01*
X9476357Y-18953929D01*
X9490643Y-18882500D01*
X9490643Y-18825357D01*
X9476357Y-18753929D01*
X9462071Y-18711072D01*
X9447786Y-18682500D01*
X9419214Y-18639643D01*
X9404928Y-18625357D01*
X2768500Y-19153500D02*
X2918500Y-19303500D01*
X2918500Y-19153500D02*
X2768500Y-19303500D01*
X2896533Y-19281534D02*
X2896533Y-19175467D01*
X2790466Y-19175467D01*
X2790466Y-19281534D01*
X2896533Y-19281534D01*
X3362071Y-19364214D02*
X3190643Y-19364214D01*
X3276357Y-19364214D02*
X3276357Y-19064214D01*
X3247786Y-19107072D01*
X3219214Y-19135643D01*
X3190643Y-19149929D01*
X3490643Y-19335643D02*
X3504928Y-19349929D01*
X3490643Y-19364214D01*
X3476357Y-19349929D01*
X3490643Y-19335643D01*
X3490643Y-19364214D01*
X3776357Y-19064214D02*
X3633500Y-19064214D01*
X3619214Y-19207072D01*
X3633500Y-19192786D01*
X3662071Y-19178500D01*
X3733500Y-19178500D01*
X3762071Y-19192786D01*
X3776357Y-19207072D01*
X3790643Y-19235643D01*
X3790643Y-19307072D01*
X3776357Y-19335643D01*
X3762071Y-19349929D01*
X3733500Y-19364214D01*
X3662071Y-19364214D01*
X3633500Y-19349929D01*
X3619214Y-19335643D01*
X3976357Y-19064214D02*
X4004928Y-19064214D01*
X4033500Y-19078500D01*
X4047786Y-19092786D01*
X4062071Y-19121357D01*
X4076357Y-19178500D01*
X4076357Y-19249929D01*
X4062071Y-19307072D01*
X4047786Y-19335643D01*
X4033500Y-19349929D01*
X4004928Y-19364214D01*
X3976357Y-19364214D01*
X3947786Y-19349929D01*
X3933500Y-19335643D01*
X3919214Y-19307072D01*
X3904928Y-19249929D01*
X3904928Y-19178500D01*
X3919214Y-19121357D01*
X3933500Y-19092786D01*
X3947786Y-19078500D01*
X3976357Y-19064214D01*
X4204928Y-19364214D02*
X4204928Y-19164214D01*
X4204928Y-19192786D02*
X4219214Y-19178500D01*
X4247786Y-19164214D01*
X4290643Y-19164214D01*
X4319214Y-19178500D01*
X4333500Y-19207072D01*
X4333500Y-19364214D01*
X4333500Y-19207072D02*
X4347786Y-19178500D01*
X4376357Y-19164214D01*
X4419214Y-19164214D01*
X4447786Y-19178500D01*
X4462071Y-19207072D01*
X4462071Y-19364214D01*
X4604928Y-19364214D02*
X4604928Y-19164214D01*
X4604928Y-19192786D02*
X4619214Y-19178500D01*
X4647786Y-19164214D01*
X4690643Y-19164214D01*
X4719214Y-19178500D01*
X4733500Y-19207072D01*
X4733500Y-19364214D01*
X4733500Y-19207072D02*
X4747786Y-19178500D01*
X4776357Y-19164214D01*
X4819214Y-19164214D01*
X4847786Y-19178500D01*
X4862071Y-19207072D01*
X4862071Y-19364214D01*
X5447786Y-19049929D02*
X5190643Y-19435643D01*
X5833500Y-19064214D02*
X5862071Y-19064214D01*
X5890643Y-19078500D01*
X5904928Y-19092786D01*
X5919214Y-19121357D01*
X5933500Y-19178500D01*
X5933500Y-19249929D01*
X5919214Y-19307072D01*
X5904928Y-19335643D01*
X5890643Y-19349929D01*
X5862071Y-19364214D01*
X5833500Y-19364214D01*
X5804928Y-19349929D01*
X5790643Y-19335643D01*
X5776357Y-19307072D01*
X5762071Y-19249929D01*
X5762071Y-19178500D01*
X5776357Y-19121357D01*
X5790643Y-19092786D01*
X5804928Y-19078500D01*
X5833500Y-19064214D01*
X6062071Y-19335643D02*
X6076357Y-19349929D01*
X6062071Y-19364214D01*
X6047786Y-19349929D01*
X6062071Y-19335643D01*
X6062071Y-19364214D01*
X6262071Y-19064214D02*
X6290643Y-19064214D01*
X6319214Y-19078500D01*
X6333500Y-19092786D01*
X6347786Y-19121357D01*
X6362071Y-19178500D01*
X6362071Y-19249929D01*
X6347786Y-19307072D01*
X6333500Y-19335643D01*
X6319214Y-19349929D01*
X6290643Y-19364214D01*
X6262071Y-19364214D01*
X6233500Y-19349929D01*
X6219214Y-19335643D01*
X6204928Y-19307072D01*
X6190643Y-19249929D01*
X6190643Y-19178500D01*
X6204928Y-19121357D01*
X6219214Y-19092786D01*
X6233500Y-19078500D01*
X6262071Y-19064214D01*
X6633500Y-19064214D02*
X6490643Y-19064214D01*
X6476357Y-19207072D01*
X6490643Y-19192786D01*
X6519214Y-19178500D01*
X6590643Y-19178500D01*
X6619214Y-19192786D01*
X6633500Y-19207072D01*
X6647786Y-19235643D01*
X6647786Y-19307072D01*
X6633500Y-19335643D01*
X6619214Y-19349929D01*
X6590643Y-19364214D01*
X6519214Y-19364214D01*
X6490643Y-19349929D01*
X6476357Y-19335643D01*
X6790643Y-19364214D02*
X6847786Y-19364214D01*
X6876357Y-19349929D01*
X6890643Y-19335643D01*
X6919214Y-19292786D01*
X6933500Y-19235643D01*
X6933500Y-19121357D01*
X6919214Y-19092786D01*
X6904928Y-19078500D01*
X6876357Y-19064214D01*
X6819214Y-19064214D01*
X6790643Y-19078500D01*
X6776357Y-19092786D01*
X6762071Y-19121357D01*
X6762071Y-19192786D01*
X6776357Y-19221357D01*
X6790643Y-19235643D01*
X6819214Y-19249929D01*
X6876357Y-19249929D01*
X6904928Y-19235643D01*
X6919214Y-19221357D01*
X6933500Y-19192786D01*
X7047786Y-19064214D02*
X7047786Y-19121357D01*
X7162071Y-19064214D02*
X7162071Y-19121357D01*
X7604928Y-19478500D02*
X7590643Y-19464214D01*
X7562071Y-19421357D01*
X7547786Y-19392786D01*
X7533500Y-19349929D01*
X7519214Y-19278500D01*
X7519214Y-19221357D01*
X7533500Y-19149929D01*
X7547786Y-19107072D01*
X7562071Y-19078500D01*
X7590643Y-19035643D01*
X7604928Y-19021357D01*
X7704928Y-19092786D02*
X7719214Y-19078500D01*
X7747786Y-19064214D01*
X7819214Y-19064214D01*
X7847786Y-19078500D01*
X7862071Y-19092786D01*
X7876357Y-19121357D01*
X7876357Y-19149929D01*
X7862071Y-19192786D01*
X7690643Y-19364214D01*
X7876357Y-19364214D01*
X8233500Y-19364214D02*
X8233500Y-19064214D01*
X8362071Y-19364214D02*
X8362071Y-19207072D01*
X8347786Y-19178500D01*
X8319214Y-19164214D01*
X8276357Y-19164214D01*
X8247786Y-19178500D01*
X8233500Y-19192786D01*
X8547786Y-19364214D02*
X8519214Y-19349929D01*
X8504928Y-19335643D01*
X8490643Y-19307072D01*
X8490643Y-19221357D01*
X8504928Y-19192786D01*
X8519214Y-19178500D01*
X8547786Y-19164214D01*
X8590643Y-19164214D01*
X8619214Y-19178500D01*
X8633500Y-19192786D01*
X8647786Y-19221357D01*
X8647786Y-19307072D01*
X8633500Y-19335643D01*
X8619214Y-19349929D01*
X8590643Y-19364214D01*
X8547786Y-19364214D01*
X8819214Y-19364214D02*
X8790643Y-19349929D01*
X8776357Y-19321357D01*
X8776357Y-19064214D01*
X9047786Y-19349929D02*
X9019214Y-19364214D01*
X8962071Y-19364214D01*
X8933500Y-19349929D01*
X8919214Y-19321357D01*
X8919214Y-19207072D01*
X8933500Y-19178500D01*
X8962071Y-19164214D01*
X9019214Y-19164214D01*
X9047786Y-19178500D01*
X9062071Y-19207072D01*
X9062071Y-19235643D01*
X8919214Y-19264214D01*
X9176357Y-19349929D02*
X9204928Y-19364214D01*
X9262071Y-19364214D01*
X9290643Y-19349929D01*
X9304928Y-19321357D01*
X9304928Y-19307072D01*
X9290643Y-19278500D01*
X9262071Y-19264214D01*
X9219214Y-19264214D01*
X9190643Y-19249929D01*
X9176357Y-19221357D01*
X9176357Y-19207072D01*
X9190643Y-19178500D01*
X9219214Y-19164214D01*
X9262071Y-19164214D01*
X9290643Y-19178500D01*
X9404928Y-19478500D02*
X9419214Y-19464214D01*
X9447786Y-19421357D01*
X9462071Y-19392786D01*
X9476357Y-19349929D01*
X9490643Y-19278500D01*
X9490643Y-19221357D01*
X9476357Y-19149929D01*
X9462071Y-19107072D01*
X9447786Y-19078500D01*
X9419214Y-19035643D01*
X9404928Y-19021357D01*
X2758500Y-19544500D02*
X2918500Y-19704500D01*
X2918500Y-19544500D02*
X2758500Y-19704500D01*
X2838500Y-19704500D02*
X2918500Y-19624500D01*
X2838500Y-19544500D01*
X2758500Y-19624500D01*
X2838500Y-19704500D01*
X3362071Y-19760214D02*
X3190643Y-19760214D01*
X3276357Y-19760214D02*
X3276357Y-19460214D01*
X3247786Y-19503072D01*
X3219214Y-19531643D01*
X3190643Y-19545929D01*
X3490643Y-19731643D02*
X3504928Y-19745929D01*
X3490643Y-19760214D01*
X3476357Y-19745929D01*
X3490643Y-19731643D01*
X3490643Y-19760214D01*
X3762071Y-19460214D02*
X3704928Y-19460214D01*
X3676357Y-19474500D01*
X3662071Y-19488786D01*
X3633500Y-19531643D01*
X3619214Y-19588786D01*
X3619214Y-19703072D01*
X3633500Y-19731643D01*
X3647786Y-19745929D01*
X3676357Y-19760214D01*
X3733500Y-19760214D01*
X3762071Y-19745929D01*
X3776357Y-19731643D01*
X3790643Y-19703072D01*
X3790643Y-19631643D01*
X3776357Y-19603072D01*
X3762071Y-19588786D01*
X3733500Y-19574500D01*
X3676357Y-19574500D01*
X3647786Y-19588786D01*
X3633500Y-19603072D01*
X3619214Y-19631643D01*
X3976357Y-19460214D02*
X4004928Y-19460214D01*
X4033500Y-19474500D01*
X4047786Y-19488786D01*
X4062071Y-19517357D01*
X4076357Y-19574500D01*
X4076357Y-19645929D01*
X4062071Y-19703072D01*
X4047786Y-19731643D01*
X4033500Y-19745929D01*
X4004928Y-19760214D01*
X3976357Y-19760214D01*
X3947786Y-19745929D01*
X3933500Y-19731643D01*
X3919214Y-19703072D01*
X3904928Y-19645929D01*
X3904928Y-19574500D01*
X3919214Y-19517357D01*
X3933500Y-19488786D01*
X3947786Y-19474500D01*
X3976357Y-19460214D01*
X4204928Y-19760214D02*
X4204928Y-19560214D01*
X4204928Y-19588786D02*
X4219214Y-19574500D01*
X4247786Y-19560214D01*
X4290643Y-19560214D01*
X4319214Y-19574500D01*
X4333500Y-19603072D01*
X4333500Y-19760214D01*
X4333500Y-19603072D02*
X4347786Y-19574500D01*
X4376357Y-19560214D01*
X4419214Y-19560214D01*
X4447786Y-19574500D01*
X4462071Y-19603072D01*
X4462071Y-19760214D01*
X4604928Y-19760214D02*
X4604928Y-19560214D01*
X4604928Y-19588786D02*
X4619214Y-19574500D01*
X4647786Y-19560214D01*
X4690643Y-19560214D01*
X4719214Y-19574500D01*
X4733500Y-19603072D01*
X4733500Y-19760214D01*
X4733500Y-19603072D02*
X4747786Y-19574500D01*
X4776357Y-19560214D01*
X4819214Y-19560214D01*
X4847786Y-19574500D01*
X4862071Y-19603072D01*
X4862071Y-19760214D01*
X5447786Y-19445929D02*
X5190643Y-19831643D01*
X5833500Y-19460214D02*
X5862071Y-19460214D01*
X5890643Y-19474500D01*
X5904928Y-19488786D01*
X5919214Y-19517357D01*
X5933500Y-19574500D01*
X5933500Y-19645929D01*
X5919214Y-19703072D01*
X5904928Y-19731643D01*
X5890643Y-19745929D01*
X5862071Y-19760214D01*
X5833500Y-19760214D01*
X5804928Y-19745929D01*
X5790643Y-19731643D01*
X5776357Y-19703072D01*
X5762071Y-19645929D01*
X5762071Y-19574500D01*
X5776357Y-19517357D01*
X5790643Y-19488786D01*
X5804928Y-19474500D01*
X5833500Y-19460214D01*
X6062071Y-19731643D02*
X6076357Y-19745929D01*
X6062071Y-19760214D01*
X6047786Y-19745929D01*
X6062071Y-19731643D01*
X6062071Y-19760214D01*
X6262071Y-19460214D02*
X6290643Y-19460214D01*
X6319214Y-19474500D01*
X6333500Y-19488786D01*
X6347786Y-19517357D01*
X6362071Y-19574500D01*
X6362071Y-19645929D01*
X6347786Y-19703072D01*
X6333500Y-19731643D01*
X6319214Y-19745929D01*
X6290643Y-19760214D01*
X6262071Y-19760214D01*
X6233500Y-19745929D01*
X6219214Y-19731643D01*
X6204928Y-19703072D01*
X6190643Y-19645929D01*
X6190643Y-19574500D01*
X6204928Y-19517357D01*
X6219214Y-19488786D01*
X6233500Y-19474500D01*
X6262071Y-19460214D01*
X6619214Y-19460214D02*
X6562071Y-19460214D01*
X6533500Y-19474500D01*
X6519214Y-19488786D01*
X6490643Y-19531643D01*
X6476357Y-19588786D01*
X6476357Y-19703072D01*
X6490643Y-19731643D01*
X6504928Y-19745929D01*
X6533500Y-19760214D01*
X6590643Y-19760214D01*
X6619214Y-19745929D01*
X6633500Y-19731643D01*
X6647786Y-19703072D01*
X6647786Y-19631643D01*
X6633500Y-19603072D01*
X6619214Y-19588786D01*
X6590643Y-19574500D01*
X6533500Y-19574500D01*
X6504928Y-19588786D01*
X6490643Y-19603072D01*
X6476357Y-19631643D01*
X6747786Y-19460214D02*
X6933500Y-19460214D01*
X6833500Y-19574500D01*
X6876357Y-19574500D01*
X6904928Y-19588786D01*
X6919214Y-19603072D01*
X6933500Y-19631643D01*
X6933500Y-19703072D01*
X6919214Y-19731643D01*
X6904928Y-19745929D01*
X6876357Y-19760214D01*
X6790643Y-19760214D01*
X6762071Y-19745929D01*
X6747786Y-19731643D01*
X7047786Y-19460214D02*
X7047786Y-19517357D01*
X7162071Y-19460214D02*
X7162071Y-19517357D01*
X7604928Y-19874500D02*
X7590643Y-19860214D01*
X7562071Y-19817357D01*
X7547786Y-19788786D01*
X7533500Y-19745929D01*
X7519214Y-19674500D01*
X7519214Y-19617357D01*
X7533500Y-19545929D01*
X7547786Y-19503072D01*
X7562071Y-19474500D01*
X7590643Y-19431643D01*
X7604928Y-19417357D01*
X7847786Y-19560214D02*
X7847786Y-19760214D01*
X7776357Y-19445929D02*
X7704928Y-19660214D01*
X7890643Y-19660214D01*
X8233500Y-19760214D02*
X8233500Y-19460214D01*
X8362071Y-19760214D02*
X8362071Y-19603072D01*
X8347786Y-19574500D01*
X8319214Y-19560214D01*
X8276357Y-19560214D01*
X8247786Y-19574500D01*
X8233500Y-19588786D01*
X8547786Y-19760214D02*
X8519214Y-19745929D01*
X8504928Y-19731643D01*
X8490643Y-19703072D01*
X8490643Y-19617357D01*
X8504928Y-19588786D01*
X8519214Y-19574500D01*
X8547786Y-19560214D01*
X8590643Y-19560214D01*
X8619214Y-19574500D01*
X8633500Y-19588786D01*
X8647786Y-19617357D01*
X8647786Y-19703072D01*
X8633500Y-19731643D01*
X8619214Y-19745929D01*
X8590643Y-19760214D01*
X8547786Y-19760214D01*
X8819214Y-19760214D02*
X8790643Y-19745929D01*
X8776357Y-19717357D01*
X8776357Y-19460214D01*
X9047786Y-19745929D02*
X9019214Y-19760214D01*
X8962071Y-19760214D01*
X8933500Y-19745929D01*
X8919214Y-19717357D01*
X8919214Y-19603072D01*
X8933500Y-19574500D01*
X8962071Y-19560214D01*
X9019214Y-19560214D01*
X9047786Y-19574500D01*
X9062071Y-19603072D01*
X9062071Y-19631643D01*
X8919214Y-19660214D01*
X9176357Y-19745929D02*
X9204928Y-19760214D01*
X9262071Y-19760214D01*
X9290643Y-19745929D01*
X9304928Y-19717357D01*
X9304928Y-19703072D01*
X9290643Y-19674500D01*
X9262071Y-19660214D01*
X9219214Y-19660214D01*
X9190643Y-19645929D01*
X9176357Y-19617357D01*
X9176357Y-19603072D01*
X9190643Y-19574500D01*
X9219214Y-19560214D01*
X9262071Y-19560214D01*
X9290643Y-19574500D01*
X9404928Y-19874500D02*
X9419214Y-19860214D01*
X9447786Y-19817357D01*
X9462071Y-19788786D01*
X9476357Y-19745929D01*
X9490643Y-19674500D01*
X9490643Y-19617357D01*
X9476357Y-19545929D01*
X9462071Y-19503072D01*
X9447786Y-19474500D01*
X9419214Y-19431643D01*
X9404928Y-19417357D01*
X2808500Y-19910500D02*
X2808500Y-20130500D01*
X2698500Y-20020500D02*
X2918500Y-20020500D01*
X2918500Y-20020500D02*
G75*
G03X2918500Y-20020500I-110000J0D01*
G01*
X3190643Y-19884786D02*
X3204928Y-19870500D01*
X3233500Y-19856214D01*
X3304928Y-19856214D01*
X3333500Y-19870500D01*
X3347786Y-19884786D01*
X3362071Y-19913357D01*
X3362071Y-19941929D01*
X3347786Y-19984786D01*
X3176357Y-20156214D01*
X3362071Y-20156214D01*
X3490643Y-20127643D02*
X3504928Y-20141929D01*
X3490643Y-20156214D01*
X3476357Y-20141929D01*
X3490643Y-20127643D01*
X3490643Y-20156214D01*
X3619214Y-19884786D02*
X3633500Y-19870500D01*
X3662071Y-19856214D01*
X3733500Y-19856214D01*
X3762071Y-19870500D01*
X3776357Y-19884786D01*
X3790643Y-19913357D01*
X3790643Y-19941929D01*
X3776357Y-19984786D01*
X3604928Y-20156214D01*
X3790643Y-20156214D01*
X3976357Y-19856214D02*
X4004928Y-19856214D01*
X4033500Y-19870500D01*
X4047786Y-19884786D01*
X4062071Y-19913357D01*
X4076357Y-19970500D01*
X4076357Y-20041929D01*
X4062071Y-20099072D01*
X4047786Y-20127643D01*
X4033500Y-20141929D01*
X4004928Y-20156214D01*
X3976357Y-20156214D01*
X3947786Y-20141929D01*
X3933500Y-20127643D01*
X3919214Y-20099072D01*
X3904928Y-20041929D01*
X3904928Y-19970500D01*
X3919214Y-19913357D01*
X3933500Y-19884786D01*
X3947786Y-19870500D01*
X3976357Y-19856214D01*
X4204928Y-20156214D02*
X4204928Y-19956214D01*
X4204928Y-19984786D02*
X4219214Y-19970500D01*
X4247786Y-19956214D01*
X4290643Y-19956214D01*
X4319214Y-19970500D01*
X4333500Y-19999072D01*
X4333500Y-20156214D01*
X4333500Y-19999072D02*
X4347786Y-19970500D01*
X4376357Y-19956214D01*
X4419214Y-19956214D01*
X4447786Y-19970500D01*
X4462071Y-19999072D01*
X4462071Y-20156214D01*
X4604928Y-20156214D02*
X4604928Y-19956214D01*
X4604928Y-19984786D02*
X4619214Y-19970500D01*
X4647786Y-19956214D01*
X4690643Y-19956214D01*
X4719214Y-19970500D01*
X4733500Y-19999072D01*
X4733500Y-20156214D01*
X4733500Y-19999072D02*
X4747786Y-19970500D01*
X4776357Y-19956214D01*
X4819214Y-19956214D01*
X4847786Y-19970500D01*
X4862071Y-19999072D01*
X4862071Y-20156214D01*
X5447786Y-19841929D02*
X5190643Y-20227643D01*
X5833500Y-19856214D02*
X5862071Y-19856214D01*
X5890643Y-19870500D01*
X5904928Y-19884786D01*
X5919214Y-19913357D01*
X5933500Y-19970500D01*
X5933500Y-20041929D01*
X5919214Y-20099072D01*
X5904928Y-20127643D01*
X5890643Y-20141929D01*
X5862071Y-20156214D01*
X5833500Y-20156214D01*
X5804928Y-20141929D01*
X5790643Y-20127643D01*
X5776357Y-20099072D01*
X5762071Y-20041929D01*
X5762071Y-19970500D01*
X5776357Y-19913357D01*
X5790643Y-19884786D01*
X5804928Y-19870500D01*
X5833500Y-19856214D01*
X6062071Y-20127643D02*
X6076357Y-20141929D01*
X6062071Y-20156214D01*
X6047786Y-20141929D01*
X6062071Y-20127643D01*
X6062071Y-20156214D01*
X6262071Y-19856214D02*
X6290643Y-19856214D01*
X6319214Y-19870500D01*
X6333500Y-19884786D01*
X6347786Y-19913357D01*
X6362071Y-19970500D01*
X6362071Y-20041929D01*
X6347786Y-20099072D01*
X6333500Y-20127643D01*
X6319214Y-20141929D01*
X6290643Y-20156214D01*
X6262071Y-20156214D01*
X6233500Y-20141929D01*
X6219214Y-20127643D01*
X6204928Y-20099072D01*
X6190643Y-20041929D01*
X6190643Y-19970500D01*
X6204928Y-19913357D01*
X6219214Y-19884786D01*
X6233500Y-19870500D01*
X6262071Y-19856214D01*
X6533500Y-19984786D02*
X6504928Y-19970500D01*
X6490643Y-19956214D01*
X6476357Y-19927643D01*
X6476357Y-19913357D01*
X6490643Y-19884786D01*
X6504928Y-19870500D01*
X6533500Y-19856214D01*
X6590643Y-19856214D01*
X6619214Y-19870500D01*
X6633500Y-19884786D01*
X6647786Y-19913357D01*
X6647786Y-19927643D01*
X6633500Y-19956214D01*
X6619214Y-19970500D01*
X6590643Y-19984786D01*
X6533500Y-19984786D01*
X6504928Y-19999072D01*
X6490643Y-20013357D01*
X6476357Y-20041929D01*
X6476357Y-20099072D01*
X6490643Y-20127643D01*
X6504928Y-20141929D01*
X6533500Y-20156214D01*
X6590643Y-20156214D01*
X6619214Y-20141929D01*
X6633500Y-20127643D01*
X6647786Y-20099072D01*
X6647786Y-20041929D01*
X6633500Y-20013357D01*
X6619214Y-19999072D01*
X6590643Y-19984786D01*
X6747786Y-19856214D02*
X6947786Y-19856214D01*
X6819214Y-20156214D01*
X7047786Y-19856214D02*
X7047786Y-19913357D01*
X7162071Y-19856214D02*
X7162071Y-19913357D01*
X7604928Y-20270500D02*
X7590643Y-20256214D01*
X7562071Y-20213357D01*
X7547786Y-20184786D01*
X7533500Y-20141929D01*
X7519214Y-20070500D01*
X7519214Y-20013357D01*
X7533500Y-19941929D01*
X7547786Y-19899072D01*
X7562071Y-19870500D01*
X7590643Y-19827643D01*
X7604928Y-19813357D01*
X7704928Y-19884786D02*
X7719214Y-19870500D01*
X7747786Y-19856214D01*
X7819214Y-19856214D01*
X7847786Y-19870500D01*
X7862071Y-19884786D01*
X7876357Y-19913357D01*
X7876357Y-19941929D01*
X7862071Y-19984786D01*
X7690643Y-20156214D01*
X7876357Y-20156214D01*
X8233500Y-20156214D02*
X8233500Y-19856214D01*
X8362071Y-20156214D02*
X8362071Y-19999072D01*
X8347786Y-19970500D01*
X8319214Y-19956214D01*
X8276357Y-19956214D01*
X8247786Y-19970500D01*
X8233500Y-19984786D01*
X8547786Y-20156214D02*
X8519214Y-20141929D01*
X8504928Y-20127643D01*
X8490643Y-20099072D01*
X8490643Y-20013357D01*
X8504928Y-19984786D01*
X8519214Y-19970500D01*
X8547786Y-19956214D01*
X8590643Y-19956214D01*
X8619214Y-19970500D01*
X8633500Y-19984786D01*
X8647786Y-20013357D01*
X8647786Y-20099072D01*
X8633500Y-20127643D01*
X8619214Y-20141929D01*
X8590643Y-20156214D01*
X8547786Y-20156214D01*
X8819214Y-20156214D02*
X8790643Y-20141929D01*
X8776357Y-20113357D01*
X8776357Y-19856214D01*
X9047786Y-20141929D02*
X9019214Y-20156214D01*
X8962071Y-20156214D01*
X8933500Y-20141929D01*
X8919214Y-20113357D01*
X8919214Y-19999072D01*
X8933500Y-19970500D01*
X8962071Y-19956214D01*
X9019214Y-19956214D01*
X9047786Y-19970500D01*
X9062071Y-19999072D01*
X9062071Y-20027643D01*
X8919214Y-20056214D01*
X9176357Y-20141929D02*
X9204928Y-20156214D01*
X9262071Y-20156214D01*
X9290643Y-20141929D01*
X9304928Y-20113357D01*
X9304928Y-20099072D01*
X9290643Y-20070500D01*
X9262071Y-20056214D01*
X9219214Y-20056214D01*
X9190643Y-20041929D01*
X9176357Y-20013357D01*
X9176357Y-19999072D01*
X9190643Y-19970500D01*
X9219214Y-19956214D01*
X9262071Y-19956214D01*
X9290643Y-19970500D01*
X9404928Y-20270500D02*
X9419214Y-20256214D01*
X9447786Y-20213357D01*
X9462071Y-20184786D01*
X9476357Y-20141929D01*
X9490643Y-20070500D01*
X9490643Y-20013357D01*
X9476357Y-19941929D01*
X9462071Y-19899072D01*
X9447786Y-19870500D01*
X9419214Y-19827643D01*
X9404928Y-19813357D01*
X2878960Y-20511960D02*
X2878960Y-20321040D01*
X2688040Y-20321040D01*
X2688040Y-20511960D01*
X2878960Y-20511960D01*
X2918500Y-20416500D02*
G75*
G03X2918500Y-20416500I-135000J0D01*
G01*
X3190643Y-20280786D02*
X3204928Y-20266500D01*
X3233500Y-20252214D01*
X3304928Y-20252214D01*
X3333500Y-20266500D01*
X3347786Y-20280786D01*
X3362071Y-20309357D01*
X3362071Y-20337929D01*
X3347786Y-20380786D01*
X3176357Y-20552214D01*
X3362071Y-20552214D01*
X3490643Y-20523643D02*
X3504928Y-20537929D01*
X3490643Y-20552214D01*
X3476357Y-20537929D01*
X3490643Y-20523643D01*
X3490643Y-20552214D01*
X3604928Y-20252214D02*
X3804928Y-20252214D01*
X3676357Y-20552214D01*
X3976357Y-20252214D02*
X4004928Y-20252214D01*
X4033500Y-20266500D01*
X4047786Y-20280786D01*
X4062071Y-20309357D01*
X4076357Y-20366500D01*
X4076357Y-20437929D01*
X4062071Y-20495072D01*
X4047786Y-20523643D01*
X4033500Y-20537929D01*
X4004928Y-20552214D01*
X3976357Y-20552214D01*
X3947786Y-20537929D01*
X3933500Y-20523643D01*
X3919214Y-20495072D01*
X3904928Y-20437929D01*
X3904928Y-20366500D01*
X3919214Y-20309357D01*
X3933500Y-20280786D01*
X3947786Y-20266500D01*
X3976357Y-20252214D01*
X4204928Y-20552214D02*
X4204928Y-20352214D01*
X4204928Y-20380786D02*
X4219214Y-20366500D01*
X4247786Y-20352214D01*
X4290643Y-20352214D01*
X4319214Y-20366500D01*
X4333500Y-20395072D01*
X4333500Y-20552214D01*
X4333500Y-20395072D02*
X4347786Y-20366500D01*
X4376357Y-20352214D01*
X4419214Y-20352214D01*
X4447786Y-20366500D01*
X4462071Y-20395072D01*
X4462071Y-20552214D01*
X4604928Y-20552214D02*
X4604928Y-20352214D01*
X4604928Y-20380786D02*
X4619214Y-20366500D01*
X4647786Y-20352214D01*
X4690643Y-20352214D01*
X4719214Y-20366500D01*
X4733500Y-20395072D01*
X4733500Y-20552214D01*
X4733500Y-20395072D02*
X4747786Y-20366500D01*
X4776357Y-20352214D01*
X4819214Y-20352214D01*
X4847786Y-20366500D01*
X4862071Y-20395072D01*
X4862071Y-20552214D01*
X5447786Y-20237929D02*
X5190643Y-20623643D01*
X5833500Y-20252214D02*
X5862071Y-20252214D01*
X5890643Y-20266500D01*
X5904928Y-20280786D01*
X5919214Y-20309357D01*
X5933500Y-20366500D01*
X5933500Y-20437929D01*
X5919214Y-20495072D01*
X5904928Y-20523643D01*
X5890643Y-20537929D01*
X5862071Y-20552214D01*
X5833500Y-20552214D01*
X5804928Y-20537929D01*
X5790643Y-20523643D01*
X5776357Y-20495072D01*
X5762071Y-20437929D01*
X5762071Y-20366500D01*
X5776357Y-20309357D01*
X5790643Y-20280786D01*
X5804928Y-20266500D01*
X5833500Y-20252214D01*
X6062071Y-20523643D02*
X6076357Y-20537929D01*
X6062071Y-20552214D01*
X6047786Y-20537929D01*
X6062071Y-20523643D01*
X6062071Y-20552214D01*
X6362071Y-20552214D02*
X6190643Y-20552214D01*
X6276357Y-20552214D02*
X6276357Y-20252214D01*
X6247786Y-20295072D01*
X6219214Y-20323643D01*
X6190643Y-20337929D01*
X6547786Y-20252214D02*
X6576357Y-20252214D01*
X6604928Y-20266500D01*
X6619214Y-20280786D01*
X6633500Y-20309357D01*
X6647786Y-20366500D01*
X6647786Y-20437929D01*
X6633500Y-20495072D01*
X6619214Y-20523643D01*
X6604928Y-20537929D01*
X6576357Y-20552214D01*
X6547786Y-20552214D01*
X6519214Y-20537929D01*
X6504928Y-20523643D01*
X6490643Y-20495072D01*
X6476357Y-20437929D01*
X6476357Y-20366500D01*
X6490643Y-20309357D01*
X6504928Y-20280786D01*
X6519214Y-20266500D01*
X6547786Y-20252214D01*
X6904928Y-20252214D02*
X6847786Y-20252214D01*
X6819214Y-20266500D01*
X6804928Y-20280786D01*
X6776357Y-20323643D01*
X6762071Y-20380786D01*
X6762071Y-20495072D01*
X6776357Y-20523643D01*
X6790643Y-20537929D01*
X6819214Y-20552214D01*
X6876357Y-20552214D01*
X6904928Y-20537929D01*
X6919214Y-20523643D01*
X6933500Y-20495072D01*
X6933500Y-20423643D01*
X6919214Y-20395072D01*
X6904928Y-20380786D01*
X6876357Y-20366500D01*
X6819214Y-20366500D01*
X6790643Y-20380786D01*
X6776357Y-20395072D01*
X6762071Y-20423643D01*
X7047786Y-20252214D02*
X7047786Y-20309357D01*
X7162071Y-20252214D02*
X7162071Y-20309357D01*
X7604928Y-20666500D02*
X7590643Y-20652214D01*
X7562071Y-20609357D01*
X7547786Y-20580786D01*
X7533500Y-20537929D01*
X7519214Y-20466500D01*
X7519214Y-20409357D01*
X7533500Y-20337929D01*
X7547786Y-20295072D01*
X7562071Y-20266500D01*
X7590643Y-20223643D01*
X7604928Y-20209357D01*
X7876357Y-20552214D02*
X7704928Y-20552214D01*
X7790643Y-20552214D02*
X7790643Y-20252214D01*
X7762071Y-20295072D01*
X7733500Y-20323643D01*
X7704928Y-20337929D01*
X7976357Y-20252214D02*
X8176357Y-20252214D01*
X8047786Y-20552214D01*
X8519214Y-20552214D02*
X8519214Y-20252214D01*
X8647786Y-20552214D02*
X8647786Y-20395072D01*
X8633500Y-20366500D01*
X8604928Y-20352214D01*
X8562071Y-20352214D01*
X8533500Y-20366500D01*
X8519214Y-20380786D01*
X8833500Y-20552214D02*
X8804928Y-20537929D01*
X8790643Y-20523643D01*
X8776357Y-20495072D01*
X8776357Y-20409357D01*
X8790643Y-20380786D01*
X8804928Y-20366500D01*
X8833500Y-20352214D01*
X8876357Y-20352214D01*
X8904928Y-20366500D01*
X8919214Y-20380786D01*
X8933500Y-20409357D01*
X8933500Y-20495072D01*
X8919214Y-20523643D01*
X8904928Y-20537929D01*
X8876357Y-20552214D01*
X8833500Y-20552214D01*
X9104928Y-20552214D02*
X9076357Y-20537929D01*
X9062071Y-20509357D01*
X9062071Y-20252214D01*
X9333500Y-20537929D02*
X9304928Y-20552214D01*
X9247786Y-20552214D01*
X9219214Y-20537929D01*
X9204928Y-20509357D01*
X9204928Y-20395072D01*
X9219214Y-20366500D01*
X9247786Y-20352214D01*
X9304928Y-20352214D01*
X9333500Y-20366500D01*
X9347786Y-20395072D01*
X9347786Y-20423643D01*
X9204928Y-20452214D01*
X9462071Y-20537929D02*
X9490643Y-20552214D01*
X9547786Y-20552214D01*
X9576357Y-20537929D01*
X9590643Y-20509357D01*
X9590643Y-20495072D01*
X9576357Y-20466500D01*
X9547786Y-20452214D01*
X9504928Y-20452214D01*
X9476357Y-20437929D01*
X9462071Y-20409357D01*
X9462071Y-20395072D01*
X9476357Y-20366500D01*
X9504928Y-20352214D01*
X9547786Y-20352214D01*
X9576357Y-20366500D01*
X9690643Y-20666500D02*
X9704928Y-20652214D01*
X9733500Y-20609357D01*
X9747786Y-20580786D01*
X9762071Y-20537929D01*
X9776357Y-20466500D01*
X9776357Y-20409357D01*
X9762071Y-20337929D01*
X9747786Y-20295072D01*
X9733500Y-20266500D01*
X9704928Y-20223643D01*
X9690643Y-20209357D01*
M02*
